<?xml version="1.0" encoding="UTF-8" standalone="no"?>
<svg
   version="1.0"
   viewBox="0 0 266 312"
   id="svg1"
   sodipodi:docname="logo-linux.svg"
   inkscape:export-filename="logo-linux.png"
   inkscape:export-xdpi="96"
   inkscape:export-ydpi="96"
   inkscape:version="1.3.1 (91b66b0783, 2023-11-16)"
   xmlns:inkscape="http://www.inkscape.org/namespaces/inkscape"
   xmlns:sodipodi="http://sodipodi.sourceforge.net/DTD/sodipodi-0.dtd"
   xmlns="http://www.w3.org/2000/svg"
   xmlns:svg="http://www.w3.org/2000/svg">
  <defs
     id="defs1" />
  <sodipodi:namedview
     id="namedview1"
     pagecolor="#a4a4a4"
     bordercolor="#000000"
     borderopacity="0.25"
     inkscape:showpageshadow="2"
     inkscape:pageopacity="0.0"
     inkscape:pagecheckerboard="0"
     inkscape:deskcolor="#d1d1d1"
     inkscape:export-bgcolor="#ffffff00"
     inkscape:zoom="3.7596154"
     inkscape:cx="131.52941"
     inkscape:cy="150.41432"
     inkscape:window-width="2046"
     inkscape:window-height="1371"
     inkscape:window-x="1394"
     inkscape:window-y="32"
     inkscape:window-maximized="0"
     inkscape:current-layer="svg1" />
  <g
     id="g17"
     inkscape:export-filename="logo-linux.svg"
     inkscape:export-xdpi="96"
     inkscape:export-ydpi="96">
    <g
       id="g15"
       style="display:inline;fill:#ffffff;fill-opacity:1"
       inkscape:export-filename="logo-linux.svg"
       inkscape:export-xdpi="96"
       inkscape:export-ydpi="96">
      <path
         style="fill:#ffffff;fill-opacity:1"
         d="m 184.13281,215.84375 c -4.99999,0 -7,5.19923 -7,15.69922 v 31.09961 c 0,0.9 -1,2.9 -1,6 -1,3.1 -1,6.62156 -1,10.60156 l -2,11.09961 v 0.16992 0.0293 c 4,7.51999 11.00001,11.30078 19,11.30078 2,0 4,-0.30039 6,-0.90039 2,-0.4 4,-1.10039 5,-1.90039 1,-0.7 2,-1.39922 3,-2.19922 2,-0.7 2,-1.20117 3,-1.70117 l 17,-14.69922 c 4,-3.19 8.00001,-5.98039 13,-8.40039 4,-2.4 8,-4.00039 10,-4.90039 3,-0.8 5,-1.99961 7,-3.59961 1,-1.5 2,-3.39883 2,-5.79883 0,-2.9 -2,-5.10117 -4,-6.70117 -2,-1.6 -4,-2.70039 -6,-3.40039 -2,-0.7 -4,-2.3 -7,-5 -2,-2.6 -4,-6.19844 -5,-10.89844 l -1,-5.80078 c -1,-2.7 -1,-4.70078 -2,-5.80078 0,-0.3 0,-0.39844 -1,-0.39844 -1,0 -3,0.89961 -4,2.59961 -2,1.7 -4,3.59961 -6,5.59961 -1,2 -4,3.8 -6,5.5 -2.99999,1.7 -6,2.59961 -8,2.59961 -7.99999,0 -12,-2.20001 -15,-6.5 -2,-3.2 -3,-6.89961 -4,-11.09961 -2,-1.7 -3,-2.59961 -5,-2.59961 z"
         id="path15" />
      <path
         style="fill:#ffffff;fill-opacity:1"
         d="m 51.332031,210.50391 c -4.199996,0.8 -7.100001,2.19961 -8.5,4.09961 -1.399998,1.89999 -2.200391,3.99922 -2.40039,6.19921 -0.3,2.1 -0.900392,3.50118 -1.900391,4.20118 -0.999999,0.6 -2.700002,1.09961 -5,1.59961 -0.5,0 -1.39922,-3.9e-4 -2.699219,0.0996 h -2.699219 c -5.299994,0 -8.900783,0.59962 -10.800781,1.59961 -2.499997,2.9 -3.800781,6.20118 -3.800781,9.70118 0,1.59999 0.401173,4.29961 1.201172,8.09961 0.799999,3.69999 1.199219,6.69883 1.199219,8.79882 0,4.1 -1.199222,8.20079 -3.699219,12.30078 -2.499998,4.3 -3.8007814,7.4993 -3.8007814,9.7793 0.999999,3.88 7.6011844,6.61094 19.7011714,8.21094 v 0.0293 c 9.299991,1.35999 19.999621,4.27094 32.09961,8.71093 12.099988,4.4 19.499221,6.69922 22.199219,6.69922 6.999993,0 12.799612,-3.09985 17.599609,-9.08984 1,-1.94 1,-4.21985 1,-6.83985 0,-9.44999 -5.699621,-21.4004 -17.099609,-35.90039 l -6.798829,-9.09961 c -1.399998,-1.89999 -3.100783,-4.79922 -5.300781,-8.69921 -2.099998,-3.9 -4.000001,-6.90001 -5.5,-9 -1.299998,-2.3 -3.399612,-4.6004 -6.099609,-6.90039 -2.599998,-2.3 -5.600394,-3.79961 -8.900391,-4.59961 z"
         id="path14" />
      <path
         style="fill:#ffffff;fill-opacity:1"
         d="m 190.13281,144.34375 c -1,1 -1,1 -1,2 5,2 10.00001,6.00001 13,12 3,6.99999 4,13.00001 4,20 0,5.59999 -1,13.90001 -5,24.5 -3.99999,1.6 -8,5.29962 -11,11.09961 0,0.9 0,1.40039 1,1.40039 0,0 1,-0.89961 2,-2.59961 2,-1.7 3,-3.40156 5,-5.10156 3,-1.7 5.00001,-2.59961 8,-2.59961 5,0 10.00001,0.69961 13,2.09961 4,1.3 6,2.70078 7,4.30078 1,1.5 2,2.89922 3,4.19922 0,1.3 1,1.90039 1,1.90039 1,0 1,-0.39883 1,-1.29883 0,-2.2 -1,-4.80117 -4,-7.70117 -2.99999,-3 -8,-4.89922 -14,-5.69922 -1,-0.1 -2,-0.0996 -2,-0.0996 -1,-0.2 -1,-0.20117 -2,-0.20117 -1,-0.1 -3,-0.3 -4,-0.5 3,-9.29999 4,-17.49923 4,-24.69922 0,-9.99999 -2,-17.00001 -6,-23 -3.99999,-5.99999 -8,-9 -13,-10 z"
         id="path13" />
      <path
         style="fill:#ffffff;fill-opacity:1"
         d="m 156.03125,96.792969 -9,7.000001 c -9.99999,6.99999 -18.00001,10 -25,10 -5.99999,0 -11,-1.00001 -14,-5 l -6,-5 c 0,3 -1,7 -3,11 l -6.298828,12 c -2.799997,6.99999 -4.29961,11 -4.59961,14 -0.399999,2 -0.70039,4 -0.90039,4 l -7.5,15 c -8.099992,14.99998 -12.201172,28.9004 -12.201172,40.40039 0,2.3 0.201563,4.69961 0.601562,7.09961 -4.499995,-3.1 -6.701171,-7.40001 -6.701171,-13 0,-6.89999 1.800003,-14.50001 5.5,-23.5 3.599996,-8.99999 7.201175,-15.00001 10.701171,-19 -0.199999,-1 -0.7,-1 -1.5,-1 l -1,-1 c -2.899997,3 -6.401566,10.00001 -10.601562,20 -4.199996,8.99999 -6.398438,17.3004 -6.398438,23.40039 0,4.49999 1.099612,8.40078 3.09961,11.80078 2.199998,3.3 7.500399,8.09923 15.90039,14.19922 l 10.59961,6.90039 c 11.299986,9.79999 17.298828,16.59961 17.298828,20.59961 0,2.1 -1,4.2 -4,6.5 -2.000002,2.4 -4.700005,3.59961 -7,3.59961 -0.2,0 -0.298828,0.20117 -0.298828,0.70117 0,0.1 0.999614,2.1 3.099609,6 4.199999,5.69999 13.199229,8.5 25.199219,8.5 21.99998,0 39.00001,-9.00002 52,-27 0,-4.99999 0,-8.10039 -1,-9.40039 v -3.70117 c 0,-6.5 1,-11.39961 3,-14.59961 2,-3.2 4,-4.69922 7,-4.69922 2,0 4,0.69922 6,2.19922 1,-7.69999 1,-14.4004 1,-20.40039 0,-9.09999 0,-16.59962 -2,-23.59961 -1,-6 -3,-11.00001 -5,-15 l -6,-9 c -2,-3 -3,-6 -5,-9 -1,-4 -2,-7.00001 -2,-12 -3,-5 -5,-10.00001 -8,-15 -2,-5 -4,-10 -6,-14.000001 z"
         id="path12" />
      <path
         style="fill:#ffffff;fill-opacity:1"
         d="m 125.13281,72.542969 2,1 c 1,0.999999 2,2.000001 2,3 0,0.999999 -1,1 -1,1 h -1 c -1,0 -1,-1.000001 -2,-2 0,0 -1,-1.000001 -1,-2 0,-0.999999 0,-1 1,-1 z"
         id="path11" />
      <path
         style="fill:#ffffff;fill-opacity:1"
         d="m 119.13281,72.542969 c 1,0 1,1 1,1 0,0.999999 -1,2.000002 -3,4 h -1 c -1,0 -1,-10e-7 -1,-1 0,-0.999999 0,-2.000001 1,-3 2,0 3,-1 3,-1 z"
         id="path10" />
      <path
         style="fill:#ffffff;fill-opacity:1"
         d="m 123.13281,70.542969 c -2.99999,0 -8,2.000004 -15,6 -5.99999,3.999996 -9.999997,8.000004 -9.999998,12 0,0 0.999998,1.000002 1.999998,3 6,4.999995 12.00001,8 18,8 7.99999,0 18.00002,-4.00001 31,-14 v 2 c 1,0 1,1 1,1 -12.99998,8.999991 -23.00001,13.000001 -31,13.000001 -6.99999,0 -14,-3.000006 -19.999998,-8.000001 1.000008,1.999998 1.999998,4.000001 2.999998,5 l 6,6.000001 c 4,3.99999 9.00001,6 14,6 7,0 15.00001,-4.00001 25,-11.000001 l 9,-6 c 2,-1.999998 4,-4.000003 4,-7 0,-0.999999 0,-2 -1,-2 -1,-1.999998 -6.00001,-5.000003 -16,-8 -8.99999,-3.999996 -16,-6 -20,-6 z"
         id="path9" />
      <path
         style="fill:#ffffff;fill-opacity:1"
         d="m 147.13281,58.542969 c 0,0 -1,1 -2,1 0,0.999999 1,1.000001 1,2 2,0 3,2.000003 4,5 h 2 c -1,-0.999999 -1,-2.000001 -1,-3 0,-0.999999 0,-2.000001 -1,-3 -1,-0.999999 -2,-2 -3,-2 z"
         id="path8" />
      <path
         style="fill:#ffffff;fill-opacity:1"
         d="m 106.13281,58.542969 c 0,0 0,1 -1,1 v 2 h 3 c 0,1.999998 1,3.000002 1,5 h 2 c 0,-4.999995 -2,-8 -5,-8 z"
         id="path7" />
      <path
         style="fill:#ffffff;fill-opacity:1"
         d="m 106.13281,49.542969 c -2.99999,0 -5.99999,2.000003 -6.999998,5 -1.999998,3.999996 -2.40039,7.000005 -2.40039,12 0,3.999996 1.400391,8.000004 5.400388,12 1,-0.999999 2,-1.000001 3,-2 -3.99999,-1.999998 -5,-5.000005 -5,-10 0,-2.999997 0,-5.000002 2,-7 1,-1.999998 3,-3 5,-3 2,0 3,1.000002 5,3 1,2.999997 2,6.000003 2,9 v 2 h 1 v -1 c 1,0 1,-2.000004 1,-6 0,-2.999997 0,-6.000003 -2,-9 -2,-2.999997 -4,-5 -8,-5 z"
         id="path6" />
      <path
         style="fill:#ffffff;fill-opacity:1"
         d="m 144.13281,47.542969 c -2.99999,0 -6,1.000002 -9,3 -2,2.999997 -3,5.000003 -3,8 0,4.999995 1,9.000004 3,13 1,0 2,1 3,1 -1,-0.999999 -1,-3.000002 -1,-5 0,-3.999996 0,-6.000003 2,-9 2,-1.999998 4,-3 6,-3 3,0 5,2.000002 7,4 1,2.999997 2,5.000003 2,8 0,4.999995 -2,8.000001 -6,9 0,0 1,1 2,1 2,0 3,1.000001 5,2 1,-5.999994 2,-10.000005 2,-15 0,-5.999994 -1,-10.000003 -3,-13 -2.99999,-2.999997 -6,-4 -10,-4 z"
         id="path5" />
    </g>
    <path
       d="m 129.1322,76.543176 c 0,1 -1,1 -1,1 h -1 c -1,0 -1,-1 -2,-2 0,0 -1,-1 -1,-2 0,-1 0,-1 1,-1 l 2,1 c 1,1 2,2 2,3 m -18,-10 c 0,-5 -2,-8 -5,-8 0,0 0,1 -1,1 v 2 h 3 c 0,2 1,3 1,5 h 2 m 35,-5 c 2,0 3,2 4,5 h 2 c -1,-1 -1,-2 -1,-3 0,-1 0,-2 -1,-3 -1,-1 -2,-2 -3,-2 0,0 -1,1 -2,1 0,1 1,1 1,2 m -30,16 c -1,0 -1,0 -1,-1 0,-1 0,-2 1,-3 2,0 3,-1 3,-1 1,0 1,1 1,1 0,1 -1,2 -3,4 h -1 m -11,-1 c -4,-2 -5,-5 -5,-10 0,-3 0,-5 2,-7 1,-2 3,-3 5,-3 2,0 3,1 5,3 1,3 2,6 2,9 v 2 h 1 v -1 c 1,0 1,-2 1,-6 0,-3 0,-6 -2,-9 -2,-3 -4,-5 -8,-5 -3,0 -6,2 -7.000004,5 -2,4 -2.4,7 -2.4,12 0,4 1.4,8 5.400004,12 1,-1 2,-1 3,-2 m 125,140.999994 c 1,0 1,-0.4 1,-1.3 0,-2.2 -1,-4.8 -4,-7.7 -3,-3 -8,-4.9 -14,-5.7 -1,-0.1 -2,-0.1 -2,-0.1 -1,-0.2 -1,-0.2 -2,-0.2 -1,-0.1 -3,-0.3 -4,-0.5 3,-9.3 4,-17.5 4,-24.7 0,-10 -2,-17 -6,-23 -4,-6 -8,-9 -13,-10 -1,1 -1,1 -1,2 5,2 10,6 13,12 3,7 4,13 4,20 0,5.6 -1,13.9 -5,24.5 -4,1.6 -8,5.3 -11,11.1 0,0.9 0,1.4 1,1.4 0,0 1,-0.9 2,-2.6 2,-1.7 3,-3.4 5,-5.1 3,-1.7 5,-2.6 8,-2.6 5,0 10,0.7 13,2.1 4,1.3 6,2.7 7,4.3 1,1.5 2,2.9 3,4.2 0,1.3 1,1.9 1,1.9 m -92,-144.999994 c -1,-1 -1,-3 -1,-5 0,-4 0,-6 2,-9 2,-2 4,-3 6,-3 3,0 5,2 7,4 1,3 2,5 2,8 0,5 -2,8 -6,9 0,0 1,1 2,1 2,0 3,1 5,2 1,-6 2,-10 2,-15 0,-6 -1,-10 -3,-13 -3,-3 -6,-4 -10,-4 -3,0 -6,1 -9,3 -2,3 -3,5 -3,8 0,5 1,9 3,13 1,0 2,1 3,1 m 12,16 c -13,9 -23,13.000004 -31,13.000004 -7,0 -14,-3.000004 -20.000004,-8.000004 1.000004,2 2.000004,4 3.000004,5 l 6,5.999994 c 4,4 9,6 14,6 7,0 15,-4 25,-10.999994 l 9,-6 c 2,-2 4,-4 4,-7 0,-1 0,-2 -1,-2 -1,-2 -6,-5 -16,-8 -9,-4 -16,-6 -20,-6 -3,0 -8,2 -15,6 -6,4 -10.000004,8 -10.000004,12 0,0 1,1 2.000004,3 6,5 12,8 18,8 8,0 18,-4 31,-14 v 2 c 1,0 1,1 1,1 m 23,201.999994 c 4,7.52 11,11.3 19,11.3 2,0 4,-0.3 6,-0.9 2,-0.4 4,-1.1 5,-1.9 1,-0.7 2,-1.4 3,-2.2 2,-0.7 2,-1.2 3,-1.7 l 17,-14.7 c 4,-3.19 8,-5.98 13,-8.4 4,-2.4 8,-4 10,-4.9 3,-0.8 5,-2 7,-3.6 1,-1.5 2,-3.4 2,-5.8 0,-2.9 -2,-5.1 -4,-6.7 -2,-1.6 -4,-2.7 -6,-3.4 -2,-0.7 -4,-2.3 -7,-5 -2,-2.6 -4,-6.2 -5,-10.9 l -1,-5.8 c -1,-2.7 -1,-4.7 -2,-5.8 0,-0.3 0,-0.4 -1,-0.4 -1,0 -3,0.9 -4,2.6 -2,1.7 -4,3.6 -6,5.6 -1,2 -4,3.8 -6,5.5 -3,1.7 -6,2.6 -8,2.6 -8,0 -12,-2.2 -15,-6.5 -2,-3.2 -3,-6.9 -4,-11.1 -2,-1.7 -3,-2.6 -5,-2.6 -5,0 -7,5.2 -7,15.7 v 31.1 c 0,0.9 -1,2.9 -1,6 -1,3.1 -1,6.62 -1,10.6 l -2,11.1 v 0.17 m -145.000002,-5.29 c 9.3,1.36 20,4.27 32.100001,8.71 12.1,4.4 19.499999,6.7 22.199999,6.7 7,0 12.8,-3.1 17.600002,-9.09 1,-1.94 1,-4.22 1,-6.84 0,-9.45 -5.700001,-21.4 -17.100001,-35.9 l -6.8,-9.1 c -1.4,-1.9 -3.1,-4.8 -5.3,-8.7 -2.1,-3.9 -4,-6.9 -5.5,-9 -1.3,-2.3 -3.4,-4.6 -6.1,-6.9 -2.6,-2.3 -5.6,-3.8 -8.9,-4.6 -4.2,0.8 -7.1,2.2 -8.5,4.1 -1.4,1.9 -2.2,4 -2.4,6.2 -0.3,2.1 -0.9,3.5 -1.9,4.2 -1,0.6 -2.7,1.1 -5,1.6 -0.5,0 -1.4,0 -2.7,0.1 h -2.7 c -5.3,0 -8.9,0.6 -10.8,1.6 -2.5,2.9 -3.8,6.2 -3.8,9.7 0,1.6 0.4,4.3 1.2,8.1 0.8,3.7 1.2,6.7 1.2,8.8 0,4.1 -1.2,8.2 -3.7,12.3 -2.5000004,4.3 -3.8000004,7.5 -3.8000004,9.78 1,3.88 7.6000004,6.61 19.7000004,8.21 m 33.3,-90.9 c 0,-6.9 1.8,-14.5 5.5,-23.5 3.6,-9 7.2,-15 10.7,-19 -0.2,-1 -0.7,-1 -1.5,-1 l -1,-1 c -2.9,3 -6.4,10 -10.6,20 -4.2,9 -6.4,17.3 -6.4,23.4 0,4.5 1.1,8.4 3.1,11.8 2.2,3.3 7.5,8.1 15.9,14.2 l 10.6,6.9 c 11.299997,9.8 17.300001,16.6 17.300001,20.6 0,2.1 -1,4.2 -4,6.5 -2.000004,2.4 -4.700004,3.6 -7.000001,3.6 -0.2,0 -0.3,0.2 -0.3,0.7 0,0.1 1,2.1 3.099997,6 4.200004,5.7 13.200004,8.5 25.200004,8.5 22,0 39,-9 52,-27 0,-5 0,-8.1 -1,-9.4 v -3.7 c 0,-6.5 1,-11.4 3,-14.6 2,-3.2 4,-4.7 7,-4.7 2,0 4,0.7 6,2.2 1,-7.7 1,-14.4 1,-20.4 0,-9.1 0,-16.6 -2,-23.6 -1,-6 -3,-11 -5,-15 l -6,-9 c -2,-3 -3,-6 -5,-9 -1,-4 -2,-7 -2,-12 -3,-5 -5,-10 -8,-15 -2,-5 -4,-9.99999 -6,-13.999994 l -9,6.999994 c -10,7 -18,10 -25,10 -6,0 -11,-1 -14,-5 l -6,-5 c 0,3 -1,7 -3.000004,11 l -6.299997,12 c -2.8,7 -4.3,11 -4.6,14 -0.4,2 -0.7,4 -0.9,4 l -7.5,15 c -8.1,15 -12.2,28.9 -12.2,40.4 0,2.3 0.2,4.7 0.6,7.1 -4.5,-3.1 -6.7,-7.4 -6.7,-13 m 71.600001,94.6 c -13,0 -23,1.76 -30,5.25 v -0.3 c -5.000004,6 -10.600001,9.1 -18.400001,9.1 -4.9,0 -12.6,-1.9 -23,-5.7 -10.5,-3.6 -19.8,-6.36 -27.9,-8.18 -0.8,-0.23 -2.6,-0.57 -5.5,-1.03 -2.8,-0.45 -5.4,-0.91 -7.7,-1.37 -2.1,-0.45 -4.5,-1.13 -7.1,-2.05 -2.5,-0.79 -4.5000004,-1.82 -6.0000004,-3.07 -1.38,-1.26 -2.0600005,-2.68 -2.0600005,-4.27 0,-1.6 0.3400005,-3.31 1.0200005,-5.13 0.64,-1.1 1.34,-2.2 2.04,-3.2 0.7,-1.1 1.3,-2.1 1.7000004,-3.1 0.6,-0.9 1,-1.8 1.4,-2.8 0.4,-0.9 0.8,-1.8 1,-2.9 0.2,-1 0.4,-2 0.4,-3 0,-1 -0.4,-4 -1.2,-9.3 -0.8,-5.2 -1.2,-8.5 -1.2,-9.9 0,-4.4 1,-7.9 3.2,-10.4 2.2,-2.5 4.3,-3.8 6.5,-3.8 h 11.5 c 0.9,0 2.3,-0.5 4.4,-1.7 0.7,-1.6 1.3,-2.9 1.7,-4.1 0.5,-1.2 0.7,-2.1 0.9,-2.5 0.2,-0.6 0.4,-1.2 0.6,-1.7 0.4,-0.7 0.9,-1.5 1.6,-2.3 -0.8,-1 -1.2,-2.3 -1.2,-3.9 0,-1.1 0,-2.1 0.2,-2.7 0,-3.6 1.7,-8.7 5.3,-15.4 l 3.5,-6.3 c 2.9,-5.4 5.1,-9.4 6.7,-13.4 1.7,-4 3.5,-10 5.5,-18 1.6,-7 5.4,-14 11.4,-21 l 7.5,-9 c 5.2,-6 8.6,-11 10.5,-15 1.9,-4 2.9,-8.999994 2.9,-12.999994 0,-2 -0.5,-8 -1.6,-18 -1,-10 -1.5,-20 -1.5,-29 0,-7 0.6,-12 1.9,-17 1.3,-5 3.599997,-10 6.999997,-14 3.000004,-4 7.000004,-7.9999999 13.000004,-9.9999999 6,-2 13,-3 21,-3 3,0 6,0 9,1 3,0 7,1 12,3 4,2 8,3.9999999 11,6.9999999 4,3 7,8 10,13 2,6 4,12 5,20 1,5 1,10 2,17 0,6 1,10 1,13 1,3 1,7 2,12 1,4 2,8 4,11 2,3.999994 4,7.999994 7,11.999994 3,5 7,10 11,16 9,10 16,21 20,32 5,10 8,23 8,36.9 0,6.9 -1,13.6 -3,20.1 2,0 3,0.8 4,2.2 1,1.4 2,4.4 3,9.1 l 1,7.4 c 1,2.2 2,4.3 5,6.1 2,1.8 4,3.3 7,4.5 2,1 5,2.4 7,4.2 2,2 3,4.1 3,6.3 0,3.4 -1,5.9 -3,7.7 -2,2 -4,3.4 -7,4.3 -2,1 -6,3 -12,5.82 -5,2.96 -10,6.55 -15,10.8 l -10,8.51 c -4,3.9 -8,6.7 -11,8.4 -3,1.8 -7,2.7 -11,2.7 l -7,-0.8 c -8,-2.1 -13,-6.1 -16,-12.2 -16,-1.94 -29,-2.9 -37,-2.9"
       id="path4"
       style="display:inline;fill:#000000;fill-opacity:1" />
  </g>
</svg>
