<?xml version="1.0" encoding="utf-8"?>
<!-- Generator: Adobe Illustrator 28.0.0, SVG Export Plug-In . SVG Version: 6.00 Build 0)  -->
<svg version="1.1" id="Layer_1" xmlns="http://www.w3.org/2000/svg" xmlns:xlink="http://www.w3.org/1999/xlink" x="0px" y="0px"
	 viewBox="0 0 3840 1698.5" style="enable-background:new 0 0 3840 1698.5;" xml:space="preserve">
<style type="text/css">
	.st0{fill:none;stroke:#9BF316;stroke-width:12;stroke-linecap:round;stroke-miterlimit:10;stroke-dasharray:49.9771,49.9771;}
	.st1{fill:none;}
	.st2{enable-background:new    ;}
	.st3{fill:#FFFFFF;}
	.st4{fill:none;stroke:#9BF316;stroke-width:12;stroke-linecap:round;stroke-miterlimit:10;stroke-dasharray:49.8329,49.8329;}
	.st5{fill:none;stroke:#FFFFFF;stroke-miterlimit:10;}
	.st6{fill:#FFF080;}
	.st7{fill:#FFE424;}
	.st8{fill:none;stroke:#220F67;stroke-width:20;stroke-linecap:round;stroke-linejoin:round;}
	.st9{fill-rule:evenodd;clip-rule:evenodd;fill:#FFFFFF;}
	.st10{fill-rule:evenodd;clip-rule:evenodd;fill:#A3A3A3;}
	.st11{fill:#00001F;}
	.st12{fill-rule:evenodd;clip-rule:evenodd;fill:#B3B3B3;}
	.st13{fill-rule:evenodd;clip-rule:evenodd;fill:#E6E6E6;}
	.st14{fill:#FFFFFF;stroke:#000000;stroke-width:2.9998;stroke-miterlimit:9.9992;}
	.st15{fill:#FFFFFF;stroke:#000000;stroke-width:3;stroke-miterlimit:10;}
	.st16{fill-rule:evenodd;clip-rule:evenodd;fill:#FF0000;}
	.st17{fill-rule:evenodd;clip-rule:evenodd;fill:#00FF00;}
	.st18{fill-rule:evenodd;clip-rule:evenodd;fill:#06B806;}
	.st19{fill-rule:evenodd;clip-rule:evenodd;}
	.st20{fill:#B3B3B3;}
	.st21{opacity:0.25;}
	.st22{fill:#FEFCF9;}
	.st23{fill:none;stroke:#FFFFFF;stroke-width:4;stroke-linecap:round;stroke-linejoin:round;stroke-miterlimit:10;}
	.st24{fill:none;stroke:#FF005C;stroke-width:25;stroke-linecap:round;stroke-miterlimit:10;}
	.st25{fill:none;stroke:#FF005C;stroke-width:25;stroke-linecap:round;stroke-miterlimit:10;stroke-dasharray:51.1352,51.1352;}
	.st26{fill:#220F67;}
	.st27{fill:#9BF316;}
	.st28{fill:#5CAEFF;}
	.st29{fill:#66E1FF;}
	.st30{fill:#C2F3FF;}
	.st31{fill:#FFFFFF;stroke:#220F67;stroke-width:20;stroke-linecap:round;stroke-linejoin:round;}
	.st32{fill:none;stroke:#9BF316;stroke-width:20;}
	.st33{opacity:0.95;fill:#FFFFFF;enable-background:new    ;}
	.st34{fill:#010101;}
	.st35{fill:url(#SVGID_1_);}
	.st36{fill:#FF005C;}
	.st37{fill:#FFE000;}
	.st38{fill:#5CAEFE;stroke:#230F67;stroke-width:15;stroke-miterlimit:10;}
	.st39{fill:none;stroke:#230F67;stroke-width:15;stroke-miterlimit:10;}
	.st40{fill:#9FD4FF;}
	.st41{fill:none;stroke:#66E1FF;stroke-width:25;stroke-linecap:round;stroke-miterlimit:10;}
	.st42{fill:none;stroke:#191919;stroke-width:20;stroke-linecap:round;stroke-linejoin:round;}
	.st43{fill:#B2B2B2;}
	.st44{fill:none;stroke:#191919;stroke-width:10;stroke-linecap:round;stroke-linejoin:round;}
	.st45{fill:#FF808C;stroke:#191919;stroke-width:10;stroke-linecap:round;stroke-linejoin:round;}
	.st46{fill:#FFEF5E;stroke:#191919;stroke-width:10;stroke-linecap:round;stroke-linejoin:round;}
	.st47{fill:#78EB7B;stroke:#191919;stroke-width:10;stroke-linecap:round;stroke-linejoin:round;}
	.st48{fill:#66E1FF;stroke:#191919;stroke-width:10;stroke-linecap:round;stroke-linejoin:round;}
	.st49{fill:none;stroke:#66E1FF;stroke-width:20;stroke-linecap:round;stroke-miterlimit:10;}
</style>
<g>
	<path class="st0" d="M1751.3,1599.2H163c-48.6,0-88.4-39.8-88.4-88.4V178c0-48.6,39.8-88.4,88.4-88.4h1588.2
		c48.6,0,88.4,39.8,88.4,88.4v1332.7C1839.7,1559.4,1799.9,1599.2,1751.3,1599.2z"/>
</g>
<rect x="438" y="192.3" class="st1" width="1013.4" height="216.2"/>
<g class="st2">
	<path class="st3" d="M489,192.3h42c7,0,12.1,1.6,15.2,4.8c3.2,3.2,4.8,8.2,4.8,15.2v10c0,7-1.6,12.1-4.8,15.2
		c-3.2,3.2-8.2,4.8-15.2,4.8h-24v20h-18V192.3z M533,212.3c0-4-2-6-6-6h-20v22h20c4,0,6-2,6-6V212.3z"/>
	<path class="st3" d="M605,192.3h18v51c0,7-1.6,12.1-4.8,15.2c-3.2,3.2-8.2,4.8-15.2,4.8h-23c-7,0-12.1-1.6-15.2-4.8
		c-3.2-3.2-4.8-8.2-4.8-15.2v-51h18v51c0,4,2,6,6,6h15c4,0,6-2,6-6V192.3z"/>
	<path class="st3" d="M635,192.3h40c6.5,0,11.3,1.5,14.4,4.5c3.1,3,4.6,7.5,4.6,13.5c0,4-0.9,7.2-2.6,9.8c-1.7,2.5-3.9,4.2-6.4,5.2
		c5.4,1.5,9.1,5.1,11,10.8c0.7,2.1,1,4.5,1,7.2c0,6.5-1.5,11.3-4.6,14.4s-7.9,4.6-14.4,4.6h-43V192.3z M676,212.3c0-4-2-6-6-6h-17
		v14h17c4,0,6-2,6-6V212.3z M679,240.3c0-4-2-6-6-6h-20v14h20c4,0,6-2,6-6V240.3z"/>
	<path class="st3" d="M724,248.3h36.5v14H706v-70h18V248.3z"/>
	<path class="st3" d="M800.5,262.3h-36v-14h9v-42h-9v-14h36v14h-9v42h9V262.3z"/>
	<path class="st3" d="M863.5,261.3c-14.9,1.3-27.2,2-37,2c-6.5,0-11.3-1.5-14.4-4.6c-3.1-3.1-4.6-7.9-4.6-14.4v-32
		c0-7,1.6-12.1,4.8-15.2c3.2-3.2,8.2-4.8,15.2-4.8h36v14h-32c-4,0-6,2-6,6v32c0,1.5,0.5,2.8,1.4,3.7s2,1.3,3.4,1.3s2.9,0,4.6,0
		c1.7,0,3.4-0.1,5.2-0.2c1.8-0.1,3.6-0.1,5.4-0.2c1.8-0.1,4.2-0.2,7.1-0.4s6.5-0.4,10.9-0.7L863.5,261.3L863.5,261.3z"/>
	<path class="st3" d="M934.5,262.3h-36v-14h9v-42h-9v-14h36v14h-9v42h9V262.3z"/>
	<path class="st3" d="M1004.5,262.3h-19l-24-42v42h-18v-70h19l24,42v-42h18V262.3z"/>
	<path class="st3" d="M1050.5,262.3h-18v-56h-21v-14h60v14h-21V262.3z"/>
	<path class="st3" d="M1134,262.3h-55.5v-70h55.5v14h-37.5v13.5h29.5v14h-29.5v14.5h37.5V262.3z"/>
	<path class="st3" d="M1142,192.3h42c7,0,12.1,1.6,15.2,4.8c3.2,3.2,4.8,8.2,4.8,15.2v9c0,5.5-0.9,9.8-2.8,12.9
		c-1.8,3.1-4.8,5.1-8.8,6.1l12.5,22h-19.5l-11.5-21h-14v21h-18v-70H1142z M1186,212.3c0-4-2-6-6-6h-20v21h20c4,0,6-2,6-6V212.3z"/>
	<path class="st3" d="M1274.9,262.3h-19l-24-42v42h-18v-70h19l24,42v-42h18V262.3z"/>
	<path class="st3" d="M1342.4,262.3h-55.5v-70h55.5v14h-37.5v13.5h29.5v14h-29.5v14.5h37.5V262.3z"/>
	<path class="st3" d="M1384.4,262.3h-18v-56h-21v-14h60v14h-21V262.3z"/>
</g>
<g>
	<path class="st4" d="M3667.8,1599.2h-1579c-48.6,0-88.4-39.8-88.4-88.4V178c0-48.6,39.8-88.4,88.4-88.4h1579
		c48.6,0,88.4,39.8,88.4,88.4v1332.7C3756.2,1559.4,3716.5,1599.2,3667.8,1599.2z"/>
</g>
<rect x="2422.2" y="191" class="st1" width="1006.5" height="216.2"/>
<g class="st2">
	<path class="st3" d="M2435.6,191h42c7,0,12.1,1.6,15.2,4.8c3.2,3.2,4.8,8.2,4.8,15.2v10c0,7-1.6,12.1-4.8,15.2
		c-3.2,3.2-8.2,4.8-15.2,4.8h-24v20h-18V191z M2479.6,211c0-4-2-6-6-6h-20v22h20c4,0,6-2,6-6V211z"/>
	<path class="st3" d="M2506.6,191h42c7,0,12.1,1.6,15.2,4.8c3.2,3.2,4.8,8.2,4.8,15.2v9c0,5.5-0.9,9.8-2.8,12.9
		c-1.8,3.1-4.8,5.1-8.8,6.1l12.5,22H2550l-11.5-21h-14v21h-18v-70H2506.6z M2550.6,211c0-4-2-6-6-6h-20v21h20c4,0,6-2,6-6V211z"/>
	<path class="st3" d="M2611.6,261h-36v-14h9v-42h-9v-14h36v14h-9v42h9V261z"/>
	<path class="st3" d="M2650.1,240l17-49h19.5l-26.5,70h-20l-26.5-70h19.5L2650.1,240z"/>
	<path class="st3" d="M2697.1,261h-19.5l26.5-70h20l26.5,70h-19.5l-4.5-12.5h-25L2697.1,261z M2706.1,235.5h16l-8-23.5L2706.1,235.5
		z"/>
	<path class="st3" d="M2782.6,261h-18v-56h-21v-14h60v14h-21V261z"/>
	<path class="st3" d="M2866.1,261h-55.5v-70h55.5v14h-37.5v13.5h29.5v14h-29.5V247h37.5V261z"/>
	<path class="st3" d="M2965.1,261h-19l-24-42v42h-18v-70h19l24,42v-42h18V261z"/>
	<path class="st3" d="M3032.6,261h-55.5v-70h55.5v14h-37.5v13.5h29.5v14h-29.5V247h37.5V261z"/>
	<path class="st3" d="M3074.6,261h-18v-56h-21v-14h60v14h-21V261z"/>
	<path class="st3" d="M3153.6,191l12,45l10.5-45h19.5l-19,70h-19l-12-43.5l-12,43.5h-19l-19-70h19.5l10.5,45l12-45H3153.6z"/>
	<path class="st3" d="M3263.6,242c0,7-1.6,12.1-4.8,15.2c-3.2,3.2-8.2,4.8-15.2,4.8h-25c-7,0-12.1-1.6-15.2-4.8
		c-3.2-3.2-4.8-8.2-4.8-15.2v-32c0-7,1.6-12.1,4.8-15.2c3.2-3.2,8.2-4.8,15.2-4.8h25c7,0,12.1,1.6,15.2,4.8
		c3.2,3.2,4.8,8.2,4.8,15.2V242z M3245.6,210c0-4-2-6-6-6h-17c-4,0-6,2-6,6v32c0,4,2,6,6,6h17c4,0,6-2,6-6V210z"/>
	<path class="st3" d="M3273.6,191h42c7,0,12.1,1.6,15.2,4.8c3.2,3.2,4.8,8.2,4.8,15.2v9c0,5.5-0.9,9.8-2.8,12.9
		c-1.8,3.1-4.8,5.1-8.8,6.1l12.5,22H3317l-11.5-21h-14v21h-18v-70H3273.6z M3317.6,211c0-4-2-6-6-6h-20v21h20c4,0,6-2,6-6V211z"/>
	<path class="st3" d="M3363.6,261h-18v-70h18v27.5h9l15.6-27.5h19l-19.6,34.5l19.5,35.5h-19l-15.5-28.5h-9V261z"/>
</g>
<path class="st5" d="M3457.5,2321.4"/>
<path class="st5" d="M4649.6,2321.4"/>
<path class="st5" d="M3440.6,2321.4"/>
<path class="st5" d="M4649.6,2321.4"/>
<rect x="3383.2" y="519.4" class="st1" width="382.1" height="192.1"/>
<g class="st2">
	<path class="st3" d="M3388.8,562.8l23.5-25.7v-0.4c-0.5,0-1,0.1-1.6,0.1c-0.5,0-1,0.1-1.6,0.1s-1.3,0-1.9,0h-17.7v-5.6h29.5v7.1
		l-23.7,25.7v0.4c0.5,0,1.1-0.1,1.7-0.1c0.5,0,1.1-0.1,1.7-0.1c0.6,0,1.2,0,1.9,0h19.2v5.6H3389v-7.1H3388.8z"/>
	<path class="st3" d="M3438.9,531.3v6.7h0.6c0.6-2.3,1.9-4.1,3.8-5.4c1.9-1.3,4.3-2,7.1-2c4.1,0,7.2,1.3,9.6,3.8
		c2.3,2.5,3.5,6,3.5,10.5v2.2h-6.3v-1.4c0-3-0.8-5.4-2.3-7c-1.5-1.7-3.7-2.5-6.5-2.5s-4.9,0.9-6.6,2.6c-1.6,1.7-2.4,4-2.4,7V570
		h-6.3v-38.5h5.8V531.3z"/>
	<path class="st3" d="M3488.2,570.5c-2.4,0-4.5-0.4-6.4-1c-1.9-0.7-3.5-1.7-4.8-3s-2.4-2.9-3.1-4.8c-0.7-1.9-1.1-3.9-1.1-6.2v-9.8
		c0-2.3,0.4-4.4,1.1-6.3c0.7-1.8,1.8-3.4,3.1-4.7s2.9-2.3,4.8-3c1.9-0.7,4-1,6.4-1c4.8,0,8.5,1.3,11.3,4s4.1,6.3,4.1,11v9.9
		c0,4.7-1.4,8.3-4.1,11C3496.7,569.1,3493,570.5,3488.2,570.5z M3479.1,555.4c0,2.9,0.8,5.2,2.4,6.9c1.6,1.7,3.8,2.5,6.7,2.5
		c2.8,0,5-0.8,6.7-2.5c1.6-1.7,2.5-4,2.5-6.9v-9.8c0-2.9-0.8-5.2-2.5-6.9c-1.6-1.7-3.9-2.5-6.7-2.5s-5,0.8-6.6,2.5s-2.5,4-2.5,6.9
		L3479.1,555.4L3479.1,555.4z"/>
	<path class="st3" d="M3515.7,519.4h6.3v28h7.6l11.8-16.1h7.2l-13.7,18.6l13.9,19.9h-7.3l-11.8-16.8h-7.6v16.8h-6.3L3515.7,519.4
		L3515.7,519.4z"/>
</g>
<g class="st2">
	<path class="st3" d="M3388.1,666.8h6.7c0,2.4,0.9,4.4,2.6,5.8c1.8,1.5,4.1,2.2,7,2.2c3,0,5.3-0.7,7-2.1c1.7-1.4,2.5-3.3,2.5-5.6
		c0-2.1-0.6-3.9-1.8-5.4c-1.2-1.6-2.9-2.7-5-3.5l-6-2.1c-7.7-2.8-11.5-7.5-11.5-14.2c0-4.1,1.3-7.4,4-9.7s6.3-3.6,10.9-3.6
		c2.2,0,4.3,0.3,6.1,0.9c1.8,0.6,3.4,1.5,4.8,2.7c1.3,1.2,2.4,2.6,3.1,4.2s1.1,3.5,1.2,5.5h-6.7c0-2.4-0.8-4.3-2.3-5.7
		c-1.6-1.4-3.6-2.1-6.2-2.1c-2.6,0-4.7,0.6-6.2,1.9c-1.5,1.3-2.3,3-2.3,5.2c0,2.1,0.6,3.8,1.7,5.1c1.1,1.4,2.9,2.5,5.5,3.4l6.2,2.2
		c3.5,1.3,6.3,3.2,8.2,5.7s2.8,5.6,2.8,9.1c0,4.2-1.4,7.5-4.3,9.9c-2.9,2.4-6.8,3.6-11.8,3.6c-2.4,0-4.5-0.3-6.5-1s-3.6-1.6-5-2.8
		s-2.5-2.6-3.3-4.3C3388.5,670.7,3388.1,668.9,3388.1,666.8z"/>
	<path class="st3" d="M3430.8,655.3c0-4.6,1.4-8.2,4.1-10.8c2.7-2.6,6.5-3.9,11.3-3.9s8.6,1.3,11.3,3.9c2.7,2.6,4.1,6.2,4.1,10.8
		v7.1h-24.5v3.1c0,2.9,0.8,5.2,2.4,6.9c1.6,1.7,3.8,2.5,6.7,2.5c2.1,0,3.9-0.3,5.5-1c1.5-0.7,2.7-1.6,3.4-2.9h6.3
		c-0.8,2.9-2.6,5.2-5.3,6.9s-6,2.5-9.9,2.5c-4.8,0-8.6-1.3-11.3-3.9c-2.7-2.6-4.1-6.2-4.1-10.8V655.3z M3437.1,657.1h18.2v-1.8
		c0-2.9-0.8-5.1-2.4-6.7c-1.6-1.6-3.8-2.4-6.7-2.4s-5.1,0.8-6.7,2.4c-1.6,1.6-2.4,3.8-2.4,6.7L3437.1,657.1L3437.1,657.1z"/>
	<path class="st3" d="M3480.9,641.3v6.7h0.6c0.6-2.3,1.9-4.1,3.8-5.4c1.9-1.3,4.3-2,7.1-2c4.1,0,7.2,1.3,9.6,3.8
		c2.3,2.5,3.5,6,3.5,10.5v2.2h-6.3v-1.4c0-3-0.8-5.4-2.3-7c-1.5-1.7-3.7-2.5-6.5-2.5s-4.9,0.9-6.6,2.6c-1.6,1.7-2.4,4-2.4,7V680
		h-6.3v-38.5h5.8V641.3z"/>
	<path class="st3" d="M3512.7,641.3h6.6l9.4,27.2c0.4,1.1,0.7,2,0.8,2.8c0.2,0.8,0.3,1.5,0.4,2.1c0.1,0.7,0.1,1.3,0.1,1.8h0.6
		c0-0.5,0-1.1,0.1-1.8c0.1-0.6,0.2-1.2,0.3-2.1c0.1-0.8,0.4-1.8,0.8-2.8l8.9-27.2h6.9l-13.8,38.5h-7.1L3512.7,641.3z"/>
	<path class="st3" d="M3557.8,679.8V674h14v-27h-12.2v-5.7h18.5V674h11.5v5.7L3557.8,679.8L3557.8,679.8z M3573.2,626.2h1.4
		c1.4,0,2.5,0.4,3.3,1.2s1.3,1.8,1.3,3.1s-0.4,2.3-1.3,3s-1.9,1.1-3.3,1.1h-1.4c-1.4,0-2.4-0.4-3.3-1.1c-0.8-0.7-1.3-1.7-1.3-3
		s0.4-2.3,1.3-3.1C3570.8,626.6,3571.9,626.2,3573.2,626.2z"/>
	<path class="st3" d="M3614.7,680.5c-2.4,0-4.5-0.4-6.4-1c-1.9-0.7-3.5-1.7-4.8-3s-2.4-2.9-3.1-4.8c-0.7-1.9-1.1-3.9-1.1-6.2v-9.8
		c0-2.3,0.4-4.4,1.1-6.2c0.7-1.9,1.8-3.5,3.1-4.8s2.9-2.3,4.8-3c1.9-0.7,4-1,6.4-1c4.2,0,7.7,1.2,10.5,3.5c2.7,2.3,4.4,5.5,4.9,9.5
		h-6.3c-0.3-2.2-1.3-4-3-5.4c-1.7-1.3-3.7-2-6.1-2c-2.8,0-5,0.8-6.7,2.5c-1.6,1.7-2.5,4-2.5,6.9v9.8c0,2.9,0.8,5.2,2.4,6.9
		c1.6,1.7,3.8,2.5,6.7,2.5c2.4,0,4.5-0.7,6.1-2c1.7-1.3,2.6-3.1,3-5.4h6.3c-0.6,4.1-2.3,7.2-5,9.5
		C3622.4,679.3,3618.9,680.5,3614.7,680.5z"/>
	<path class="st3" d="M3640.8,655.3c0-4.6,1.4-8.2,4.1-10.8c2.7-2.6,6.5-3.9,11.3-3.9s8.6,1.3,11.3,3.9c2.7,2.6,4.1,6.2,4.1,10.8
		v7.1h-24.5v3.1c0,2.9,0.8,5.2,2.4,6.9c1.6,1.7,3.8,2.5,6.7,2.5c2.1,0,3.9-0.3,5.5-1c1.5-0.7,2.7-1.6,3.4-2.9h6.3
		c-0.8,2.9-2.6,5.2-5.3,6.9s-6,2.5-9.9,2.5c-4.8,0-8.6-1.3-11.3-3.9c-2.7-2.6-4.1-6.2-4.1-10.8V655.3z M3647.1,657.1h18.2v-1.8
		c0-2.9-0.8-5.1-2.4-6.7c-1.6-1.6-3.8-2.4-6.7-2.4s-5.1,0.8-6.7,2.4c-1.6,1.6-2.4,3.8-2.4,6.7L3647.1,657.1L3647.1,657.1z"/>
</g>
<rect x="149.2" y="153.7" class="st1" width="128.6" height="77.1"/>
<g class="st2">
	<path class="st3" d="M155.9,207.7v-6h14.5v-37.9c0-0.4,0-0.9,0-1.4s0-1,0-1.5s0-1,0.1-1.7h-0.1c-0.4,0.3-0.7,0.6-1.1,0.8
		c-0.3,0.3-0.6,0.5-0.9,0.8c-0.3,0.3-0.6,0.5-0.9,0.7l-10.6,7.2V162l11.6-8.2h8.6v48h12.1v6h-33.3V207.7z"/>
</g>
<rect x="2114.8" y="153.7" class="st1" width="128.6" height="77.1"/>
<g class="st2">
	<path class="st3" d="M2119.7,168c0.1-2.2,0.6-4.3,1.4-6.2c0.8-1.8,2-3.4,3.6-4.7c1.5-1.3,3.3-2.3,5.4-3c2.1-0.7,4.4-1.1,6.9-1.1
		s4.7,0.4,6.8,1c2,0.7,3.7,1.7,5.1,3c1.4,1.3,2.5,2.9,3.3,4.7s1.2,3.9,1.2,6.2c0,4-1.1,8-3.3,11.7c-2.2,3.8-5.8,7.8-10.6,12
		l-9.1,7.9c-0.3,0.2-0.5,0.4-0.8,0.6c-0.3,0.2-0.6,0.4-0.9,0.6c-0.4,0.2-0.8,0.5-1.1,0.7v0.3c0.8,0,1.6-0.1,2.3-0.1s1.4-0.1,2.1-0.1
		c0.7,0,1.4,0,2,0h20v6.2h-34v-7.5l14.2-12.2c2.1-1.8,4-3.6,5.5-5.2c1.5-1.7,2.8-3.3,3.7-4.9c0.9-1.6,1.7-3.2,2.1-4.8
		c0.4-1.6,0.7-3.3,0.7-5c0-2.8-0.8-5-2.5-6.6s-3.9-2.4-6.8-2.4c-3.2,0-5.7,0.8-7.5,2.5c-1.9,1.7-2.8,3.8-2.8,6.5L2119.7,168
		L2119.7,168z"/>
</g>
<g>
	<path class="st6" d="M1611.1,1009.6c136.2-136.2,136.2-357.2,0-493.4s-357.2-136.2-493.4,0s-136.2,357.2,0,493.4
		S1474.9,1145.9,1611.1,1009.6z"/>
	<path class="st7" d="M1506.1,904.7c-116,116-297.2,135.4-435.2,46.7c103.9,162.3,319.7,209.6,481.9,105.7s209.6-319.7,105.7-481.9
		c-27.2-42.5-63.2-78.5-105.7-105.7C1641.6,607.5,1622.1,788.7,1506.1,904.7z"/>
	<path class="st8" d="M1611.1,1009.6c136.2-136.2,136.2-357.2,0-493.4s-357.2-136.2-493.4,0s-136.2,357.2,0,493.4
		S1474.9,1145.9,1611.1,1009.6z"/>
</g>
<rect x="1018.8" y="504.9" class="st1" width="690.7" height="120.6"/>
<g class="st2">
	<path d="M1201.8,553l24.1-25.9v-0.5c-0.6,0.1-1.3,0.2-2,0.2c-0.6,0.1-1.3,0.2-2,0.2c-0.7,0.1-1.5,0.1-2.4,0.1h-17v-8.7h35.1v9.5
		l-24.2,25.9v0.6c0.6-0.2,1.3-0.3,2-0.4c0.6-0.1,1.3-0.2,2.1-0.2c0.8-0.1,1.5-0.1,2.3-0.1h18.7v8.7h-36.6L1201.8,553L1201.8,553z"/>
	<path d="M1261.2,518.5v7.6h0.7c0.5-2.7,1.9-4.7,4-6.2s4.9-2.2,8.2-2.2c4.7,0,8.5,1.5,11.1,4.4c2.7,2.9,4,7,4,12.2v3.2h-10.5v-2.3
		c0-2.8-0.8-5-2.3-6.6s-3.7-2.4-6.4-2.4c-2.6,0-4.6,0.8-6,2.4c-1.5,1.6-2.2,3.8-2.2,6.6v27.4h-10v-44h9.4V518.5z"/>
	<path d="M1316.1,563.3c-2.9,0-5.5-0.4-7.9-1.3c-2.4-0.9-4.4-2-6-3.6c-1.7-1.5-2.9-3.3-3.8-5.5c-0.9-2.1-1.4-4.5-1.4-7.1V535
		c0-2.6,0.5-5,1.4-7.1s2.2-4,3.8-5.5c1.7-1.5,3.7-2.7,6-3.5c2.4-0.8,5-1.2,7.9-1.2s5.5,0.4,7.9,1.2s4.4,2,6,3.5
		c1.7,1.5,2.9,3.3,3.8,5.5c0.9,2.1,1.4,4.5,1.4,7.1v10.8c0,2.6-0.5,5-1.4,7.2s-2.2,4-3.8,5.5c-1.7,1.5-3.7,2.7-6,3.5
		C1321.7,562.9,1319.1,563.3,1316.1,563.3z M1307,545.8c0,2.7,0.8,4.8,2.4,6.3s3.9,2.3,6.7,2.3c2.8,0,5.1-0.8,6.7-2.3
		s2.4-3.7,2.4-6.3V535c0-2.7-0.8-4.8-2.4-6.3s-3.9-2.3-6.7-2.3c-2.8,0-5.1,0.8-6.7,2.3s-2.4,3.7-2.4,6.3V545.8z"/>
	<path d="M1346.5,504.9h10v31h7l11-17.4h11.2l-13.6,21.4l13.8,22.6h-11.4l-11-18.1h-7v18.1h-10V504.9z"/>
	<path d="M1404.4,555.4c0-2.4,0.7-4.3,2.1-5.7s3.3-2.1,5.6-2.1c2.4,0,4.3,0.7,5.7,2.1c1.4,1.4,2.1,3.3,2.1,5.7
		c0,2.3-0.7,4.2-2.1,5.7c-1.4,1.4-3.3,2.2-5.7,2.2c-2.3,0-4.2-0.7-5.6-2.2C1405.1,559.7,1404.4,557.8,1404.4,555.4z"/>
	<path d="M1442.8,553.4h15.8v-25.8h-13.8v-9h23.4v34.9h12.7v9.1h-38.1V553.4z M1455.7,506.6c0-1.5,0.5-2.8,1.6-3.8
		c1-1,2.4-1.5,4.1-1.5h2.1c1.7,0,3.1,0.5,4.1,1.5s1.6,2.3,1.6,3.8c0,1.6-0.5,2.9-1.6,3.8s-2.4,1.4-4.2,1.4h-2
		c-1.7,0-3.1-0.5-4.1-1.4S1455.7,508.2,1455.7,506.6z"/>
	<path d="M1508.1,563.3c-2.9,0-5.5-0.4-7.9-1.3c-2.4-0.9-4.4-2-6-3.6c-1.7-1.5-2.9-3.3-3.8-5.5c-0.9-2.1-1.4-4.5-1.4-7.1V535
		c0-2.6,0.5-5,1.4-7.1s2.2-4,3.8-5.5c1.7-1.5,3.7-2.7,6-3.5c2.4-0.8,5-1.2,7.9-1.2s5.5,0.4,7.9,1.2s4.4,2,6,3.5
		c1.7,1.5,2.9,3.3,3.8,5.5c0.9,2.1,1.4,4.5,1.4,7.1v10.8c0,2.6-0.5,5-1.4,7.2s-2.2,4-3.8,5.5c-1.7,1.5-3.7,2.7-6,3.5
		C1513.7,562.9,1511.1,563.3,1508.1,563.3z M1499,545.8c0,2.7,0.8,4.8,2.4,6.3s3.9,2.3,6.7,2.3c2.8,0,5.1-0.8,6.7-2.3
		s2.4-3.7,2.4-6.3V535c0-2.7-0.8-4.8-2.4-6.3s-3.9-2.3-6.7-2.3c-2.8,0-5.1,0.8-6.7,2.3s-2.4,3.7-2.4,6.3V545.8z"/>
</g>
<g>
	<rect x="1300.4" y="779.5" class="st3" width="136.8" height="72.7"/>
	<polygon class="st3" points="1446.5,1043.3 1452.2,1037.2 1450.9,1031.9 1448.7,1027.7 1437.1,928.6 1307.8,930.5 1295.8,1027.7 
		1293,1034.8 1298.8,1040.5 1323.9,1039 1338.2,1041.2 1344.9,1040.8 1349.6,1034.8 1346.5,1028.3 1368.4,955.4 1377.5,956.4 
		1377.3,961.8 1396,1029.4 1395.6,1034.8 1399.8,1040.8 1409.5,1046 	"/>
	<g>
		<g>
			<path class="st9" d="M1440.6,795.4c3.4,0.8,36.5,9.8,43,21.4c6.5,11.6,25.6,62.1,25.4,74.8c0,1.2,0.2,33.4-2.1,41.7
				c-1.1,3.8-21.9,3-28,1.5c-2-0.5,0.7-17.4,0-28.7c-1.3-20.9-6.4-33.4-7.5-30.5c-3.1,7.9-26.7,20.6-26.7,20.6"/>
			<path class="st10" d="M1507.8,928.1c-0.2,2.1-0.5,3.9-0.9,5.2c-1.1,3.8-21.9,3-28,1.5c-2-0.5,0.7-17.4,0-28.7
				c-1.3-20.9-6.4-33.4-7.5-30.5c-3.1,7.9-19.9,27-19.9,27l-4.3,1.6c-1-1,1.4-10.1,1-11c-4.9-10,18.8-33.6,22.1-37.2
				c3.3-3.7,6.5,1.6,6.3,8.3s0,8.1,0,8.1c11.4,47,6.6,57.5,6.6,57.5s2.2,0.8,11,0.6c8.7-0.2,12-2.9,12-2.9L1507.8,928.1z"/>
			<path class="st11" d="M1440.2,907c-20.7-34.2,25.8-7.5,27.8-23.6c0-0.1,0-0.1,0-0.2c0.6-6.3,1.7-14,2.4-19
				c0.4-2.8,0.7-4.7,0.7-4.9c0-1,0.8-1.8,1.8-1.8s1.8,0.8,1.8,1.8c0,0.5-0.3,2.5-0.7,5.4c-0.3,2.1-0.7,4.7-1.1,7.5
				c0.9,1.9,2,4.1,2.5,5.4c1.6,4.1,3.6,11.9,4.7,22.2c0.2,2,0.4,4,0.5,6.1c0.3,5.2,0,11.5-0.4,17c-0.3,5.7-0.4,10.3-0.1,10.3
				c3.4,0.8,10.8,1.3,17.4,0.9c4.2-0.2,7.5-0.6,7.6-1.3c2.1-7.4,2.1-34.6,2.1-40.3c0-0.6,0-0.9,0-1c0.1-5.3-3.4-17.7-7.9-31
				c-5.9-17.5-13.6-36.4-17.3-42.8c-2.1-3.7-7.4-7.2-13.5-10.3c-11.7-5.8-26.3-9.7-28.4-10.2 M1441,793.7
				c2.2,0.5,17.1,4.5,29.1,10.5c6.7,3.3,12.5,7.3,15,11.7c3.7,6.6,11.5,25.8,17.5,43.4c4.6,13.6,8.2,26.5,8.1,32.2c0,0.1,0,0.4,0,1
				c0,5.7,0,33.4-2.2,41.2c-0.7,2.5-5.3,3.6-10.9,3.9c-6.9,0.4-15.6-0.3-19.3-1.2c-2.6-0.6-2.2-6.5-1.8-13.8
				c0.3-5.3,0.7-11.5,0.4-16.5c-0.8-12.8-3-22.4-4.9-27.1c-0.2,1.1-9.9,0.2-10.1,1.6 M1452.8,887.6l10.6-3.6
				c-1.8,15-18.8,25.8-18.9,28"/>
			<path class="st9" d="M1505.8,935.2L1505.8,935.2c-6.1,1.6-19.4,1.1-25.7,0h-0.8V952c0,5.3,4.4,9.7,9.7,9.7h7.1
				c5.3,0,9.7-4.4,9.7-9.7L1505.8,935.2L1505.8,935.2z"/>
			<path class="st10" d="M1505.8,935.2L1505.8,935.2c-6.1,1.6-19.4,1.1-25.7,0h-0.8V952c0,2.7,3.3,5.7,5.2,7.5
				c0.3-1.2,0.5-2.2,0.5-2.9v-15.1h0.8c5.3,0.9,13.3,0.9,20,0.1V935.2z"/>
			<path class="st11" d="M1507.7,933.3v1.9V952c0,3.2-1.3,6.1-3.4,8.2c-2.1,2.1-5,3.4-8.2,3.4h-7.1c-3.2,0-6.1-1.3-8.2-3.4
				c-2.1-2.1-3.4-5-3.4-8.2v-16.8v-1.9h1.9h0.8h0.1h0.2c3.4,0.6,8.8,1,14,1c4.2,0,8.3-0.3,10.9-1l0.3-0.1h0.2l0,0L1507.7,933.3
				L1507.7,933.3z M1494.5,938.2c-4.7,0-9.7-0.3-13.2-0.8V952c0,2.1,0.9,4.1,2.3,5.5s3.4,2.3,5.5,2.3h7.1c2.1,0,4.1-0.9,5.5-2.3
				c1.4-1.4,2.3-3.4,2.3-5.5v-14.4C1501.2,938,1497.9,938.2,1494.5,938.2L1494.5,938.2z"/>
		</g>
		<g>
			<path class="st9" d="M1300.4,796.5c-3.4,0.8-36.5,9.8-43,21.4c-6.5,11.6-25.6,62.1-25.4,74.8c0,1.2-0.2,33.4,2.1,41.7
				c1.1,3.8,21.9,3,28,1.5c2-0.5-0.7-17.4,0-28.7c1.3-20.9,6.4-33.4,7.5-30.5c3.1,7.9,26.7,20.6,26.7,20.6"/>
			<path class="st10" d="M1233.2,929.2c0.2,2.1,0.5,3.9,0.9,5.2c1.1,3.8,21.9,3,28,1.5c2-0.5-0.7-17.4,0-28.7
				c1.3-20.9,6.4-33.4,7.5-30.5c3.1,7.9,19.9,27,19.9,27l4.3,1.6c1-1-1.4-10.1-1-11c4.9-10-18.8-33.6-22.1-37.2
				c-3.3-3.7-6.5,1.6-6.3,8.3s0,8.1,0,8.1c-11.4,47-6.6,57.5-6.6,57.5s-2.2,0.8-11,0.6c-8.7-0.2-12-2.9-12-2.9L1233.2,929.2z"/>
			<path class="st11" d="M1300.8,798.2c-2.2,0.5-16.7,4.4-28.4,10.2c-6.1,3-11.4,6.6-13.5,10.3c-3.6,6.5-11.3,25.4-17.3,42.8
				c-4.5,13.3-8,25.7-7.9,31c0,0.1,0,0.5,0,1c0,5.6,0,32.9,2.1,40.3c0.2,0.7,3.5,1.1,7.6,1.3c6.6,0.3,13.9-0.1,17.4-0.9
				c0.3-0.1,0.3-4.6-0.1-10.3c-0.3-5.4-0.7-11.7-0.4-17c0.1-2.1,0.3-4.2,0.5-6.1c1.1-10.3,3-18.1,4.7-22.2c0.5-1.3,1.6-3.5,2.5-5.4
				c-0.4-2.8-0.8-5.4-1.1-7.5c-0.4-2.9-0.7-5-0.7-5.4c0-1,0.8-1.8,1.8-1.8s1.8,0.8,1.8,1.8c0,0.3,0.3,2.2,0.7,4.9
				c0.7,5,1.8,12.7,2.4,19c0,0.1,0,0.1,0,0.2c2,16.2,48.5-10.6,27.8,23.6 M1278.9,881.7c-0.2-1.4-9.9-0.5-10.1-1.6
				c-1.8,4.7-4,14.2-4.9,27.1c-0.3,5,0,11.2,0.4,16.5c0.4,7.3,0.8,13.2-1.8,13.8c-3.7,0.9-12.4,1.6-19.3,1.2
				c-5.6-0.3-10.2-1.4-10.9-3.9c-2.2-7.8-2.2-35.5-2.2-41.2c0-0.5,0-0.9,0-1c-0.1-5.7,3.5-18.6,8.1-32.2c6-17.7,13.8-36.8,17.5-43.4
				c2.5-4.4,8.3-8.4,15-11.7c12-6,26.9-10,29.1-10.5 M1296.4,913.1c-0.1-2.2-17-13-18.9-28l10.6,3.6"/>
			<path class="st9" d="M1235.1,936.3L1235.1,936.3c6.1,1.6,19.4,1.1,25.7,0h0.8V953c0,5.3-4.4,9.7-9.7,9.7h-7.1
				c-5.3,0-9.7-4.4-9.7-9.7L1235.1,936.3L1235.1,936.3z"/>
			<path class="st10" d="M1235.1,936.3L1235.1,936.3c6.1,1.6,19.4,1.1,25.7,0h0.8V953c0,2.7-3.3,5.7-5.2,7.5
				c-0.3-1.2-0.5-2.2-0.5-2.9v-15.1h-0.8c-5.3,0.9-13.3,0.9-20,0.1V936.3z"/>
			<path class="st11" d="M1235.1,934.4L1235.1,934.4h0.2l0.3,0.1c2.6,0.7,6.6,1,10.9,1c5.2,0,10.6-0.4,14-1h0.2h0.1h0.8h1.9v1.9V953
				c0,3.2-1.3,6.1-3.4,8.2c-2.1,2.1-5,3.4-8.2,3.4h-7.1c-3.2,0-6.1-1.3-8.2-3.4c-2.1-2.1-3.4-5-3.4-8.2v-16.8v-1.9h1.9L1235.1,934.4
				L1235.1,934.4z M1246.5,939.2c-3.4,0-6.7-0.2-9.4-0.6V953c0,2.1,0.9,4.1,2.3,5.5s3.4,2.3,5.5,2.3h7.1c2.1,0,4.1-0.9,5.5-2.3
				c1.4-1.4,2.3-3.4,2.3-5.5v-14.6C1256.2,938.9,1251.2,939.2,1246.5,939.2L1246.5,939.2z"/>
		</g>
		<g>
			<path class="st10" d="M1295.8,1027.7h52.5l20.1-72.3c1.9,0.3,5.1,0.3,7,0l21.2,72.3h52.1l-0.5-3.5c-0.9-0.3-1.6-0.4-2.1-0.3
				c-5.7,1.4-40.7,0.4-43.8-0.2c-3.1-0.6-20.1-62.6-20.5-65.2c-0.4-2.6,4.3-1.4,7.5-7.5c3.3-6.1-5.5-5.9-5.5-5.9
				c-12.2,5.7-25.2-0.6-25.2-0.6c-11.5,7.4,1.9,12.6,3,14.5c1,1.8-17.1,63.8-19.3,65.6c-2.2,1.8-43.6,0.6-43.6,0.6s-0.9,0.2-2.5,0.5
				L1295.8,1027.7z"/>
			<path class="st11" d="M1308.7,939.5L1308.7,939.5v0.2l-11.5,88.6h49.4l19.8-71.8c-4.5-1.1-6.8-3.3-6.8-3.3
				c-0.7-0.7-0.7-1.8-0.1-2.5c0.7-0.7,1.8-0.7,2.5-0.1c0,0,3.4,3.3,10.6,2.9c7.3-0.4,10.8-3.8,10.8-3.8c0.7-0.7,1.8-0.6,2.5,0.1
				c0.7,0.7,0.6,1.8-0.1,2.5c0,0-2.8,2.7-8.2,4l20,72h49.4l-9.4-89.2 M1440.3,939.1l10.4,90.8l0.3,2h-2h-52.7h-1.4l-0.4-1.3
				l-20.3-73.3c-0.7,0-1.4,0.1-2.2,0.1s-1.5,0-2.2-0.1l-20.2,73.3l-0.4,1.3h-1.4h-52.7h-2l0.3-2l11.8-90.4"/>
			<path class="st12" d="M1298.8,1040.5h45c3.2,0,5.8-2.6,5.8-5.8l0,0c0-3.2-2.6-5.8-5.8-5.8h-45c-3.2,0-5.8,2.6-5.8,5.8l0,0
				C1293,1037.9,1295.7,1040.5,1298.8,1040.5L1298.8,1040.5z"/>
			<path class="st11" d="M1298.8,1038.7h45c1.1,0,2.1-0.4,2.8-1.2c0.7-0.7,1.2-1.7,1.2-2.8c0-1.1-0.5-2.1-1.2-2.8
				c-0.7-0.7-1.7-1.2-2.8-1.2h-45c-1.1,0-2.1,0.4-2.8,1.2c-0.7,0.7-1.2,1.7-1.2,2.8c0,1.1,0.5,2.1,1.2,2.8
				C1296.7,1038.3,1297.7,1038.7,1298.8,1038.7L1298.8,1038.7z M1343.8,1042.3h-45c-2.1,0-4-0.8-5.4-2.2c-1.4-1.4-2.2-3.2-2.2-5.3
				c0-2.1,0.9-4,2.2-5.3c1.4-1.4,3.3-2.2,5.4-2.2h45c2.1,0,4,0.8,5.4,2.2c1.4,1.4,2.2,3.2,2.2,5.3c0,2.1-0.9,4-2.2,5.3
				C1347.8,1041.4,1345.9,1042.3,1343.8,1042.3L1343.8,1042.3z"/>
			<path class="st9" d="M1292.1,1069.8h56.4v-16.3c0-9-7.4-16.3-16.4-16.3h-23.6c-9,0-16.4,7.3-16.4,16.3V1069.8z"/>
			<path class="st11" d="M1293.8,1068h52.8v-14.5c0-4-1.6-7.6-4.3-10.2c-2.7-2.6-6.3-4.3-10.3-4.3h-23.6c-4,0-7.7,1.6-10.3,4.3
				c-2.6,2.6-4.3,6.3-4.3,10.2L1293.8,1068L1293.8,1068z M1348.4,1071.6H1292h-1.8v-1.8v-16.3c0-5,2-9.5,5.3-12.7
				c3.3-3.3,7.8-5.3,12.8-5.3h23.6c5,0,9.5,2,12.8,5.3s5.3,7.8,5.3,12.7v16.3v1.8H1348.4z"/>
			<path class="st12" d="M1401.4,1040.5h45c3.2,0,5.8-2.6,5.8-5.8l0,0c0-3.2-2.6-5.8-5.8-5.8h-45c-3.2,0-5.8,2.6-5.8,5.8l0,0
				C1395.6,1037.9,1398.2,1040.5,1401.4,1040.5L1401.4,1040.5z"/>
			<path class="st11" d="M1401.4,1038.7h45c1.1,0,2.1-0.4,2.8-1.2c0.7-0.7,1.2-1.7,1.2-2.8c0-1.1-0.5-2.1-1.2-2.8
				c-0.7-0.7-1.7-1.2-2.8-1.2h-45c-1.1,0-2.1,0.4-2.8,1.2c-0.7,0.7-1.2,1.7-1.2,2.8c0,1.1,0.5,2.1,1.2,2.8
				C1399.3,1038.3,1400.3,1038.7,1401.4,1038.7L1401.4,1038.7z M1446.4,1042.3h-45c-2.1,0-4-0.8-5.4-2.2c-1.4-1.4-2.2-3.2-2.2-5.3
				c0-2.1,0.9-4,2.2-5.3c1.4-1.4,3.3-2.2,5.4-2.2h45c2.1,0,4,0.8,5.4,2.2c1.4,1.4,2.2,3.2,2.2,5.3c0,2.1-0.9,4-2.2,5.3
				C1450.4,1041.4,1448.5,1042.3,1446.4,1042.3L1446.4,1042.3z"/>
			<path class="st9" d="M1396.2,1069.8h56.4v-16.3c0-9-7.4-16.3-16.4-16.3h-23.6c-9,0-16.4,7.3-16.4,16.3V1069.8z"/>
			<path class="st12" d="M1452.6,1069.3h-56.4V1053c0-4.5,1.8-8.5,4.8-11.5c1.1-0.2,2.2-0.3,3.2-0.4c0.5,0-0.5,3.1-0.5,5.3v16.3
				h48.9V1069.3z"/>
			<path class="st11" d="M1398,1068h52.8v-14.5c0-4-1.6-7.6-4.3-10.2c-2.6-2.6-6.3-4.3-10.3-4.3h-23.6c-4,0-7.7,1.6-10.3,4.3
				c-2.6,2.6-4.3,6.3-4.3,10.2L1398,1068L1398,1068z M1452.6,1071.6h-56.4h-1.8v-1.8v-16.3c0-5,2-9.5,5.3-12.7
				c3.3-3.3,7.8-5.3,12.8-5.3h23.6c5,0,9.5,2,12.8,5.3s5.3,7.8,5.3,12.7v16.3v1.8H1452.6z"/>
			<path class="st12" d="M1346.7,1068.5h-53.1v-15.4c0-4.2,1.7-8.1,4.5-10.9c1.1-0.2,2.1-0.3,3-0.3c0.5,0-0.5,2.9-0.5,5v15.4h46.1
				V1068.5z"/>
		</g>
		<path class="st13" d="M1262.1,786.4c-3.2-4.3-6.2-4.9-5.4-23.1c0.7-11.2-1.8-30.4,12.9-26.5l0.2,70.3l-20,26.4
			c0,0-2.1-34.3,0.3-40.8C1252.5,786.1,1258.9,786.2,1262.1,786.4L1262.1,786.4z"/>
		<path class="st12" d="M1269.8,803.3v5.4l-20,25.4c0,0-0.8-12.9-0.9-24.2c4.2-3.2,9-6.3,14-9.1c-0.2-1.5-0.3-3-0.3-4.5v-60.7
			c1.7-0.8,4-1,7-0.2L1269.8,803.3L1269.8,803.3z"/>
		<path class="st11" d="M1264.2,785c-0.5-0.7-0.9-1.2-1.4-1.8c-2.3-2.8-4.2-5.1-3.6-19.8l0,0c0.1-1.7,0.1-3.8,0.2-5.9
			c0.1-4.7,0.2-9.9,1.3-13.7c0.9-3.2,2.8-5.4,6.5-5l0.2,67.5l-15.4,20.3c-0.5-10.2-1.1-28.7,0.5-33.1c0.9-2.4,2.5-3.6,4.2-4.2
			c1.9-0.6,4-0.6,5.4-0.5l5.2,0.3L1264.2,785z M1254.2,763.1c-0.5,13.4,0.9,17.9,3,21c-0.7,0.1-1.5,0.3-2.2,0.5
			c-2.9,1-5.7,3-7.3,7.1c-2.6,7-0.5,41.7-0.5,41.8l0.4,6.7l4.1-5.4l20-26.4l0.5-0.7v-0.8l-0.2-70.3v-1.9l-1.8-0.5
			c-8.7-2.4-12.6,1.6-14.5,8c-1.3,4.4-1.4,9.9-1.4,15C1254.4,759.4,1254.3,761.3,1254.2,763.1L1254.2,763.1z"/>
		<path class="st13" d="M1308.6,723.8H1283c-7.4,0-13.4,5.8-13.4,13v68c0,7.2,6,13,13.4,13h25.6c7.4,0,13.4-5.9,13.4-13v-68
			C1321.9,729.6,1315.9,723.8,1308.6,723.8L1308.6,723.8z"/>
		<path class="st12" d="M1269.6,800.9v9.5c0,7.2,6,13,13.4,13h25.6c7.4,0,13.4-5.8,13.4-13V808c0.2,0.1,0.5,0.2,0.7,0.3V741
			c0-7.1-6-13-13.4-13h-25.6c-7.4,0-13.4,5.9-13.4,13v23c6.2,9.6,13.9,18.5,23.2,26.2C1286.6,792.9,1278,796.5,1269.6,800.9
			L1269.6,800.9z"/>
		<path class="st11" d="M1309.3,721.3h-25.6c-4.4,0-8.3,1.7-11.2,4.5c-2.9,2.8-4.7,6.7-4.7,10.9v68c0,4.2,1.8,8.1,4.7,10.9
			c2.9,2.8,6.9,4.5,11.2,4.5h25.6c4.4,0,8.3-1.7,11.2-4.5c2.9-2.8,4.7-6.7,4.7-10.9v-68c0-4.2-1.8-8.1-4.7-10.9
			C1317.6,723.1,1313.6,721.3,1309.3,721.3L1309.3,721.3z M1283.7,726.2h25.6c3,0,5.7,1.2,7.7,3.1c2,1.9,3.2,4.6,3.2,7.5v68
			c0,2.9-1.2,5.5-3.2,7.5c-2,1.9-4.7,3.1-7.7,3.1h-25.6c-3,0-5.7-1.2-7.7-3.1c-2-1.9-3.2-4.6-3.2-7.5v-68c0-2.9,1.2-5.5,3.2-7.5
			C1278,727.4,1280.7,726.2,1283.7,726.2L1283.7,726.2z"/>
		<path class="st13" d="M1479,786.4c3.2-4.3,6.2-4.9,5.4-23.1c-0.7-11.2,1.8-30.4-12.9-26.5l-0.2,70.3l20,26.4
			c0,0,2.1-34.3-0.3-40.8C1488.7,786.1,1482.3,786.2,1479,786.4L1479,786.4z"/>
		<path class="st12" d="M1471.4,805.4v5.4l20,25.7c0,0,0.8-13.1,0.9-24.4c-4.2-3.3-8.9-6.3-13.9-9.1c0.2-1.5,0.2-3.1,0.2-4.6V737
			c-1.7-0.8-4-1-7-0.2L1471.4,805.4L1471.4,805.4z"/>
		<path class="st11" d="M1477,785c0.5-0.7,0.9-1.2,1.4-1.8c2.3-2.8,4.2-5.1,3.6-19.8l0,0c-0.1-1.7-0.1-3.8-0.2-5.9
			c-0.1-4.7-0.2-9.9-1.3-13.7c-0.9-3.2-2.8-5.4-6.5-5l-0.2,67.5l15.4,20.3c0.5-10.2,1.1-28.7-0.5-33.1c-0.9-2.4-2.5-3.6-4.2-4.2
			c-1.9-0.6-4-0.6-5.4-0.5l-5.2,0.3L1477,785z M1487,763.1c0.6,13.4-0.9,17.9-3,21c0.7,0.1,1.5,0.3,2.2,0.5c2.9,1,5.7,3,7.3,7.1
			c2.6,7,0.5,41.7,0.5,41.8l-0.4,6.7l-4.1-5.4l-20-26.4l-0.5-0.7v-0.8l0.2-70.3v-1.9l1.8-0.5c8.7-2.4,12.6,1.6,14.5,8
			c1.3,4.4,1.4,9.9,1.4,15C1486.8,759.4,1486.9,761.3,1487,763.1L1487,763.1z"/>
		<path class="st13" d="M1432.6,723.8h25.6c7.4,0,13.4,5.8,13.4,13v68c0,7.2-6,13-13.4,13h-25.6c-7.4,0-13.4-5.9-13.4-13v-68
			C1419.3,729.6,1425.3,723.8,1432.6,723.8L1432.6,723.8z"/>
		<path class="st12" d="M1471.6,800.9v9.5c0,7.2-6,13-13.4,13h-25.6c-7.4,0-13.4-5.8-13.4-13v-25.9c7.4,0.1,12.4,0.3,13.3,0.5
			C1434.4,785.5,1453.3,791.4,1471.6,800.9L1471.6,800.9z"/>
		<path class="st11" d="M1431.9,721.3h25.6c4.4,0,8.3,1.7,11.2,4.5c2.9,2.8,4.7,6.7,4.7,10.9v68c0,4.2-1.8,8.1-4.7,10.9
			c-2.9,2.8-6.9,4.5-11.2,4.5h-25.6c-4.4,0-8.3-1.7-11.2-4.5c-2.9-2.8-4.7-6.7-4.7-10.9v-68c0-4.2,1.8-8.1,4.7-10.9
			C1423.6,723.1,1427.6,721.3,1431.9,721.3L1431.9,721.3z M1457.5,726.2h-25.6c-3,0-5.7,1.2-7.7,3.1c-2,1.9-3.2,4.6-3.2,7.5v68
			c0,2.9,1.2,5.5,3.2,7.5c2,1.9,4.7,3.1,7.7,3.1h25.6c3,0,5.7-1.2,7.7-3.1c2-1.9,3.2-4.6,3.2-7.5v-68c0-2.9-1.2-5.5-3.2-7.5
			C1463.2,727.4,1460.5,726.2,1457.5,726.2L1457.5,726.2z"/>
		<g>
			
				<ellipse transform="matrix(0.9999 -1.050218e-02 1.050218e-02 0.9999 -9.6594 14.4731)" class="st14" cx="1373.2" cy="927" rx="80.8" ry="34.9"/>
		</g>
		<path class="st10" d="M1414.7,802c-4.2-1.3-7.1-2.1-7.7-2.2c-3-0.6-69.7-0.6-72.7,0c-1.2,0.2-6.9,1.5-13.6,3.4
			C1348.2,819.3,1386.3,819.6,1414.7,802L1414.7,802z"/>
		<path class="st15" d="M1270.8,828l0.8,78.1c0.2,23.4,45.6,42,101.2,41.4c55.7-0.6,98.5-20.1,100.3-43.5c0.2-2.2-0.1-36.8-0.6-82.3
			l-0.8-16.8c0.2,23.4-42.1,11.3-97.7,11.9c-55.7,0.6-103.6,11.3-103.8-12.1L1270.8,828z"/>
		<g>
			<g>
				<path class="st10" d="M1431.3,794.7c-8.8-3.8-15.9-6.1-16.9-6.3c-12.2,16.1-8.4,98.7-10.4,101.1c-2,2.4-2.6,9.5-1.5,16.7
					c1.1,7.3,18.7,13.9,23.4,0c4.6-13.9-4.8-18.3-4.8-18.3C1417.8,856.1,1426.3,804.7,1431.3,794.7L1431.3,794.7z"/>
				<path class="st10" d="M1326.4,789.5c-4.1,1.2-10.5,3.2-17.1,5.8c4.8,7,14.1,61.2,10.9,94.2c0,0-9.5,4.4-4.8,18.3
					c4.6,13.9,22.2,7.3,23.4,0c1.1-7.3,0.4-14.3-1.5-16.7C1335.1,888.7,1338.9,804.6,1326.4,789.5L1326.4,789.5z"/>
				<path class="st10" d="M1326.9,789c-4.1,1.2-10.5,3.2-17.1,5.8c4.8,7.1,14.1,61.2,10.9,94.2c0,0-9.5,4.4-4.8,18.3
					c4.6,13.9,22.2,7.3,23.4,0c1.1-7.3,0.4-14.3-1.5-16.7C1335.7,888.1,1339.5,804.1,1326.9,789L1326.9,789z"/>
				<path class="st10" d="M1350.1,891.9h41.2c6,0,10.8,5.2,10.8,11.7v17.6c0,6.4-4.9,11.6-10.8,11.6h-41.2c-6,0-10.8-5.2-10.8-11.6
					v-17.6C1339.2,897.1,1344.1,891.9,1350.1,891.9L1350.1,891.9z"/>
				<path class="st9" d="M1353.1,896h35.3c5.1,0,9.3,4.2,9.3,9.3v14c0,5.1-4.2,9.3-9.3,9.3h-35.3c-5.1,0-9.3-4.2-9.3-9.3v-14
					C1343.8,900.2,1348,896,1353.1,896L1353.1,896z"/>
				<path class="st10" d="M1377.1,896h3.3c6.4,0.8,11.3,6.2,11.3,12.8c0,7.1-5.8,12.9-12.9,12.9s-12.9-5.8-12.9-12.9
					C1365.8,902.2,1370.7,896.8,1377.1,896L1377.1,896z"/>
				<path class="st10" d="M1357.7,899.6c5.4,0,9.7,4.4,9.7,9.7c0,5.4-4.4,9.7-9.7,9.7c-5.4,0-9.7-4.4-9.7-9.7
					C1348,903.9,1352.4,899.6,1357.7,899.6L1357.7,899.6z"/>
				<path class="st16" d="M1378.4,900.4c4.7,0,8.6,3.8,8.6,8.6c0,4.7-3.8,8.6-8.6,8.6c-4.7,0-8.6-3.8-8.6-8.6
					S1373.6,900.4,1378.4,900.4L1378.4,900.4z"/>
				<path class="st11" d="M1378.4,898.5c2.9,0,5.5,1.2,7.4,3.1c1.9,1.9,3.1,4.5,3.1,7.4s-1.2,5.5-3.1,7.4s-4.5,3.1-7.4,3.1
					s-5.5-1.2-7.4-3.1c-1.9-1.9-3.1-4.5-3.1-7.4s1.2-5.5,3.1-7.4C1372.9,899.6,1375.5,898.5,1378.4,898.5L1378.4,898.5z
					 M1383.1,904.3c-1.2-1.2-2.9-1.9-4.7-1.9c-1.8,0-3.5,0.7-4.7,1.9s-2,2.9-2,4.7s0.7,3.5,2,4.7c1.2,1.2,2.9,1.9,4.7,1.9
					c1.8,0,3.5-0.7,4.7-1.9s1.9-2.9,1.9-4.7C1385,907.1,1384.3,905.5,1383.1,904.3L1383.1,904.3z"/>
				<path class="st17" d="M1357.7,903.9c3,0,5.4,2.4,5.4,5.4s-2.4,5.4-5.4,5.4s-5.4-2.4-5.4-5.4
					C1352.3,906.3,1354.8,903.9,1357.7,903.9L1357.7,903.9z"/>
				<path class="st18" d="M1362,906c0.7,0.9,1.2,2.1,1.2,3.3c0,2.9-2.3,5.2-5.1,5.4c-2.3-1.1-3.9-2.2-2.6-2.2c3,0,5.4-2.4,5.4-5.4
					C1360.8,906.5,1361.3,906.2,1362,906L1362,906z"/>
				<path class="st11" d="M1357.7,902c2,0,3.9,0.8,5.2,2.1c1.3,1.3,2.1,3.2,2.1,5.2s-0.8,3.9-2.1,5.2c-1.3,1.3-3.2,2.1-5.2,2.1
					s-3.9-0.8-5.2-2.1s-2.1-3.2-2.1-5.2s0.8-3.9,2.1-5.2C1353.9,902.8,1355.7,902,1357.7,902L1357.7,902z M1360.2,906.9
					c-0.6-0.6-1.5-1-2.5-1s-1.8,0.4-2.5,1c-0.6,0.6-1,1.5-1,2.5s0.4,1.8,1,2.5c0.6,0.6,1.5,1,2.5,1s1.8-0.4,2.5-1
					c0.6-0.6,1-1.5,1-2.5S1360.8,907.5,1360.2,906.9L1360.2,906.9z"/>
				<path class="st11" d="M1353.1,894.1h35.3c3.1,0,5.9,1.3,7.9,3.3s3.3,4.8,3.3,7.9v14c0,3.1-1.3,5.9-3.3,7.9s-4.8,3.3-7.9,3.3
					h-35.3c-3.1,0-5.9-1.3-7.9-3.3s-3.3-4.8-3.3-7.9v-14c0-3.1,1.3-5.9,3.3-7.9C1347.2,895.4,1350,894.1,1353.1,894.1L1353.1,894.1z
					 M1388.3,898H1353c-2,0-3.8,0.8-5.2,2.2c-1.3,1.3-2.2,3.2-2.2,5.2v14c0,2,0.8,3.8,2.2,5.2c1.3,1.3,3.2,2.2,5.2,2.2h35.3
					c2,0,3.9-0.8,5.2-2.2c1.3-1.3,2.2-3.2,2.2-5.2v-14c0-2-0.8-3.8-2.2-5.2C1392.2,898.8,1390.3,898,1388.3,898L1388.3,898z"/>
				<path class="st11" d="M1326.3,892.2h1.6c4.4-43-4.1-87.4-6.2-97.5l-4.1,1.5c8.1,19.2,10,54.6,9.8,77.2
					C1327.3,879.1,1327.4,886.6,1326.3,892.2L1326.3,892.2z M1331.7,892.9c0.5,0.3,0.9,0.6,1.3,1c1,1,1.7,2.5,1.7,4.1v4.9
					c0,1.6-0.7,3-1.7,4.1c-1,1-2.5,1.7-4.1,1.7h-4.9c-1.6,0-3-0.7-4.1-1.7c-1-1-1.7-2.5-1.7-4.1V898c0-1.6,0.7-3,1.7-4.1
					c0.9-0.9,1.7-1.4,2.8-1.6c0-0.7,0-1.8,0.2-4.4c0.3-3.7,0.5-8.7,0.6-14.7c0.2-23-1.7-59.4-10.3-77.4l-0.9-1.9l2-0.7l8.1-3l2-0.7
					l0.5,2.1C1325.1,791.8,1336.9,843.3,1331.7,892.9L1331.7,892.9z M1329.3,896.1h-0.5h-4.8c-0.5,0-1,0.2-1.4,0.6
					c-0.4,0.4-0.6,0.8-0.6,1.4v4.9c0,0.5,0.2,1,0.6,1.4c0.3,0.3,0.8,0.6,1.4,0.6h4.9c0.5,0,1-0.2,1.4-0.6c0.3-0.4,0.6-0.8,0.6-1.4
					v-5c0-0.5-0.2-1-0.6-1.4C1330.1,896.3,1329.7,896.2,1329.3,896.1L1329.3,896.1z"/>
				<path class="st11" d="M1326.9,891.6h1.6c4.4-43-4.1-87.4-6.2-97.5l-4.1,1.5c8.1,19.2,10,54.6,9.8,77.2
					C1327.9,878.5,1328,886,1326.9,891.6L1326.9,891.6z M1332.3,892.3c0.5,0.3,0.9,0.6,1.3,1c1.1,1,1.7,2.5,1.7,4.1v4.9
					c0,1.6-0.7,3-1.7,4.1c-1,1-2.5,1.7-4.1,1.7h-4.9c-1.6,0-3-0.7-4.1-1.7c-1-1-1.7-2.5-1.7-4.1v-4.9c0-1.6,0.7-3,1.7-4.1
					c0.9-0.9,1.7-1.4,2.8-1.6c0-0.7,0-1.8,0.2-4.4c0.3-3.7,0.5-8.7,0.5-14.7c0.2-23-1.7-59.4-10.3-77.4l-0.9-1.9l2-0.7l8.1-3l2-0.7
					l0.5,2.1C1325.6,791.3,1337.4,842.8,1332.3,892.3L1332.3,892.3z M1329.9,895.5h-0.5h-4.8c-0.5,0-1,0.2-1.4,0.6
					c-0.3,0.3-0.6,0.8-0.6,1.4v4.9c0,0.5,0.2,1,0.6,1.4s0.8,0.6,1.4,0.6h4.9c0.5,0,1-0.2,1.4-0.6c0.4-0.3,0.6-0.8,0.6-1.4v-4.9
					c0-0.5-0.2-1-0.6-1.4C1330.6,895.8,1330.3,895.6,1329.9,895.5L1329.9,895.5z"/>
				<path class="st11" d="M1414.1,890h-1.6c-4.4-43,4.1-87.4,6.2-97.5l4.1,1.5c-8.1,19.2-10,54.6-9.8,77.2
					C1413.1,876.8,1413,884.3,1414.1,890L1414.1,890z M1408.7,890.6c-0.5,0.3-0.9,0.6-1.3,1c-1,1-1.7,2.5-1.7,4.1v4.9
					c0,1.6,0.7,3,1.7,4.1c1,1,2.5,1.7,4.1,1.7h4.9c1.6,0,3-0.7,4.1-1.7c1-1,1.7-2.5,1.7-4.1v-4.9c0-1.6-0.7-3-1.7-4.1
					c-0.9-0.9-1.7-1.4-2.8-1.6c0-0.7,0-1.8-0.2-4.4c-0.3-3.7-0.5-8.7-0.5-14.7c-0.2-23,1.7-59.4,10.3-77.4l0.9-1.9l-2-0.7l-8.1-3
					l-2-0.7l-0.5,2.1C1415.3,789.6,1403.5,841.1,1408.7,890.6L1408.7,890.6z M1411.1,893.8h0.5h4.8c0.5,0,1,0.2,1.4,0.6
					c0.3,0.3,0.6,0.8,0.6,1.4v4.9c0,0.5-0.2,1-0.6,1.4c-0.4,0.3-0.8,0.6-1.4,0.6h-4.9c-0.5,0-1-0.2-1.4-0.6
					c-0.3-0.4-0.6-0.8-0.6-1.4v-4.9c0-0.5,0.2-1,0.6-1.4C1410.3,894.1,1410.7,893.9,1411.1,893.8L1411.1,893.8z"/>
			</g>
		</g>
		<path class="st12" d="M1429,725.1h25.6c7.4,0,13.4,5.9,13.4,13v23c-7.3,11.4-16.8,21.8-28.5,30.4c-7.5,5.6,0.1-0.4-8.3,3.2
			l-3.2-54.9C1428,732.6,1421.7,725.1,1429,725.1L1429,725.1z"/>
		<path class="st19" d="M1299.3,616.5c48.1-35.9,117-27.1,153.9,19.6c36.9,46.7,27.9,113.7-20.2,149.6
			c-48.1,35.9-117,27.1-153.9-19.6C1242.2,719.3,1251.3,652.4,1299.3,616.5L1299.3,616.5z"/>
		<path class="st9" d="M1247,724.6l11.4-0.3c-2.8-14.2-2.6-28.9,0.6-43.3v-0.3l-13.2,0.3c-7.2,0.2-13,6.1-12.8,13.1l0.5,17.9
			C1233.7,719.2,1239.8,724.8,1247,724.6L1247,724.6z"/>
		<path class="st9" d="M1484.7,724.1l-11.4-0.3c2.8-14.2,2.6-29-0.6-43.3v-0.3l13.2,0.3c7.2,0.2,13,6.1,12.8,13.1l-0.5,17.9
			C1498,718.7,1491.9,724.3,1484.7,724.1L1484.7,724.1z"/>
		<path d="M1297.5,614.1c24.7-18.5,54.8-25.4,83.4-21.8c28.6,3.6,55.8,17.9,74.8,41.9s26.2,53.2,22.4,81.1
			c-3.8,27.8-18.4,54.2-43.1,72.7s-54.8,25.4-83.4,21.8c-28.6-3.7-55.8-17.9-74.8-41.9s-26.1-53.2-22.4-81.1
			C1258.1,659,1272.8,632.5,1297.5,614.1L1297.5,614.1z M1380.1,598.3c-27.1-3.5-55.5,3.1-78.9,20.6c-23.4,17.4-37.3,42.4-40.8,68.8
			c-3.6,26.3,3.2,53.9,21.2,76.6c17.9,22.7,43.7,36.2,70.8,39.7c27.1,3.5,55.5-3.1,78.9-20.6c23.4-17.4,37.3-42.4,40.8-68.8
			c3.6-26.3-3.2-53.9-21.2-76.6C1432.9,615.2,1407.1,601.7,1380.1,598.3L1380.1,598.3z"/>
		<path class="st10" d="M1247,724.6l11.4-0.3c-2.8-14.2-2.6-28.9,0.6-43.3v-0.3l-10,0.2c-1.7,11.7-3.2,22.6-1.8,35.1l-11.4,0.3
			c-0.6,0-1,0.3-1.1,0.7C1236.8,721.6,1241.6,724.7,1247,724.6L1247,724.6z"/>
		<path class="st10" d="M1484.7,724.1l-11.4-0.3c2.8-14.2,2.6-29-0.6-43.3v-0.3l10,0.3c1.7,11.7,3.2,22.6,1.8,35.1l11.4,0.3
			c0.6,0,1,0.3,1.1,0.7C1494.9,721.1,1490.1,724.3,1484.7,724.1L1484.7,724.1z"/>
		<path class="st11" d="M1247.1,727.6l11.4-0.3l3.6-0.1l-0.7-3.5c-1.4-6.9-2-14-1.9-21.1c0.1-7,0.9-14,2.5-21l0.1-0.4v-0.4v-0.3
			l-0.1-3l-3.1,0.1l-13.2,0.3l0,0c-4.5,0.1-8.5,2-11.4,4.9s-4.6,6.9-4.5,11.3l0,0l0.5,17.9c0.1,4.4,2,8.3,5.1,11
			C1238.5,726,1242.6,727.7,1247.1,727.6L1247.1,727.6z M1254.8,721.4l-7.8,0.2c-2.8,0.1-5.3-1-7.2-2.7c-1.9-1.7-3.1-4.2-3.2-6.9
			l-0.5-17.9l0,0c-0.1-2.7,1-5.2,2.8-7s4.3-3,7-3.1l0,0l9.4-0.2c-1.2,6.2-1.8,12.5-1.9,18.8C1253.3,708.9,1253.7,715.2,1254.8,721.4
			L1254.8,721.4z"/>
		<path class="st11" d="M1484.6,727.1l-11.4-0.3l-3.6-0.1l0.7-3.5c1.4-6.9,2-14,1.9-21.1c-0.1-7-0.9-14.1-2.5-21l-0.1-0.4v-0.4V680
			l0.1-3l3.1,0.1l13.2,0.3l0,0c4.5,0.1,8.5,2,11.4,4.9s4.6,6.9,4.5,11.3l0,0l-0.5,17.9c-0.1,4.3-2,8.2-5.1,11
			C1493.2,725.5,1489.1,727.2,1484.6,727.1L1484.6,727.1z M1476.9,720.9l7.8,0.2c2.8,0.1,5.3-1,7.2-2.7c1.9-1.7,3.1-4.2,3.2-6.9
			l0.5-17.9l0,0c0.1-2.7-1-5.2-2.8-7s-4.3-3-7-3.1l0,0l-9.4-0.2c1.2,6.2,1.9,12.5,1.9,18.8C1478.4,708.4,1478,714.7,1476.9,720.9
			L1476.9,720.9z"/>
		<path class="st9" d="M1475.1,714.1c-3.5,27.4-17.8,53.5-42.1,71.6c-48.1,35.9-117,27.1-153.9-19.6c-8.2-10.4-14.2-21.8-17.9-33.6
			C1302.7,802.3,1420.9,831.8,1475.1,714.1L1475.1,714.1z"/>
		<path class="st11" d="M1478.2,714.4c-1.8,14.4-6.5,28.4-14,41.1c-7.2,12.3-17,23.4-29.2,32.5c-24.7,18.5-54.8,25.4-83.4,21.8
			c-28.6-3.7-55.8-17.9-74.8-41.9c-4.2-5.3-7.8-10.8-10.8-16.5c-3.1-5.9-5.6-11.9-7.6-18.1l-3.7-18.7l9.3,16.3
			c12.9,21.8,33.6,39.6,57.4,50c14.9,6.5,31.1,10,47.4,9.8c16.2-0.2,32.6-4.2,48-12.9c21.4-12,40.9-32.9,55.7-65l6.5-18.3
			L1478.2,714.4z M1458.8,752.5c3-5.1,5.5-10.3,7.5-15.7c-13.5,21.5-29.5,36.5-46.7,46.2c-16.3,9.1-33.7,13.4-51,13.7
			c-17.2,0.3-34.3-3.5-50-10.3c-15.9-6.9-30.5-17-42.4-29.3c1.6,2.5,3.4,4.9,5.2,7.2c17.9,22.7,43.7,36.2,70.8,39.7
			c27.1,3.5,55.5-3.1,78.9-20.6C1442.8,774.7,1452,764.2,1458.8,752.5L1458.8,752.5z"/>
		<path class="st9" d="M1299.4,614.1c48.1-35.9,117-27.1,153.9,19.6c18.3,23.1,25.3,51.2,21.9,78c-10-42.9-29.3-65.4-55-78.7
			c-39.9-20.7-80.5-23.2-122.6,12.6c-30.7,26.1-34.1,57.6-36.3,84.5C1248.2,688.6,1262,642,1299.4,614.1L1299.4,614.1z"/>
		<path class="st11" d="M1297.5,611.7c24.7-18.5,54.8-25.4,83.4-21.8c28.6,3.6,55.8,17.9,74.8,41.9c9.2,11.7,15.6,24.5,19.4,37.9
			c3.9,13.9,4.9,28.2,3.1,42.3l-2.8,16.7l-3.2-16.4c-4.9-21.1-12.1-37.1-21.1-49.4c-9-12.2-19.9-20.9-32.3-27.4
			c-19.4-10.1-39-15.8-58.8-14.6c-19.7,1.2-39.8,9.3-60.3,26.8c-14.9,12.7-23.2,26.6-28,40.6c-4.9,14.2-6.2,28.6-7.3,41.9l-1.2,15.7
			l-4.7-15c-6.8-21.6-6.5-44.5,0.4-65.7C1265.5,644.7,1278.6,625.8,1297.5,611.7L1297.5,611.7z M1380.1,595.8
			c-27.1-3.5-55.5,3.1-78.9,20.6c-17.9,13.4-30.2,31.2-36.6,50.6c-4.6,14-6.1,28.9-4.4,43.5c1.1-7.9,2.8-16,5.6-24.1
			c5.1-15,13.9-29.8,29.7-43.2c21.6-18.4,42.9-26.9,64-28.2c21-1.3,41.7,4.6,62.1,15.3c13.2,6.9,24.8,16.1,34.4,29.2
			c6.6,8.9,12.2,19.6,16.7,32.6c-0.5-7-1.6-13.9-3.5-20.7c-3.6-12.6-9.6-24.8-18.3-35.8C1432.9,612.8,1407.2,599.3,1380.1,595.8
			L1380.1,595.8z"/>
		<path class="st13" d="M1475.9,702.3c-0.1,3.1-0.4,6.2-0.8,9.3c-10-42.9-29.3-65.4-55-78.7c-39.9-20.7-94.9-19.3-129.4,14.6
			c-10.3,10.1-29.3,34-30.6,65.6c-4.9-32.3,8.1-61.8,39.6-85.3c48.1-35.9,117-27.1,153.9,19.6C1466.7,664,1474,683,1475.9,702.3
			L1475.9,702.3z"/>
		<path class="st11" d="M1478.4,702.4c-0.1,1.7-0.2,3.3-0.3,4.8c-0.1,1.6-0.3,3.2-0.5,4.8l-1.8,13.9l-3.2-13.7
			c-4.9-21.1-12.1-37.2-21.2-49.6c-9-12.3-20-21-32.5-27.5c-20.3-10.6-44.7-15.3-68.2-12.6c-21.5,2.4-42.2,11-58.2,26.8
			c-6,5.9-14.9,16.5-21.5,30.5c-4.5,9.7-7.9,20.9-8.3,33.5l-1,26.3l-4-26.1c-2.6-16.7-0.4-32.8,6.5-47.6c6.7-14.5,18-27.9,33.9-39.8
			l0,0l0.2-0.1c24.6-18.4,54.5-25.3,83-21.6c28.4,3.6,55.4,17.8,74.3,41.6l0,0l0.1,0.2c6.6,8.3,11.7,17.2,15.5,26.5
			c3.9,9.6,6.3,19.5,7.3,29.6v0.2L1478.4,702.4z M1455.6,659.8c6.2,8.4,11.5,18.3,15.8,30.3c-1.2-5.3-2.8-10.6-4.9-15.8
			c-3.6-8.9-8.5-17.4-14.8-25.3l0,0c-18-22.8-43.9-36.4-71.1-39.9s-55.8,3.2-79.3,20.7l0,0c-15.3,11.4-26.1,24.2-32.5,38.1
			c-2.8,6-4.8,12.2-5.9,18.6c1.1-3,2.3-5.9,3.6-8.7c6.9-14.7,16.3-25.8,22.5-32c16.9-16.6,38.7-25.7,61.2-28.2
			c24.5-2.8,49.9,2.1,71.1,13.2C1434.5,637.6,1446.1,646.8,1455.6,659.8L1455.6,659.8z"/>
		<path class="st13" d="M1278.8,693.8c0,0,17.4-52.6,78.9-57.6c6.1-1,13.6,16,4.5,18.6s-46.2,8.2-69.9,51.7
			C1290.7,709.7,1275.1,702.7,1278.8,693.8L1278.8,693.8z"/>
		<path class="st13" d="M1389.1,654.8c5.1,0,9.3-4.1,9.3-9.1s-4.2-9.1-9.3-9.1c-5.1,0-9.3,4.1-9.3,9.1S1384,654.8,1389.1,654.8
			L1389.1,654.8z"/>
		<path class="st20" d="M1370.3,824.7l-19.5,29.7l11.1,7.2l1.8-2.8l5.8,27.6l19.2-29.8l-10.8-7l-1.8,2.8L1370.3,824.7z
			 M1379.1,854.4l4.7,3.2l-12.6,19.4l-5.8-27.6l-4.7,7.2l-4.7-3l12.7-19.4l5.7,27.4L1379.1,854.4z"/>
		<g class="st21">
			<circle class="st22" cx="1411.2" cy="702.7" r="23.6"/>
			<circle cx="1414.6" cy="700.3" r="9.1"/>
			<circle class="st22" cx="1321.5" cy="702.7" r="23.6"/>
			<path id="XMLID_00000028285902548687721290000002641907447975500945_" class="st23" d="M1368.6,769.5c-20.3,0-35.1-8.8-42.3-14.1
				c-1.1-0.8-1.3-2.3-0.5-3.4c0.8-1.1,2.3-1.3,3.4-0.5c7,5.2,21.7,13.8,41.7,13.1c17.8-0.6,30.9-8.5,37.1-13.1
				c1.1-0.8,2.6-0.6,3.4,0.5s0.6,2.6-0.5,3.4c-6.6,5-20.6,13.4-39.8,14.1C1370.2,769.5,1369.4,769.5,1368.6,769.5z"/>
			<circle cx="1327.6" cy="699.3" r="9.1"/>
		</g>
	</g>
</g>
<rect x="2140.4" y="1426" class="st1" width="1559.3" height="192.1"/>
<g class="st2">
	<path class="st3" d="M2502.3,1426c2.3,0,4.4,0.4,6.2,1.1c1.9,0.7,3.5,1.7,4.8,3s2.4,2.9,3.1,4.7c0.7,1.8,1.1,3.8,1.1,6
		s-0.4,4.2-1.1,6c-0.7,1.8-1.8,3.3-3.1,4.7s-2.9,2.3-4.8,3c-1.9,0.7-3.9,1-6.2,1h-10.7v21h-6.3V1426H2502.3z M2491.6,1449.8h10.7
		c2.6,0,4.7-0.8,6.3-2.5s2.4-3.9,2.4-6.6c0-2.8-0.8-5-2.4-6.6c-1.6-1.7-3.7-2.5-6.3-2.5h-10.7V1449.8z"/>
	<path class="st3" d="M2534.8,1437.9v6.7h0.6c0.6-2.3,1.9-4.1,3.8-5.4c1.9-1.3,4.3-2,7.1-2c4.1,0,7.2,1.3,9.6,3.8
		c2.3,2.5,3.5,6,3.5,10.5v2.2h-6.3v-1.4c0-3-0.8-5.4-2.3-7c-1.5-1.7-3.7-2.5-6.5-2.5s-4.9,0.9-6.6,2.6c-1.6,1.7-2.5,4-2.5,7v24.2
		h-6.3v-38.5h5.9V1437.9z"/>
	<path class="st3" d="M2584,1477.1c-2.4,0-4.5-0.4-6.4-1c-1.9-0.7-3.5-1.7-4.8-3s-2.4-2.9-3.1-4.8c-0.7-1.9-1.1-3.9-1.1-6.2v-9.8
		c0-2.3,0.4-4.4,1.1-6.3c0.7-1.8,1.8-3.4,3.1-4.7s2.9-2.3,4.8-3c1.9-0.7,4-1,6.4-1c4.8,0,8.5,1.3,11.3,4s4.1,6.3,4.1,11v9.9
		c0,4.7-1.4,8.3-4.1,11C2592.6,1475.8,2588.8,1477.1,2584,1477.1z M2574.9,1462.1c0,2.9,0.8,5.2,2.4,6.9s3.8,2.5,6.7,2.5
		c2.8,0,5-0.8,6.7-2.5c1.6-1.7,2.5-4,2.5-6.9v-9.8c0-2.9-0.8-5.2-2.5-6.9c-1.6-1.7-3.8-2.5-6.7-2.5c-2.8,0-5,0.8-6.6,2.5
		s-2.5,4-2.5,6.9L2574.9,1462.1L2574.9,1462.1z"/>
	<path class="st3" d="M2610.6,1452.3c0-2.3,0.3-4.4,0.9-6.3c0.6-1.9,1.5-3.4,2.6-4.7c1.1-1.3,2.5-2.3,4.1-3s3.4-1,5.3-1
		c2.8,0,5.2,0.6,7.1,1.9c1.9,1.3,3.1,3.1,3.7,5.4h0.6c0-0.8-0.1-1.6-0.1-2.4c-0.1-0.7-0.2-1.4-0.2-2.2c0-0.8,0-1.5,0-2.1V1426h6.3
		v50.4h-5.9v-6.7h-0.6c-0.6,2.3-1.8,4.1-3.7,5.4s-4.2,1.9-7.1,1.9c-2,0-3.7-0.4-5.3-1c-1.6-0.7-2.9-1.7-4.1-3
		c-1.1-1.3-2-2.9-2.6-4.7c-0.6-1.9-0.9-4-0.9-6.3v-9.7H2610.6z M2616.9,1452.3v9.8c0,2.9,0.8,5.3,2.4,7c1.6,1.7,3.8,2.6,6.6,2.6
		c2.6,0,4.7-0.9,6.3-2.6s2.3-4.1,2.3-7v-9.8c0-2.9-0.8-5.3-2.3-7c-1.6-1.7-3.7-2.6-6.3-2.6c-2.8,0-5.1,0.8-6.7,2.5
		C2617.7,1446.9,2616.9,1449.2,2616.9,1452.3z"/>
	<path class="st3" d="M2659.6,1437.9v24.9c0,5.8,2.8,8.8,8.3,8.8c5.6,0,8.5-2.9,8.5-8.8v-24.9h6.3v24.9c0,4.6-1.3,8.1-3.8,10.6
		s-6.2,3.7-11,3.7c-4.7,0-8.3-1.2-10.8-3.7s-3.8-6-3.8-10.5V1438L2659.6,1437.9L2659.6,1437.9z"/>
	<path class="st3" d="M2710.6,1477.1c-2.4,0-4.5-0.4-6.4-1c-1.9-0.7-3.5-1.7-4.8-3s-2.4-2.9-3.1-4.8c-0.7-1.9-1.1-3.9-1.1-6.2v-9.8
		c0-2.3,0.4-4.4,1.1-6.2c0.7-1.9,1.8-3.5,3.1-4.8s2.9-2.3,4.8-3c1.9-0.7,4-1,6.4-1c4.2,0,7.7,1.2,10.5,3.5c2.7,2.3,4.4,5.5,4.9,9.5
		h-6.3c-0.3-2.2-1.3-4-3-5.4c-1.7-1.3-3.7-2-6.1-2c-2.8,0-5,0.8-6.7,2.5c-1.6,1.7-2.4,4-2.4,6.9v9.8c0,2.9,0.8,5.2,2.4,6.9
		c1.6,1.7,3.8,2.5,6.7,2.5c2.4,0,4.5-0.7,6.1-2c1.7-1.3,2.6-3.1,3-5.4h6.3c-0.6,4.1-2.3,7.2-5,9.5
		C2718.2,1476,2714.8,1477.1,2710.6,1477.1z"/>
	<path class="st3" d="M2735.2,1437.9h11.2V1426h6.3v11.9h15v5.7h-15v22.8c0,1.3,0.4,2.3,1.2,3.1c0.8,0.7,1.9,1.1,3.3,1.1h9.8v5.7
		h-9.8c-3.3,0-6-0.9-7.9-2.7c-2-1.8-2.9-4.2-2.9-7.2v-22.8h-11.2L2735.2,1437.9L2735.2,1437.9z"/>
	<path class="st3" d="M2779.7,1476.4v-5.7h14v-27h-12.2v-5.7h18.5v32.8h11.6v5.7h-31.9V1476.4z M2795.1,1422.9h1.4
		c1.4,0,2.5,0.4,3.3,1.2c0.8,0.8,1.3,1.8,1.3,3.1c0,1.3-0.4,2.3-1.3,3c-0.8,0.7-1.9,1.1-3.3,1.1h-1.4c-1.4,0-2.4-0.4-3.3-1.1
		c-0.8-0.7-1.3-1.7-1.3-3s0.4-2.3,1.3-3.1C2792.6,1423.3,2793.7,1422.9,2795.1,1422.9z"/>
	<path class="st3" d="M2836,1477.1c-2.4,0-4.5-0.4-6.4-1c-1.9-0.7-3.5-1.7-4.8-3s-2.4-2.9-3.1-4.8c-0.7-1.9-1.1-3.9-1.1-6.2v-9.8
		c0-2.3,0.4-4.4,1.1-6.3c0.7-1.8,1.8-3.4,3.1-4.7s2.9-2.3,4.8-3c1.9-0.7,4-1,6.4-1c4.8,0,8.5,1.3,11.3,4s4.1,6.3,4.1,11v9.9
		c0,4.7-1.4,8.3-4.1,11C2844.6,1475.8,2840.8,1477.1,2836,1477.1z M2826.9,1462.1c0,2.9,0.8,5.2,2.4,6.9c1.6,1.7,3.8,2.5,6.7,2.5
		c2.8,0,5-0.8,6.6-2.5s2.5-4,2.5-6.9v-9.8c0-2.9-0.8-5.2-2.5-6.9c-1.6-1.7-3.8-2.5-6.6-2.5s-5,0.8-6.6,2.5s-2.5,4-2.5,6.9
		L2826.9,1462.1L2826.9,1462.1z"/>
	<path class="st3" d="M2863.2,1437.9h5.9v6.7h0.6c0.6-2.4,1.8-4.2,3.6-5.5s4.1-1.9,6.9-1.9c2,0,3.8,0.3,5.4,1c1.6,0.7,2.9,1.6,4,2.8
		c1.1,1.2,1.9,2.6,2.5,4.3c0.6,1.7,0.8,3.5,0.8,5.4v25.6h-6.3v-24.6c0-2.9-0.7-5.2-2.2-6.9c-1.5-1.6-3.6-2.5-6.2-2.5
		c-2.7,0-4.8,0.9-6.3,2.6c-1.6,1.8-2.3,4.1-2.3,7.1v24.2h-6.3L2863.2,1437.9L2863.2,1437.9z"/>
	<path class="st3" d="M2942.8,1426h6l3.3,36.8c0.1,1.1,0.2,2.2,0.2,3.3c0,1.1,0.1,2.2,0.1,3.1c0,1.1,0.1,2.2,0.1,3.3h0.9
		c0-1.1,0.1-2.2,0.2-3.3c0-0.9,0.1-2,0.2-3.1s0.2-2.3,0.4-3.3l4.8-36.8h6.2l4.6,36.8c0.1,1,0.3,2.1,0.3,3.3c0.1,1.1,0.2,2.2,0.3,3.2
		c0,1.1,0.1,2.2,0.2,3.3h1c0-1.1,0.1-2.2,0.2-3.3c0.1-0.9,0.2-2,0.2-3.1c0.1-1.1,0.2-2.3,0.2-3.3l3.2-36.8h5.7l-5.1,50.4h-9l-4.1-37
		c-0.3-2.8-0.4-5-0.4-6.6c0-1,0-1.9,0.1-2.7h-1.2c0,0.8,0,1.7,0,2.7c0,0.8,0,1.8-0.1,2.9c0,1.1-0.2,2.4-0.4,3.7l-4.5,37h-9
		L2942.8,1426z"/>
	<path class="st3" d="M2988.6,1451.9c0-4.6,1.4-8.2,4.1-10.8c2.7-2.6,6.5-3.9,11.3-3.9s8.6,1.3,11.3,3.9s4.1,6.2,4.1,10.8v7.1h-24.5
		v3.1c0,2.9,0.8,5.2,2.4,6.9c1.6,1.7,3.8,2.5,6.7,2.5c2.1,0,3.9-0.3,5.5-1c1.5-0.7,2.7-1.6,3.4-2.9h6.3c-0.8,2.9-2.6,5.2-5.3,6.9
		c-2.7,1.7-6,2.5-9.9,2.5c-4.8,0-8.6-1.3-11.3-3.9s-4.1-6.2-4.1-10.8V1451.9z M2994.9,1453.7h18.2v-1.8c0-2.9-0.8-5.1-2.4-6.7
		c-1.6-1.6-3.8-2.4-6.7-2.4s-5.1,0.8-6.7,2.4c-1.6,1.6-2.4,3.8-2.4,6.7L2994.9,1453.7L2994.9,1453.7z"/>
	<path class="st3" d="M3031.2,1426h6.3v11.2c0,0.7,0,1.4,0,2.3s-0.1,1.7-0.1,2.4c-0.1,0.9-0.2,1.8-0.2,2.7h0.6
		c0.6-2.3,1.8-4.1,3.7-5.4s4.2-1.9,7.1-1.9c2,0,3.7,0.4,5.3,1c1.6,0.7,2.9,1.7,4.1,3c1.1,1.3,2,2.9,2.6,4.7c0.6,1.9,0.9,4,0.9,6.3
		v9.8c0,2.3-0.3,4.4-0.9,6.3c-0.6,1.9-1.5,3.4-2.6,4.7c-1.1,1.3-2.5,2.3-4.1,3s-3.4,1-5.3,1c-2.8,0-5.2-0.6-7.1-1.9
		c-1.9-1.3-3.1-3.1-3.7-5.4h-0.6v6.7h-6V1426z M3037.5,1462.1c0,2.9,0.8,5.3,2.3,7s3.7,2.6,6.3,2.6c2.8,0,5-0.9,6.6-2.6
		s2.4-4.1,2.4-7v-9.8c0-3-0.8-5.4-2.4-7.1c-1.6-1.7-3.8-2.5-6.6-2.5c-2.6,0-4.7,0.9-6.3,2.6s-2.3,4.1-2.3,7V1462.1z"/>
	<path class="st3" d="M3113.9,1463.5h6.6c0,2.4,0.9,4.4,2.6,5.8c1.8,1.5,4.1,2.2,7,2.2c3,0,5.3-0.7,7-2.1s2.5-3.3,2.5-5.6
		c0-2.1-0.6-3.9-1.8-5.4c-1.2-1.6-2.9-2.7-5-3.5l-6-2.1c-7.7-2.8-11.5-7.5-11.5-14.2c0-4.1,1.3-7.4,4-9.7s6.3-3.6,10.9-3.6
		c2.2,0,4.3,0.3,6.1,0.9s3.4,1.5,4.8,2.7c1.3,1.2,2.4,2.6,3.1,4.2c0.7,1.7,1.1,3.5,1.2,5.5h-6.6c0-2.4-0.8-4.3-2.3-5.7
		c-1.6-1.4-3.6-2.1-6.2-2.1c-2.6,0-4.7,0.6-6.2,1.9s-2.3,3-2.3,5.2c0,2.1,0.6,3.8,1.7,5.1c1.1,1.4,2.9,2.5,5.5,3.4l6.2,2.2
		c3.5,1.3,6.3,3.2,8.2,5.7s2.8,5.6,2.8,9.1c0,4.2-1.4,7.5-4.3,9.9c-2.9,2.4-6.8,3.6-11.8,3.6c-2.4,0-4.5-0.3-6.5-1s-3.6-1.6-5-2.8
		c-1.4-1.2-2.5-2.6-3.3-4.3C3114.4,1467.4,3114,1465.5,3113.9,1463.5z"/>
	<path class="st3" d="M3156.6,1451.9c0-4.6,1.4-8.2,4.1-10.8c2.7-2.6,6.5-3.9,11.3-3.9s8.6,1.3,11.3,3.9s4.1,6.2,4.1,10.8v7.1h-24.5
		v3.1c0,2.9,0.8,5.2,2.4,6.9c1.6,1.7,3.8,2.5,6.7,2.5c2.1,0,3.9-0.3,5.5-1c1.5-0.7,2.7-1.6,3.4-2.9h6.3c-0.8,2.9-2.6,5.2-5.3,6.9
		c-2.7,1.7-6,2.5-9.9,2.5c-4.8,0-8.6-1.3-11.3-3.9s-4.1-6.2-4.1-10.8V1451.9z M3162.9,1453.7h18.2v-1.8c0-2.9-0.8-5.1-2.4-6.7
		c-1.6-1.6-3.8-2.4-6.7-2.4s-5.1,0.8-6.7,2.4c-1.6,1.6-2.4,3.8-2.4,6.7L3162.9,1453.7L3162.9,1453.7z"/>
	<path class="st3" d="M3206.8,1437.9v6.7h0.6c0.6-2.3,1.9-4.1,3.8-5.4c1.9-1.3,4.3-2,7.1-2c4.1,0,7.2,1.3,9.6,3.8
		c2.3,2.5,3.5,6,3.5,10.5v2.2h-6.3v-1.4c0-3-0.8-5.4-2.3-7s-3.7-2.5-6.5-2.5s-4.9,0.9-6.6,2.6c-1.6,1.7-2.5,4-2.5,7v24.2h-6.3v-38.5
		h5.9V1437.9z"/>
	<path class="st3" d="M3238.5,1437.9h6.7l9.4,27.2c0.4,1.1,0.7,2,0.8,2.8c0.2,0.8,0.3,1.5,0.4,2.1c0.1,0.7,0.1,1.3,0.1,1.8h0.6
		c0-0.5,0-1.1,0.1-1.8c0.1-0.6,0.2-1.2,0.4-2.1c0.1-0.8,0.4-1.8,0.8-2.8l8.9-27.2h6.9l-13.8,38.5h-7.1L3238.5,1437.9z"/>
	<path class="st3" d="M3282.6,1451.9c0-4.6,1.4-8.2,4.1-10.8c2.7-2.6,6.5-3.9,11.3-3.9s8.6,1.3,11.3,3.9s4.1,6.2,4.1,10.8v7.1h-24.5
		v3.1c0,2.9,0.8,5.2,2.4,6.9c1.6,1.7,3.8,2.5,6.7,2.5c2.1,0,3.9-0.3,5.5-1c1.5-0.7,2.7-1.6,3.4-2.9h6.3c-0.8,2.9-2.6,5.2-5.3,6.9
		c-2.7,1.7-6,2.5-9.9,2.5c-4.8,0-8.6-1.3-11.3-3.9s-4.1-6.2-4.1-10.8V1451.9z M3288.9,1453.7h18.2v-1.8c0-2.9-0.8-5.1-2.4-6.7
		c-1.6-1.6-3.8-2.4-6.7-2.4s-5.1,0.8-6.7,2.4c-1.6,1.6-2.4,3.8-2.4,6.7L3288.9,1453.7L3288.9,1453.7z"/>
	<path class="st3" d="M3332.8,1437.9v6.7h0.6c0.6-2.3,1.9-4.1,3.8-5.4c1.9-1.3,4.3-2,7.1-2c4.1,0,7.2,1.3,9.6,3.8
		c2.3,2.5,3.5,6,3.5,10.5v2.2h-6.3v-1.4c0-3-0.8-5.4-2.3-7s-3.7-2.5-6.5-2.5s-4.9,0.9-6.6,2.6c-1.6,1.7-2.5,4-2.5,7v24.2h-6.3v-38.5
		h5.9V1437.9z"/>
</g>
<path class="st24" d="M3092.3,1215.6h68.4c43.9,0,79.4-35.6,79.4-79.4V801.7"/>
<g>
	<g>
		<line class="st24" x1="2899.4" y1="741.9" x2="2874.4" y2="741.9"/>
		<line class="st25" x1="2823.2" y1="741.9" x2="1826.1" y2="741.9"/>
		<line class="st24" x1="1800.5" y1="741.9" x2="1775.5" y2="741.9"/>
	</g>
</g>
<g id="g2527_00000072239032074249906560000007659048428084362940_" transform="matrix(1.5348001,0,0,1.5348001,-329.14076,-495.12879)">
	<path id="rect2157_00000087414501443382022230000014213784078920435362_" class="st26" d="M2127.3,678c-10,0-18.1,8.2-18.1,18.1
		v44.1c0,10,8.2,18.1,18.1,18.1H2369c10,0,18.2-8.2,18.2-18.1v-44.1c0-10-8.2-18.1-18.2-18.1H2127.3z M2127.3,689.3H2369
		c3.9,0,6.8,2.9,6.8,6.8v44.1c0,3.9-2.9,6.8-6.8,6.8h-241.7c-3.9,0-6.8-2.9-6.8-6.8v-44.1C2120.5,692.3,2123.4,689.3,2127.3,689.3z"
		/>
	<path id="path2431_00000076590004521509892270000003247238150725320894_" class="st26" d="M2167.7,718.2c0,5.3-4.3,9.7-9.7,9.7
		c-5.3,0-9.7-4.3-9.7-9.7s4.3-9.7,9.7-9.7S2167.7,712.9,2167.7,718.2z"/>
	<path id="path2433_00000014615950060247345620000009242230438384577700_" class="st27" d="M2158.1,702.9c-8.4,0-15.4,6.9-15.4,15.4
		s6.9,15.4,15.4,15.4s15.3-6.9,15.3-15.4S2166.5,702.9,2158.1,702.9z M2158.1,714.2c2.3,0,4,1.7,4,4s-1.7,4-4,4s-4-1.7-4-4
		S2155.8,714.2,2158.1,714.2z"/>
	<path id="path2161_00000070835777843842562210000013017674291722387592_" class="st28" d="M2298,718.1c-3.1,0-5.7,2.5-5.7,5.7
		c0,3.1,2.5,5.7,5.7,5.7h16.1c3.1,0,5.7-2.5,5.7-5.7c0-3.1-2.5-5.7-5.7-5.7H2298z"/>
	<path id="path2163_00000031891419578610842230000008108125417521756301_" class="st27" d="M2331.3,718.1c-3.1,0-5.7,2.5-5.7,5.7
		c0,3.1,2.5,5.7,5.7,5.7h16.1c3.1,0,5.7-2.5,5.7-5.7c0-3.1-2.5-5.7-5.7-5.7H2331.3z"/>
	<path id="rect2165_00000150080378703558677940000005206272697404086160_" class="st26" d="M2127.3,766.4c-10,0-18.1,8.2-18.1,18.2
		v44.1c0,10,8.2,18.2,18.1,18.2H2369c10,0,18.2-8.2,18.2-18.2v-44.1c0-10-8.2-18.2-18.2-18.2H2127.3z M2127.3,777.8H2369
		c3.9,0,6.8,2.9,6.8,6.8v44.1c0,3.9-2.9,6.8-6.8,6.8h-241.7c-3.9,0-6.8-2.9-6.8-6.8v-44.1C2120.5,780.7,2123.4,777.8,2127.3,777.8z"
		/>
	<path id="path2449_00000119079562524396294130000005365904033825939589_" class="st26" d="M2167.7,806.6c0,5.3-4.3,9.7-9.7,9.7
		c-5.3,0-9.7-4.3-9.7-9.7c0-5.3,4.3-9.7,9.7-9.7C2163.4,797,2167.7,801.3,2167.7,806.6z"/>
	<path id="path2451_00000092435250064253986470000013730936745252813495_" class="st27" d="M2158.1,791.3c-8.4,0-15.4,6.9-15.4,15.4
		c0,8.4,6.9,15.3,15.4,15.3s15.3-6.9,15.3-15.3C2173.4,798.2,2166.5,791.3,2158.1,791.3z M2158.1,802.6c2.3,0,4,1.7,4,4s-1.7,4-4,4
		s-4-1.7-4-4C2154.1,804.4,2155.8,802.6,2158.1,802.6z"/>
	<path id="path2169_00000166655074923992335910000017251748001812470413_" class="st28" d="M2298,806.5c-3.1,0-5.7,2.5-5.7,5.7
		c0,3.1,2.5,5.7,5.7,5.7h16.1c3.1,0,5.7-2.5,5.7-5.7c0-3.1-2.5-5.7-5.7-5.7H2298z"/>
	<path id="path2171_00000150796766432351819180000000912944744556625315_" class="st27" d="M2331.3,806.5c-3.1,0-5.7,2.5-5.7,5.7
		c0,3.1,2.5,5.7,5.7,5.7h16.1c3.1,0,5.7-2.5,5.7-5.7c0-3.1-2.5-5.7-5.7-5.7H2331.3z"/>
	<path id="rect2173_00000054262680384186506560000003365524724758353552_" class="st26" d="M2127.3,589.6c-10,0-18.1,8.2-18.1,18.2
		v44.1c0,10,8.2,18.2,18.1,18.2H2369c10,0,18.2-8.2,18.2-18.2v-44.1c0-10-8.2-18.2-18.2-18.2H2127.3z M2127.3,600.9H2369
		c3.9,0,6.8,2.9,6.8,6.8v44.1c0,3.9-2.9,6.8-6.8,6.8h-241.7c-3.9,0-6.8-2.9-6.8-6.8v-44.1C2120.5,603.9,2123.4,600.9,2127.3,600.9z"
		/>
	<path id="path2467_00000130617936476721331580000003567330462886526622_" class="st26" d="M2167.7,629.8c0,5.3-4.3,9.7-9.7,9.7
		c-5.3,0-9.7-4.3-9.7-9.7s4.3-9.7,9.7-9.7S2167.7,624.4,2167.7,629.8z"/>
	<path id="path2469_00000005256909478200197150000008861128247313915063_" class="st27" d="M2158.1,614.4c-8.4,0-15.4,6.9-15.4,15.4
		s6.9,15.3,15.4,15.3s15.3-6.9,15.3-15.3S2166.5,614.4,2158.1,614.4z M2158.1,625.8c2.3,0,4,1.7,4,4s-1.7,4-4,4s-4-1.7-4-4
		S2155.8,625.8,2158.1,625.8z"/>
	<path id="path2177_00000122680373986348711290000001527446311427455125_" class="st28" d="M2298,629.7c-3.1,0-5.7,2.5-5.7,5.7
		c0,3.1,2.5,5.7,5.7,5.7h16.1c3.1,0,5.7-2.5,5.7-5.7c0-3.1-2.5-5.7-5.7-5.7H2298z"/>
	<path id="path2179_00000147221790534108388220000003641286787954717116_" class="st27" d="M2331.3,629.7c-3.1,0-5.7,2.5-5.7,5.7
		c0,3.1,2.5,5.7,5.7,5.7h16.1c3.1,0,5.7-2.5,5.7-5.7c0-3.1-2.5-5.7-5.7-5.7H2331.3z"/>
</g>
<g>
	<path class="st29" d="M3124.9,1094.1v225.5c0,19.2-15.5,34.7-34.7,34.7h-329.6c-19.2,0-34.7-15.5-34.7-34.7v-225.5H3124.9z"/>
	<path class="st30" d="M2760.6,1354.3h34.7l260.2-260.2h-329.6v225.5C2725.9,1338.7,2741.4,1354.3,2760.6,1354.3z"/>
	<path class="st8" d="M3090.2,1007.4h-329.6c-19.2,0-34.7,15.5-34.7,34.7l0,0v277.6c0,19.2,15.5,34.7,34.7,34.7h329.6
		c19.2,0,34.7-15.5,34.7-34.7v-277.6C3124.9,1022.9,3109.4,1007.4,3090.2,1007.4z"/>
	<path class="st8" d="M2725.9,1094.1h399"/>
	<path class="st31" d="M2838.7,1163.5H2804c-4.8,0-8.7,3.9-8.7,8.7l0,0v34.7c0,4.8,3.9,8.7,8.7,8.7l0,0h34.7c4.8,0,8.7-3.9,8.7-8.7
		l0,0v-34.7C2847.3,1167.4,2843.4,1163.5,2838.7,1163.5L2838.7,1163.5z"/>
	<path class="st31" d="M2838.7,1250.2H2804c-4.8,0-8.7,3.9-8.7,8.7v34.7c0,4.8,3.9,8.7,8.7,8.7h34.7c4.8,0,8.7-3.9,8.7-8.7v-34.7
		C2847.3,1254.1,2843.4,1250.2,2838.7,1250.2L2838.7,1250.2L2838.7,1250.2z"/>
	<path class="st31" d="M2942.7,1163.5H2908c-4.8,0-8.7,3.9-8.7,8.7l0,0v34.7c0,4.8,3.9,8.7,8.7,8.7l0,0h34.7c4.8,0,8.7-3.9,8.7-8.7
		l0,0v-34.7C2951.4,1167.4,2947.5,1163.5,2942.7,1163.5L2942.7,1163.5z"/>
	<path class="st31" d="M2942.7,1250.2H2908c-4.8,0-8.7,3.9-8.7,8.7v34.7c0,4.8,3.9,8.7,8.7,8.7h34.7c4.8,0,8.7-3.9,8.7-8.7v-34.7
		C2951.4,1254.1,2947.5,1250.2,2942.7,1250.2L2942.7,1250.2L2942.7,1250.2z"/>
	<path class="st31" d="M3046.8,1163.5h-34.7c-4.8,0-8.7,3.9-8.7,8.7v34.7c0,4.8,3.9,8.7,8.7,8.7h34.7c4.8,0,8.7-3.9,8.7-8.7v-34.7
		C3055.5,1167.4,3051.6,1163.5,3046.8,1163.5z"/>
	<path class="st31" d="M3046.8,1250.2h-34.7c-4.8,0-8.7,3.9-8.7,8.7v34.7c0,4.8,3.9,8.7,8.7,8.7h34.7c4.8,0,8.7-3.9,8.7-8.7v-34.7
		C3055.5,1254.1,3051.6,1250.2,3046.8,1250.2L3046.8,1250.2z"/>
	<path class="st32" d="M2838.7,1055.1c-2.4,0-4.3-1.9-4.3-4.3s1.9-4.3,4.3-4.3"/>
	<path class="st32" d="M2838.7,1055.1c2.4,0,4.3-1.9,4.3-4.3s-1.9-4.3-4.3-4.3"/>
	<path class="st32" d="M2786.6,1055.1c-2.4,0-4.3-1.9-4.3-4.3s1.9-4.3,4.3-4.3"/>
	<path class="st32" d="M2786.6,1055.1c2.4,0,4.3-1.9,4.3-4.3s-1.9-4.3-4.3-4.3"/>
	<g>
		<path class="st32" d="M2890.7,1055.2c-2.4,0-4.3-1.9-4.3-4.3s1.9-4.3,4.3-4.3"/>
		<path class="st32" d="M2890.7,1055.2c2.4,0,4.3-1.9,4.3-4.3s-1.9-4.3-4.3-4.3l0,0"/>
	</g>
</g>
<g>
	<g class="st2">
		<path class="st3" d="M2402.8,630.6c0,7.5-1.7,12.9-5.1,16.3c-3.4,3.4-8.8,5.1-16.3,5.1h-26.6c-7.5,0-12.9-1.7-16.3-5.1
			c-3.4-3.4-5.1-8.8-5.1-16.3v-34.1c0-7.5,1.7-12.9,5.1-16.3c3.4-3.4,8.8-5.1,16.3-5.1h26.6c7.5,0,12.9,1.7,16.3,5.1
			c3.4,3.4,5.1,8.8,5.1,16.3V630.6z M2383.6,596.5c0-4.3-2.1-6.4-6.4-6.4h-18.1c-4.3,0-6.4,2.1-6.4,6.4v34.1c0,4.3,2.1,6.4,6.4,6.4
			h18.1c4.3,0,6.4-2.1,6.4-6.4V596.5z"/>
	</g>
	<g class="st2">
		<path class="st3" d="M2412.2,591.2h35.8c6,0,10.3,1.3,13,4s4.1,7,4.1,13v8.5c0,6-1.3,10.3-4.1,13c-2.7,2.7-7,4-13,4h-20.5v17.1
			h-15.3V591.2L2412.2,591.2z M2449.7,608.2c0-3.4-1.7-5.1-5.1-5.1h-17.1v18.8h17.1c3.4,0,5.1-1.7,5.1-5.1V608.2z"/>
		<path class="st3" d="M2520,650.9h-47.3v-59.7h47.3v11.9h-32v11.5h25.2v11.9H2488v12.4h32V650.9z"/>
		<path class="st3" d="M2578.8,650.9h-16.2l-20.5-35.8v35.8h-15.3v-59.7h16.2l20.5,35.8v-35.8h15.3V650.9z"/>
	</g>
	<g>
		<path class="st3" d="M2646.8,591.2l-37.3,44.8h37.3v14.9h-60.7V636l37.3-44.8h-37.3v-14.9h60.7V591.2z"/>
	</g>
	<g>
		<path class="st3" d="M2682.2,650.9h-30.7V639h7.7v-35.8h-7.7v-11.9h30.7v11.9h-7.7V639h7.7V650.9z"/>
		<path class="st3" d="M2718.9,650.9h-15.3v-47.7h-17.9v-11.9h51.2v11.9H2719v47.7H2718.9z"/>
		<path class="st3" d="M2770.9,650.9h-30.7V639h7.7v-35.8h-7.7v-11.9h30.7v11.9h-7.7V639h7.7V650.9z"/>
	</g>
	<circle class="st33" cx="2260.4" cy="613.3" r="54.2"/>
	<path id="Lightning_Crashes_00000004525722089568695270000005975009793932574876_" class="st34" d="M2260.4,570.5l-27.1,42.3
		l15.8,10.1l2.5-4l8.6,39l26.7-42.6l-15.3-9.8l-2.6,4L2260.4,570.5z M2273.3,612.5l6.7,4.4l-17.5,27.6l-8.6-39l-6.6,10.3l-6.6-4.2
		l17.7-27.7l8.6,38.7L2273.3,612.5z"/>
	<g>
		
			<linearGradient id="SVGID_1_" gradientUnits="userSpaceOnUse" x1="2215.4004" y1="88.5107" x2="2305.5588" y2="178.6691" gradientTransform="matrix(1 0 0 1 0 479.8896)">
			<stop  offset="4.306891e-03" style="stop-color:#FC0147"/>
			<stop  offset="3.918269e-02" style="stop-color:#F4044D"/>
			<stop  offset="0.9" style="stop-color:#0068F9"/>
		</linearGradient>
		<path class="st35" d="M2260.3,669c-7.5,0-14.8-1.5-21.7-4.4c-6.6-2.8-12.6-6.8-17.7-11.9c-5.1-5.1-9.1-11.1-11.9-17.7
			c-2.9-6.9-4.4-14.2-4.4-21.7s1.5-14.8,4.4-21.7c2.8-6.6,6.8-12.6,11.9-17.7c5.1-5.1,11.1-9.1,17.7-11.9c6.9-2.9,14.2-4.4,21.7-4.4
			s14.8,1.5,21.7,4.4c6.6,2.8,12.6,6.8,17.7,11.9c5.1,5.1,9.1,11.1,11.9,17.7c2.9,6.9,4.4,14.2,4.4,21.7s-1.5,14.8-4.4,21.7
			c-2.8,6.6-6.8,12.6-11.9,17.7c-5.1,5.1-11.1,9.1-17.7,11.9C2275.1,667.5,2267.8,669,2260.3,669z M2260.3,561.9
			c-13.7,0-26.6,5.3-36.3,15s-15.1,22.6-15.1,36.3s5.3,26.6,15,36.3s22.6,15,36.3,15s26.6-5.3,36.3-15s15-22.6,15-36.3
			s-5.3-26.6-15-36.3C2286.9,567.3,2274,561.9,2260.3,561.9z"/>
	</g>
</g>
<line class="st24" x1="1744.5" y1="741.9" x2="1790.1" y2="782.6"/>
<line class="st24" x1="1744.1" y1="742.6" x2="1790.5" y2="696.2"/>
<g>
	<path class="st36" d="M2046.8,329.2c10.5-15,14.4-50.6,13.1-65.7c-1.3-15.1-4.8-29.6-10.2-42.1h-2.1l-15,30.3
		c-5-24.7-5.1-51.3-0.1-76c0.2-1,0.3-2.2,0.1-3.2c-0.1-1.1-0.4-2.1-0.9-2.9c-0.4-0.8-1-1.5-1.6-1.9s-1.3-0.5-2-0.4
		c-11.9,2.6-23.3,9.7-33.2,20.6c-9.9,11-18.1,25.5-23.8,42.5l-10.7-16.7c-0.4-0.6-0.9-1.1-1.4-1.4c-0.5-0.3-1.1-0.5-1.6-0.4
		c-0.6,0-1.1,0.3-1.6,0.7s-0.9,0.9-1.3,1.6c-6.8,12.8-11.4,28.3-13.3,44.8s2.5,55.2,12.7,74.2"/>
	<path class="st37" d="M1966,311.3c-1.2-7.9-0.8-11.4-0.8-11.4c1.1-14.4,4.2-28.1,9-40c4.8-12,11.2-21.8,18.6-28.9
		c0.9-0.9,1.9-1.3,3-1.2c1,0.1,2,0.8,2.8,1.9c0.8,1.1,1.4,2.6,1.7,4.3c0.3,1.7,0.3,3.5,0,5.2c-1.5,8.7-2,17.9-1.5,27
		c0.6,9.1,2.2,17.8,4.8,25.8c2.5,0.5,5.1-0.3,7.4-2.3s4.1-5.1,5.3-9c0.4-1.1,0.9-2,1.6-2.7c0.6-0.7,1.3-1.2,2.1-1.3
		c0.7-0.2,1.5-0.1,2.2,0.3s1.4,1,1.9,1.9c3.3,5.3,5.8,11.8,7.4,19c0,0,2.8,10.9,2.4,16.8s-61.8,3.5-64.6,1.7S1966,311.3,1966,311.3z
		"/>
	<g>
		<path class="st38" d="M2012.7,307.3h-24.8c-16.1,0-29.1,13-29.1,29.1v956.1c0,16.1,13,29.1,29.1,29.1h24.8
			c16.1,0,29.1-13,29.1-29.1v-956C2041.8,320.4,2028.8,307.3,2012.7,307.3z"/>
		<line class="st39" x1="2041.8" y1="1205.9" x2="1958.8" y2="1205.9"/>
		<line class="st39" x1="1958.8" y1="1101.7" x2="2041.8" y2="1101.7"/>
		<line class="st39" x1="2041.8" y1="1003.4" x2="1958.8" y2="1003.4"/>
		<line class="st39" x1="2041.8" y1="905.8" x2="1958.8" y2="905.8"/>
		<line class="st39" x1="2045.4" y1="808.3" x2="1962.4" y2="808.3"/>
		<line class="st39" x1="1962.4" y1="704.2" x2="2045.4" y2="704.2"/>
		<line class="st39" x1="2045.4" y1="605.8" x2="1962.4" y2="605.8"/>
		<line class="st39" x1="2045.4" y1="508.3" x2="1962.4" y2="508.3"/>
		<line class="st39" x1="2045.4" y1="419.1" x2="1962.4" y2="419.1"/>
		<line class="st39" x1="2000.3" y1="1316.2" x2="2000.3" y2="1205.9"/>
		<line class="st39" x1="2000.3" y1="1101.7" x2="2000.3" y2="1003.4"/>
		<line class="st39" x1="2000.3" y1="906.2" x2="2000.3" y2="807.9"/>
		<line class="st39" x1="2000.3" y1="705.5" x2="2000.3" y2="607.2"/>
		<line class="st39" x1="2000.3" y1="510" x2="2000.3" y2="411.7"/>
		<rect x="1965.8" y="1108.8" class="st40" width="68.5" height="89.4"/>
		<rect x="1966.1" y="909.3" class="st40" width="68.5" height="89.4"/>
		<rect x="1966.1" y="711" class="st40" width="68.5" height="90.7"/>
		<rect x="1966.1" y="515.3" class="st40" width="68.5" height="84.1"/>
		<path class="st40" d="M1988.6,314.4h23.5c12.4,0,22.5,10.1,22.5,22.5v74.7H1966V337C1966,324.5,1976.1,314.4,1988.6,314.4z"/>
	</g>
</g>
<line class="st41" x1="594.1" y1="740.4" x2="945.9" y2="740.4"/>
<line class="st41" x1="976.9" y1="740.4" x2="931.3" y2="699.7"/>
<line class="st41" x1="977.3" y1="739.7" x2="930.9" y2="786.1"/>
<g>
	<path class="st29" d="M609.6,833.6V576.5c0-15.8-12.8-28.6-28.6-28.6H276.3c-15.8,0-28.6,12.8-28.6,28.6l0,0v257.1H609.6z"/>
	<path class="st30" d="M247.8,576.5v257.1h6.2L539.6,548H276.3C260.6,548,247.8,560.8,247.8,576.5L247.8,576.5z"/>
	<path class="st8" d="M609.6,833.6V576.5c0-15.8-12.8-28.6-28.6-28.6H276.3c-15.8,0-28.6,12.8-28.6,28.6l0,0v257.1H609.6z"/>
	<path class="st31" d="M647.7,833.6c0,31.6-25.6,57.1-57.1,57.1l0,0H266.8c-31.6,0-57.1-25.6-57.1-57.1l0,0H647.7L647.7,833.6z"/>
	<path class="st42" d="M381.1,638.1v38.1"/>
	<path class="st42" d="M476.3,638.1v38.1"/>
	<path class="st42" d="M504.8,723.8c-43.6,38.1-108.7,38.1-152.3,0"/>
</g>
<rect x="1141.1" y="1326.8" class="st1" width="458.5" height="192.1"/>
<g class="st2">
	<path class="st3" d="M1349.3,1377.9c-2.4,0-4.5-0.4-6.4-1c-1.9-0.7-3.5-1.7-4.8-3s-2.4-2.9-3.1-4.8s-1.1-3.9-1.1-6.2v-9.8
		c0-2.3,0.4-4.4,1.1-6.3c0.7-1.8,1.8-3.4,3.1-4.7s2.9-2.3,4.8-3s4-1,6.4-1c4.8,0,8.5,1.3,11.3,4s4.1,6.3,4.1,11v9.9
		c0,4.7-1.4,8.3-4.1,11C1357.9,1376.6,1354.2,1377.9,1349.3,1377.9z M1340.2,1362.9c0,2.9,0.8,5.2,2.4,6.9s3.8,2.5,6.7,2.5
		c2.8,0,5-0.8,6.6-2.5s2.5-4,2.5-6.9v-9.8c0-2.9-0.8-5.2-2.5-6.9c-1.6-1.7-3.9-2.5-6.6-2.5s-5,0.8-6.6,2.5s-2.5,4-2.5,6.9V1362.9z"
		/>
	<path class="st3" d="M1384.1,1338.7v6.7h0.6c0.6-2.3,1.9-4.1,3.8-5.4s4.3-2,7.1-2c4.1,0,7.2,1.3,9.6,3.8c2.3,2.5,3.5,6,3.5,10.5
		v2.2h-6.3v-1.4c0-3-0.8-5.4-2.3-7c-1.5-1.7-3.7-2.5-6.5-2.5s-4.9,0.9-6.6,2.6c-1.6,1.7-2.4,4-2.4,7v24.2h-6.3v-38.5h5.8V1338.7z"/>
</g>
<g>
	<path class="st3" d="M1582.7,1205.9c-50.4,0-91.3,40.8-91.3,91.1c0,39.3,25.1,74.3,62.5,86.7c4.6,0.8,6-1.9,6-4.3
		c0-2.2,0-8.2,0-15.9c-25.4,5.5-30.6-12-30.6-12c-1.7-5.5-5.3-10.2-10.1-13.3c-8.3-5.7,0.6-5.6,0.6-5.6c5.9,0.8,11,4.3,14,9.4
		c5.2,9.4,17,12.8,26.4,7.7c0.1,0,0.1-0.1,0.2-0.1c0.4-4.6,2.5-8.9,5.8-12.2c-20.3-2.3-41.6-10.1-41.6-45.1
		c-0.1-9.1,3.2-17.8,9.4-24.5c-2.8-7.9-2.5-16.5,0.9-24.1c0,0,7.7-2.5,25.1,9.4c15-4.1,30.7-4.1,45.7,0c17.5-11.8,25.1-9.4,25.1-9.4
		c3.4,7.6,3.7,16.3,0.9,24.1c6.2,6.7,9.5,15.4,9.4,24.5c0,35.1-21.3,42.8-41.7,45c4.4,4.4,6.7,10.6,6.2,16.8v25.3
		c0,2.4,1.5,5.1,6.1,4.3c47.8-15.9,73.7-67.5,57.8-115.3C1657,1231,1622,1205.8,1582.7,1205.9z"/>
	<path class="st43" d="M1533.1,1249c0.4-1.8,1-3.6,1.7-5.3c2.3-0.4,4.6-0.2,6.8,0.5c25.8-13.2,56.4-13.2,82.3,0
		c2.2-0.7,4.5-0.8,6.8-0.5c0.7,1.7,1.2,3.5,1.7,5.3c21.8,14.2,36.5,37,40.5,62.7c8-49.7-25.8-96.6-75.5-104.6s-96.6,25.8-104.6,75.5
		c-1.6,9.6-1.6,19.4,0,29.1C1496.5,1285.9,1511.3,1263.1,1533.1,1249z"/>
	<path class="st44" d="M1582.7,1205.9c-50.4,0-91.3,40.8-91.3,91.1c0,39.3,25.1,74.3,62.5,86.7c4.6,0.8,6-1.9,6-4.3
		c0-2.2,0-8.2,0-15.9c-25.4,5.5-30.6-12-30.6-12c-1.7-5.5-5.3-10.2-10.1-13.3c-8.3-5.7,0.6-5.6,0.6-5.6c5.9,0.8,11,4.3,14,9.4
		c5.2,9.4,17,12.8,26.4,7.7c0.1,0,0.1-0.1,0.2-0.1c0.4-4.6,2.5-8.9,5.8-12.2c-20.3-2.3-41.6-10.1-41.6-45.1
		c-0.1-9.1,3.2-17.8,9.4-24.5c-2.8-7.9-2.5-16.5,0.9-24.1c0,0,7.7-2.5,25.1,9.4c15-4.1,30.7-4.1,45.7,0c17.5-11.8,25.1-9.4,25.1-9.4
		c3.4,7.6,3.7,16.3,0.9,24.1c6.2,6.7,9.5,15.4,9.4,24.5c0,35.1-21.3,42.8-41.7,45c4.4,4.4,6.7,10.6,6.2,16.8v25.3
		c0,2.4,1.5,5.1,6.1,4.3c47.8-15.9,73.7-67.5,57.8-115.3C1657,1231,1622,1205.8,1582.7,1205.9L1582.7,1205.9z"/>
</g>
<g>
	<path class="st45" d="M1226.5,1234.3l-22.8,21.4c-22.1-23.6-59.2-24.8-82.8-2.7c-4.2,3.9-7.7,8.4-10.6,13.3l-24.6-19.6
		c27.1-41.6,82.7-53.4,124.3-26.3C1216,1224.4,1221.6,1229,1226.5,1234.3L1226.5,1234.3L1226.5,1234.3z"/>
	<path class="st46" d="M1110.6,1325.9l-23.6,21.2c-21-30-21.5-69.8-1.4-100.4l24.6,19.6C1099.5,1284.7,1099.6,1307.6,1110.6,1325.9
		L1110.6,1325.9z"/>
	<path class="st47" d="M1216.8,1366.5c-39.1,30.8-95.7,24.1-126.5-15c-1.1-1.4-2.2-2.9-3.3-4.4l23.6-21.2
		c16.6,27.8,52.6,36.9,80.5,20.3c1.7-1,3.3-2.1,4.8-3.2L1216.8,1366.5L1216.8,1366.5z"/>
	<path class="st48" d="M1250.9,1284.1v16.4c-1.3,25.9-13.8,49.9-34.1,66l-20.9-23.5c9.5-6.9,16.6-16.6,20.5-27.6h-43.7v-31.3H1250.9
		L1250.9,1284.1z"/>
	<path class="st44" d="M1085.7,1246.7L1085.7,1246.7"/>
	<path class="st44" d="M1087.1,1347.1L1087.1,1347.1"/>
	<path class="st44" d="M1110.7,1325.8L1110.7,1325.8"/>
</g>
<rect x="972.5" y="1426" class="st1" width="367.3" height="105.9"/>
<g class="st2">
	<path class="st3" d="M1035.7,1462.1v-21.7c0-2.2,0.4-4.3,1.1-6.2c0.7-1.9,1.8-3.5,3.1-4.8s3-2.3,4.9-3s4-1.1,6.3-1.1
		c4.2,0,7.7,1.1,10.4,3.2c2.7,2.1,4.5,5.3,5.3,9.4h-6.4c-0.5-2.2-1.5-3.9-3.1-5.1s-3.7-1.9-6.2-1.9c-2.8,0-5,0.8-6.7,2.5
		c-1.6,1.7-2.5,4-2.5,6.9v21.7c0,2.9,0.8,5.2,2.5,6.9c1.6,1.7,3.9,2.5,6.7,2.5s5-0.8,6.6-2.5s2.5-4,2.5-6.9v-6H1050v-5.6h16.5v11.6
		c0,2.3-0.4,4.4-1.1,6.2c-0.7,1.9-1.8,3.5-3.1,4.8c-1.3,1.3-2.9,2.3-4.8,3s-4,1-6.4,1c-2.3,0-4.5-0.4-6.4-1c-1.9-0.7-3.5-1.7-4.9-3
		c-1.3-1.3-2.4-2.9-3.1-4.8C1036.1,1466.4,1035.7,1464.4,1035.7,1462.1z"/>
	<path class="st3" d="M1093.1,1477.1c-2.4,0-4.5-0.4-6.4-1c-1.9-0.7-3.5-1.7-4.8-3s-2.4-2.9-3.1-4.8s-1.1-3.9-1.1-6.2v-9.8
		c0-2.3,0.4-4.4,1.1-6.3c0.7-1.8,1.8-3.4,3.1-4.7s2.9-2.3,4.8-3s4-1,6.4-1c4.8,0,8.5,1.3,11.3,4s4.1,6.3,4.1,11v9.9
		c0,4.7-1.4,8.3-4.1,11C1101.7,1475.8,1097.9,1477.1,1093.1,1477.1z M1084,1462.1c0,2.9,0.8,5.2,2.4,6.9c1.6,1.7,3.8,2.5,6.7,2.5
		c2.8,0,5-0.8,6.7-2.5c1.6-1.7,2.5-4,2.5-6.9v-9.8c0-2.9-0.8-5.2-2.5-6.9c-1.6-1.7-3.9-2.5-6.7-2.5s-5,0.8-6.6,2.5s-2.5,4-2.5,6.9
		V1462.1z"/>
	<path class="st3" d="M1135.1,1477.1c-2.4,0-4.5-0.4-6.4-1c-1.9-0.7-3.5-1.7-4.8-3s-2.4-2.9-3.1-4.8s-1.1-3.9-1.1-6.2v-9.8
		c0-2.3,0.4-4.4,1.1-6.3c0.7-1.8,1.8-3.4,3.1-4.7s2.9-2.3,4.8-3s4-1,6.4-1c4.8,0,8.5,1.3,11.3,4s4.1,6.3,4.1,11v9.9
		c0,4.7-1.4,8.3-4.1,11C1143.7,1475.8,1139.9,1477.1,1135.1,1477.1z M1126,1462.1c0,2.9,0.8,5.2,2.4,6.9c1.6,1.7,3.8,2.5,6.7,2.5
		c2.8,0,5-0.8,6.7-2.5c1.6-1.7,2.5-4,2.5-6.9v-9.8c0-2.9-0.8-5.2-2.5-6.9c-1.6-1.7-3.9-2.5-6.7-2.5s-5,0.8-6.6,2.5s-2.5,4-2.5,6.9
		V1462.1z"/>
	<path class="st3" d="M1161.2,1451.9c0-2.2,0.3-4.3,0.9-6.1s1.5-3.4,2.6-4.6s2.5-2.2,4.2-2.9c1.6-0.7,3.5-1,5.5-1
		c2.8,0,5.2,0.7,7.1,2s3.3,3.2,4,5.7h0.5v-7h6v36c0,4.5-1.3,8-4,10.6c-2.7,2.5-6.4,3.8-11.2,3.8h-9.4v-5.7h9.4c2.8,0,5-0.7,6.5-2.2
		c1.6-1.5,2.3-3.6,2.3-6.4v-1.8l0.3-6.6h-0.4c-0.7,2.5-2,4.4-4,5.7c-2,1.3-4.3,2-7.1,2c-2,0-3.8-0.3-5.4-1s-3-1.7-4.1-2.9
		c-1.1-1.3-2-2.8-2.7-4.6c-0.6-1.8-0.9-3.9-0.9-6.1v-6.9H1161.2z M1167.6,1458.6c0,2.9,0.8,5.2,2.4,6.8s3.8,2.4,6.6,2.4
		c2.8,0,5-0.8,6.6-2.4s2.4-3.9,2.4-6.8v-6.7c0-2.9-0.8-5.2-2.4-6.8c-1.6-1.6-3.8-2.5-6.6-2.5c-2.8,0-5,0.8-6.6,2.5
		c-1.6,1.6-2.4,3.9-2.4,6.8V1458.6z"/>
	<path class="st3" d="M1200.9,1431.1v-5.7h19v39.9c0,1.7,0.5,3.1,1.4,4c0.9,1,2.2,1.4,3.8,1.4h11.4v5.7h-11.4c-3.6,0-6.4-1-8.5-3
		s-3.1-4.7-3.1-8.2V1431L1200.9,1431.1L1200.9,1431.1z"/>
	<path class="st3" d="M1245.7,1451.9c0-4.6,1.4-8.2,4.1-10.8c2.7-2.6,6.5-3.9,11.3-3.9s8.6,1.3,11.3,3.9c2.7,2.6,4.1,6.2,4.1,10.8
		v7.1H1252v3.1c0,2.9,0.8,5.2,2.4,6.9c1.6,1.7,3.8,2.5,6.7,2.5c2.1,0,3.9-0.3,5.5-1c1.5-0.7,2.7-1.6,3.4-2.9h6.3
		c-0.8,2.9-2.6,5.2-5.3,6.9c-2.7,1.7-6,2.5-9.9,2.5c-4.8,0-8.6-1.3-11.3-3.9c-2.7-2.6-4.1-6.2-4.1-10.8V1451.9z M1252,1453.7h18.2
		v-1.8c0-2.9-0.8-5.1-2.4-6.7s-3.8-2.4-6.7-2.4s-5.1,0.8-6.7,2.4s-2.4,3.8-2.4,6.7V1453.7z"/>
</g>
<rect x="1401.9" y="1426" class="st1" width="367.3" height="105.9"/>
<g class="st2">
	<path class="st3" d="M1465.1,1462.1v-21.7c0-2.2,0.4-4.3,1.1-6.2c0.7-1.9,1.8-3.5,3.1-4.8s3-2.3,4.9-3s4-1.1,6.3-1.1
		c4.2,0,7.7,1.1,10.4,3.2c2.7,2.1,4.5,5.3,5.3,9.4h-6.4c-0.5-2.2-1.5-3.9-3.1-5.1s-3.7-1.9-6.2-1.9c-2.8,0-5,0.8-6.6,2.5
		s-2.5,4-2.5,6.9v21.7c0,2.9,0.8,5.2,2.5,6.9c1.6,1.7,3.9,2.5,6.6,2.5s5-0.8,6.6-2.5s2.5-4,2.5-6.9v-6h-10.2v-5.6h16.5v11.6
		c0,2.3-0.4,4.4-1.1,6.2c-0.7,1.9-1.8,3.5-3.1,4.8c-1.3,1.3-2.9,2.3-4.8,3s-4,1-6.4,1c-2.3,0-4.5-0.4-6.4-1c-1.9-0.7-3.5-1.7-4.9-3
		c-1.3-1.3-2.4-2.9-3.1-4.8C1465.5,1466.4,1465.1,1464.4,1465.1,1462.1z"/>
	<path class="st3" d="M1508.1,1476.4v-5.7h14v-27h-12.2v-5.7h18.6v32.8h11.5v5.7h-31.9V1476.4z M1523.5,1422.9h1.4
		c1.4,0,2.4,0.4,3.3,1.2c0.8,0.8,1.3,1.8,1.3,3.1c0,1.3-0.4,2.3-1.3,3c-0.8,0.7-1.9,1.1-3.3,1.1h-1.4c-1.4,0-2.4-0.4-3.3-1.1
		c-0.8-0.7-1.3-1.7-1.3-3s0.4-2.3,1.3-3.1S1522.2,1422.9,1523.5,1422.9z"/>
	<path class="st3" d="M1547.7,1437.9h11.2V1426h6.3v11.9h15v5.7h-15v22.8c0,1.3,0.4,2.3,1.2,3.1c0.8,0.7,1.9,1.1,3.3,1.1h9.8v5.7
		h-9.8c-3.3,0-6-0.9-7.9-2.7c-2-1.8-2.9-4.2-2.9-7.2v-22.8h-11.2V1437.9z"/>
	<path class="st3" d="M1591.8,1476.4V1426h6.3v21.3h16.8V1426h6.3v50.4h-6.3V1453h-16.8v23.4H1591.8z"/>
	<path class="st3" d="M1640.1,1437.9v24.9c0,5.8,2.8,8.8,8.3,8.8c5.6,0,8.5-2.9,8.5-8.8v-24.9h6.3v24.9c0,4.6-1.3,8.1-3.8,10.6
		s-6.2,3.7-11,3.7c-4.7,0-8.3-1.2-10.8-3.7s-3.8-6-3.8-10.5V1438L1640.1,1437.9L1640.1,1437.9z"/>
	<path class="st3" d="M1675.6,1426h6.3v11.2c0,0.7,0,1.4,0,2.3s-0.1,1.7-0.1,2.4c-0.1,0.9-0.2,1.8-0.2,2.7h0.6
		c0.6-2.3,1.8-4.1,3.7-5.4c1.9-1.3,4.2-1.9,7.1-1.9c2,0,3.7,0.4,5.3,1c1.6,0.7,2.9,1.7,4.1,3c1.1,1.3,2,2.9,2.6,4.7
		c0.6,1.9,0.9,4,0.9,6.3v9.8c0,2.3-0.3,4.4-0.9,6.3s-1.5,3.4-2.6,4.7c-1.1,1.3-2.5,2.3-4.1,3s-3.4,1-5.3,1c-2.8,0-5.2-0.6-7.1-1.9
		s-3.1-3.1-3.7-5.4h-0.6v6.7h-5.9V1426H1675.6z M1681.9,1462.1c0,2.9,0.8,5.3,2.3,7c1.6,1.7,3.7,2.6,6.3,2.6c2.8,0,5-0.9,6.6-2.6
		s2.4-4.1,2.4-7v-9.8c0-3-0.8-5.4-2.4-7.1s-3.8-2.5-6.7-2.5c-2.6,0-4.7,0.9-6.3,2.6c-1.6,1.7-2.3,4.1-2.3,7L1681.9,1462.1
		L1681.9,1462.1z"/>
</g>
<g>
	<line class="st49" x1="1327.5" y1="1272.5" x2="1327.5" y2="1188.1"/>
	<line class="st49" x1="1327.5" y1="1173.2" x2="1308" y2="1195.1"/>
	<line class="st49" x1="1327.2" y1="1173" x2="1349.5" y2="1195.3"/>
	<line class="st49" x1="1410" y1="1175.8" x2="1410" y2="1260.3"/>
	<line class="st49" x1="1410" y1="1275.1" x2="1429.6" y2="1253.3"/>
	<line class="st49" x1="1410.3" y1="1275.3" x2="1388" y2="1253.1"/>
</g>
<rect x="-27.4" y="943.1" class="st1" width="1183.5" height="105.9"/>
<g class="st2">
	<path class="st3" d="M147.7,980.5v-37.4h4.7v8.8c0,0.5,0,1,0,1.6s0,1.1-0.1,1.6c-0.1,0.6-0.1,1.2-0.2,1.8h0.4
		c0.5-1.7,1.4-3.1,2.7-4c1.4-1,3.1-1.4,5.1-1.4c1.4,0,2.7,0.2,3.9,0.7s2.1,1.2,3,2.1c0.8,0.9,1.4,1.9,1.9,3.2
		c0.5,1.2,0.7,2.6,0.7,4.1v19h-4.7v-18.3c0-2.2-0.6-3.9-1.7-5.1c-1.1-1.2-2.7-1.8-4.6-1.8s-3.5,0.7-4.7,2s-1.7,3.1-1.7,5.3v17.9
		L147.7,980.5L147.7,980.5z"/>
	<path class="st3" d="M177.5,951.9h8.3v-8.8h4.7v8.8h11.2v4.3h-11.2v17c0,1,0.3,1.7,0.9,2.3c0.6,0.6,1.4,0.8,2.5,0.8h7.3v4.3h-7.3
		c-2.5,0-4.4-0.7-5.9-2c-1.5-1.4-2.2-3.1-2.2-5.4v-17h-8.3V951.9z"/>
	<path class="st3" d="M208.7,951.9h8.3v-8.8h4.7v8.8h11.2v4.3h-11.2v17c0,1,0.3,1.7,0.9,2.3c0.6,0.6,1.4,0.8,2.5,0.8h7.3v4.3h-7.3
		c-2.5,0-4.4-0.7-5.9-2c-1.5-1.4-2.2-3.1-2.2-5.4v-17h-8.3V951.9z"/>
	<path class="st3" d="M241.3,951.9h4.4v4.9h0.4c0.5-1.7,1.4-3.1,2.8-4c1.4-1,3.1-1.4,5.3-1.4c1.5,0,2.8,0.3,4,0.8s2.2,1.3,3,2.2
		c0.8,1,1.5,2.1,1.9,3.5c0.5,1.4,0.7,2.9,0.7,4.7v7.3c0,1.7-0.2,3.3-0.7,4.7s-1.1,2.6-1.9,3.5s-1.8,1.7-3,2.2s-2.5,0.8-4,0.8
		c-2.1,0-3.9-0.5-5.3-1.4c-1.4-1-2.3-2.3-2.8-4h-0.4c0,0.6,0.1,1.2,0.2,1.8c0,0.5,0.1,1.1,0.1,1.6c0,0.6,0,1.1,0,1.6v8.8h-4.7
		L241.3,951.9L241.3,951.9z M246,962.6v7.3c0,2.2,0.6,3.9,1.7,5.2c1.2,1.3,2.7,1.9,4.7,1.9c2.1,0,3.7-0.6,4.9-1.9
		c1.2-1.3,1.8-3,1.8-5.2v-7.3c0-2.3-0.6-4-1.8-5.3c-1.2-1.2-2.8-1.9-4.9-1.9c-1.9,0-3.5,0.6-4.7,1.9
		C246.6,958.6,246,960.4,246,962.6z"/>
	<path class="st3" d="M272,973.5h4.9c0.2,1,0.8,1.8,1.9,2.4c1.1,0.6,2.4,0.9,4,0.9h1.5c1.9,0,3.3-0.4,4.4-1.2c1-0.8,1.6-1.8,1.6-3.1
		c0-2.3-1.6-3.6-4.8-4.1l-4.3-0.6c-2.8-0.4-4.9-1.3-6.3-2.7s-2.1-3.2-2.1-5.7c0-2.6,0.9-4.6,2.7-6c1.8-1.4,4.4-2.1,7.6-2.1h1.5
		c1.4,0,2.7,0.2,3.8,0.5c1.2,0.3,2.2,0.8,3.1,1.5c0.9,0.6,1.6,1.4,2.2,2.3c0.6,0.9,0.9,1.9,1.1,2.9h-4.9c-0.2-0.9-0.8-1.6-1.8-2.2
		c-1-0.6-2.2-0.9-3.6-0.9H283c-1.8,0-3.1,0.3-4.1,1s-1.5,1.7-1.5,3.1c0,1.1,0.3,2,1,2.5c0.7,0.6,1.8,1,3.3,1.2l4.3,0.6
		c3.1,0.5,5.3,1.4,6.7,2.7c1.4,1.4,2.1,3.3,2.1,5.8c0,2.7-0.9,4.8-2.8,6.3s-4.5,2.3-7.9,2.3h-1.5c-3,0-5.5-0.7-7.5-2.1
		C273.4,977.6,272.2,975.8,272,973.5z"/>
	<path class="st3" d="M310.5,955.6c0-1.2,0.4-2.3,1.2-3c0.8-0.8,1.8-1.2,3.1-1.2s2.3,0.4,3.1,1.2c0.8,0.8,1.2,1.8,1.2,3
		s-0.4,2.3-1.2,3c-0.8,0.8-1.8,1.2-3.1,1.2s-2.3-0.4-3.1-1.2S310.5,956.8,310.5,955.6z M310.5,976.8c0-1.2,0.4-2.3,1.2-3
		c0.8-0.8,1.8-1.2,3.1-1.2s2.3,0.4,3.1,1.2c0.8,0.8,1.2,1.8,1.2,3s-0.4,2.3-1.2,3c-0.8,0.8-1.8,1.2-3.1,1.2s-2.3-0.4-3.1-1.2
		C310.9,979.1,310.5,978,310.5,976.8z"/>
	<path class="st3" d="M352.7,937.3h4.9l-18.5,48.9h-4.9L352.7,937.3z"/>
	<path class="st3" d="M383.9,937.3h4.9l-18.5,48.9h-4.9L383.9,937.3z"/>
	<path class="st3" d="M396,972.2c0-1.4,0.2-2.6,0.7-3.7c0.5-1.1,1.1-2,2-2.8s2-1.4,3.2-1.8s2.7-0.6,4.2-0.6h8.5V961
		c0-1.8-0.6-3.1-1.7-4.1c-1.2-1-2.8-1.5-5-1.5c-1.6,0-3,0.3-4.1,0.9c-1.1,0.6-1.9,1.4-2.3,2.4h-4.7c0.5-2.3,1.7-4,3.7-5.4
		c2-1.3,4.5-2,7.4-2c3.5,0,6.3,0.8,8.3,2.5c2,1.6,3,3.9,3,6.9v19.8h-4.3V975h-0.4c-0.5,1.8-1.5,3.3-3.2,4.4
		c-1.7,1.1-3.7,1.6-6.1,1.6c-2.9,0-5.2-0.8-6.9-2.4C396.9,977,396,974.9,396,972.2z M400.7,972.1c0,1.6,0.5,2.8,1.5,3.7
		s2.4,1.4,4.3,1.4c1.2,0,2.3-0.2,3.3-0.5s1.9-0.8,2.6-1.3s1.3-1.2,1.7-2c0.4-0.8,0.6-1.6,0.6-2.5V967h-8.4c-1.7,0-3.1,0.5-4.1,1.4
		S400.7,970.5,400.7,972.1z"/>
	<path class="st3" d="M427.9,943.1h23.4v5.3l-13.2,32.1h-5.3l12.6-29.8c0.2-0.6,0.5-1.1,0.7-1.5s0.4-0.7,0.5-0.9
		c0.2-0.3,0.3-0.6,0.5-0.7v-0.3c-0.6,0-1.1,0.1-1.6,0.1s-0.9,0-1.4,0s-0.9,0-1.2,0h-10.3v5.6h-4.7V943.1z"/>
	<path class="st3" d="M459.8,980.5v-4.2h10V950c0-0.3,0-0.6,0-1s0-0.7,0-1s0-0.7,0.1-1.1h-0.1c-0.2,0.2-0.5,0.4-0.7,0.6
		c-0.2,0.2-0.4,0.3-0.6,0.5s-0.4,0.3-0.6,0.5l-7.3,5v-4.7l8.1-5.7h6v33.3h8.4v4.2L459.8,980.5L459.8,980.5z"/>
	<path class="st3" d="M490.5,962.3c0-3.4,1-6.1,3-8s4.8-2.9,8.4-2.9s6.4,1,8.4,2.9s3,4.6,3,8v5.3h-18.2v2.3c0,2.2,0.6,3.9,1.8,5.1
		c1.2,1.2,2.9,1.9,5,1.9c1.6,0,2.9-0.2,4.1-0.7c1.1-0.5,2-1.2,2.5-2.1h4.7c-0.6,2.2-1.9,3.9-3.9,5.1s-4.5,1.9-7.4,1.9
		c-3.6,0-6.4-1-8.4-2.9s-3-4.6-3-8L490.5,962.3L490.5,962.3z M495.2,963.6h13.5v-1.4c0-2.1-0.6-3.8-1.8-5c-1.2-1.2-2.8-1.8-5-1.8
		c-2.1,0-3.8,0.6-5,1.8s-1.8,2.8-1.8,5L495.2,963.6L495.2,963.6z"/>
	<path class="st3" d="M533.6,981c-1.8,0-3.4-0.3-4.8-0.8c-1.4-0.5-2.6-1.3-3.6-2.2c-1-1-1.8-2.1-2.3-3.5s-0.8-2.9-0.8-4.6v-7.3
		c0-1.7,0.3-3.2,0.8-4.6c0.5-1.4,1.3-2.6,2.3-3.5c1-1,2.2-1.7,3.6-2.2c1.4-0.5,3-0.8,4.8-0.8c3.2,0,5.7,0.9,7.8,2.6s3.2,4.1,3.7,7
		h-4.7c-0.2-1.7-1-3-2.2-4s-2.7-1.5-4.5-1.5c-2.1,0-3.7,0.6-4.9,1.9c-1.2,1.2-1.8,3-1.8,5.1v7.3c0,2.2,0.6,3.9,1.8,5.1
		c1.2,1.2,2.9,1.9,5,1.9c1.8,0,3.3-0.5,4.5-1.5s2-2.3,2.2-4h4.7c-0.5,3-1.7,5.4-3.7,7.1C539.3,980.2,536.7,981,533.6,981z"/>
	<path class="st3" d="M559.9,976.4c0-1.4,0.4-2.4,1.2-3.2s1.9-1.2,3.2-1.2s2.4,0.4,3.2,1.2s1.2,1.9,1.2,3.2c0,1.4-0.4,2.5-1.2,3.4
		c-0.8,0.8-1.9,1.3-3.2,1.3s-2.4-0.4-3.2-1.3C560.3,978.9,559.9,977.8,559.9,976.4z"/>
	<path class="st3" d="M584,973.5h4.9c0.2,1,0.8,1.8,1.9,2.4c1.1,0.6,2.4,0.9,4,0.9h1.5c1.9,0,3.3-0.4,4.4-1.2c1-0.8,1.6-1.8,1.6-3.1
		c0-2.3-1.6-3.6-4.8-4.1l-4.3-0.6c-2.8-0.4-4.9-1.3-6.3-2.7c-1.4-1.4-2.1-3.2-2.1-5.7c0-2.6,0.9-4.6,2.7-6s4.4-2.1,7.6-2.1h1.5
		c1.4,0,2.7,0.2,3.8,0.5c1.2,0.3,2.2,0.8,3.1,1.5c0.9,0.6,1.6,1.4,2.2,2.3c0.6,0.9,0.9,1.9,1.1,2.9h-4.9c-0.2-0.9-0.8-1.6-1.8-2.2
		c-1-0.6-2.2-0.9-3.6-0.9H595c-1.8,0-3.1,0.3-4.1,1s-1.5,1.7-1.5,3.1c0,1.1,0.3,2,1,2.5c0.7,0.6,1.8,1,3.3,1.2l4.3,0.6
		c3.1,0.5,5.3,1.4,6.7,2.7c1.4,1.4,2.1,3.3,2.1,5.8c0,2.7-0.9,4.8-2.8,6.3c-1.9,1.5-4.5,2.3-7.9,2.3h-1.5c-3,0-5.5-0.7-7.5-2.1
		C585.4,977.6,584.2,975.8,584,973.5z"/>
	<path class="st3" d="M615.7,980.5v-37.4h4.7v8.8c0,0.5,0,1,0,1.6s0,1.1-0.1,1.6c-0.1,0.6-0.1,1.2-0.2,1.8h0.4
		c0.5-1.7,1.4-3.1,2.7-4c1.4-1,3.1-1.4,5.1-1.4c1.4,0,2.7,0.2,3.9,0.7s2.1,1.2,3,2.1c0.8,0.9,1.4,1.9,1.9,3.2
		c0.5,1.2,0.7,2.6,0.7,4.1v19h-4.7v-18.3c0-2.2-0.6-3.9-1.7-5.1c-1.1-1.2-2.7-1.8-4.6-1.8s-3.5,0.7-4.7,2s-1.7,3.1-1.7,5.3v17.9
		L615.7,980.5L615.7,980.5z"/>
	<path class="st3" d="M645.6,972.2c0-1.4,0.2-2.6,0.7-3.7c0.5-1.1,1.1-2,2-2.8s2-1.4,3.2-1.8s2.7-0.6,4.2-0.6h8.5V961
		c0-1.8-0.6-3.1-1.7-4.1c-1.2-1-2.8-1.5-5-1.5c-1.6,0-3,0.3-4.1,0.9c-1.1,0.6-1.9,1.4-2.3,2.4h-4.7c0.5-2.3,1.7-4,3.7-5.4
		c2-1.3,4.5-2,7.4-2c3.5,0,6.3,0.8,8.3,2.5c2,1.6,3,3.9,3,6.9v19.8h-4.3V975h-0.4c-0.5,1.8-1.5,3.3-3.2,4.4
		c-1.7,1.1-3.7,1.6-6.1,1.6c-2.9,0-5.2-0.8-6.9-2.4C646.5,977,645.6,974.9,645.6,972.2z M650.3,972.1c0,1.6,0.5,2.8,1.5,3.7
		s2.4,1.4,4.3,1.4c1.2,0,2.3-0.2,3.3-0.5s1.9-0.8,2.6-1.3c0.7-0.6,1.3-1.2,1.7-2s0.6-1.6,0.6-2.5V967h-8.4c-1.7,0-3.1,0.5-4.1,1.4
		S650.3,970.5,650.3,972.1z"/>
	<path class="st3" d="M683.8,951.9v4.9h0.4c0.5-1.7,1.4-3,2.8-4c1.4-1,3.2-1.5,5.3-1.5c3,0,5.4,0.9,7.1,2.8c1.7,1.9,2.6,4.5,2.6,7.8
		v1.6h-4.7v-1c0-2.3-0.6-4-1.7-5.2c-1.1-1.2-2.7-1.8-4.8-1.8c-2,0-3.7,0.6-4.9,1.9c-1.2,1.3-1.8,3-1.8,5.2v17.9h-4.7v-28.6
		L683.8,951.9L683.8,951.9z"/>
	<path class="st3" d="M708.9,962.3c0-3.4,1-6.1,3-8s4.8-2.9,8.4-2.9s6.4,1,8.4,2.9s3,4.6,3,8v5.3h-18.2v2.3c0,2.2,0.6,3.9,1.8,5.1
		c1.2,1.2,2.9,1.9,5,1.9c1.6,0,2.9-0.2,4.1-0.7c1.1-0.5,2-1.2,2.5-2.1h4.7c-0.6,2.2-1.9,3.9-3.9,5.1s-4.5,1.9-7.4,1.9
		c-3.6,0-6.4-1-8.4-2.9s-3-4.6-3-8L708.9,962.3L708.9,962.3z M713.6,963.6h13.5v-1.4c0-2.1-0.6-3.8-1.8-5s-2.8-1.8-5-1.8
		s-3.8,0.6-5,1.8s-1.8,2.8-1.8,5L713.6,963.6L713.6,963.6z"/>
	<path class="st3" d="M747.1,976.4c0-1.4,0.4-2.4,1.2-3.2s1.9-1.2,3.2-1.2c1.4,0,2.4,0.4,3.2,1.2s1.2,1.9,1.2,3.2
		c0,1.4-0.4,2.5-1.2,3.4c-0.8,0.8-1.9,1.3-3.2,1.3c-1.4,0-2.4-0.4-3.2-1.3C747.5,978.9,747.1,977.8,747.1,976.4z"/>
	<path class="st3" d="M771.3,975.3l17.4-19.1v-0.3c-0.4,0-0.8,0.1-1.2,0.1c-0.3,0-0.8,0.1-1.2,0.1s-0.9,0-1.4,0h-13.2v-4.2h21.9v5.3
		l-17.6,19v0.3c0.4,0,0.8-0.1,1.2-0.1s0.8-0.1,1.2-0.1c0.5,0,0.9,0,1.4,0h14.3v4.2h-22.9L771.3,975.3L771.3,975.3z"/>
	<path class="st3" d="M808.6,951.9v4.9h0.4c0.5-1.7,1.4-3,2.8-4c1.4-1,3.2-1.5,5.3-1.5c3,0,5.4,0.9,7.1,2.8c1.7,1.9,2.6,4.5,2.6,7.8
		v1.6h-4.7v-1c0-2.3-0.6-4-1.7-5.2c-1.1-1.2-2.7-1.8-4.8-1.8c-2,0-3.7,0.6-4.9,1.9c-1.2,1.3-1.8,3-1.8,5.2v17.9h-4.7v-28.6
		L808.6,951.9L808.6,951.9z"/>
	<path class="st3" d="M845.2,981c-1.8,0-3.4-0.3-4.8-0.8c-1.4-0.5-2.6-1.3-3.6-2.2c-1-1-1.8-2.1-2.3-3.5s-0.8-2.9-0.8-4.6v-7.3
		c0-1.7,0.3-3.3,0.8-4.7s1.3-2.5,2.3-3.5s2.2-1.7,3.6-2.2c1.4-0.5,3-0.8,4.8-0.8c3.5,0,6.3,1,8.4,3c2,2,3.1,4.7,3.1,8.2v7.3
		c0,3.5-1,6.2-3,8.2S848.7,981,845.2,981z M838.4,969.8c0,2.2,0.6,3.9,1.8,5.1c1.2,1.2,2.9,1.9,5,1.9s3.7-0.6,4.9-1.9
		c1.2-1.2,1.8-3,1.8-5.1v-7.3c0-2.2-0.6-3.9-1.8-5.1c-1.2-1.2-2.9-1.9-4.9-1.9s-3.7,0.6-4.9,1.9c-1.2,1.2-1.8,3-1.8,5.1L838.4,969.8
		L838.4,969.8z"/>
	<path class="st3" d="M865.6,943.1h4.7v20.8h5.6l8.7-12h5.4l-10.1,13.8l10.3,14.8h-5.5L876,968h-5.7v12.5h-4.7V943.1z"/>
	<path class="st3" d="M903.1,976.4c0-1.4,0.4-2.4,1.2-3.2s1.9-1.2,3.2-1.2c1.4,0,2.4,0.4,3.2,1.2s1.2,1.9,1.2,3.2
		c0,1.4-0.4,2.5-1.2,3.4c-0.8,0.8-1.9,1.3-3.2,1.3c-1.4,0-2.4-0.4-3.2-1.3C903.5,978.9,903.1,977.8,903.1,976.4z"/>
	<path class="st3" d="M928.1,980.5v-4.3h10.4v-20.1h-9.1v-4.3h13.8v24.3h8.6v4.3L928.1,980.5L928.1,980.5z M939.5,940.7h1
		c1,0,1.8,0.3,2.4,0.9c0.6,0.6,0.9,1.4,0.9,2.3c0,0.9-0.3,1.7-0.9,2.2c-0.6,0.6-1.4,0.8-2.4,0.8h-1c-1,0-1.8-0.3-2.4-0.8
		s-0.9-1.3-0.9-2.3c0-0.9,0.3-1.7,0.9-2.3C937.7,941,938.5,940.7,939.5,940.7z"/>
	<path class="st3" d="M969.9,981c-1.8,0-3.4-0.3-4.8-0.8c-1.4-0.5-2.6-1.3-3.6-2.2c-1-1-1.8-2.1-2.3-3.5s-0.8-2.9-0.8-4.6v-7.3
		c0-1.7,0.3-3.3,0.8-4.7s1.3-2.5,2.3-3.5s2.2-1.7,3.6-2.2c1.4-0.5,3-0.8,4.8-0.8c3.5,0,6.3,1,8.4,3c2,2,3.1,4.7,3.1,8.2v7.3
		c0,3.5-1,6.2-3,8.2S973.5,981,969.9,981z M963.2,969.8c0,2.2,0.6,3.9,1.8,5.1c1.2,1.2,2.9,1.9,5,1.9s3.7-0.6,4.9-1.9
		c1.2-1.2,1.8-3,1.8-5.1v-7.3c0-2.2-0.6-3.9-1.8-5.1c-1.2-1.2-2.9-1.9-4.9-1.9s-3.7,0.6-4.9,1.9c-1.2,1.2-1.8,3-1.8,5.1L963.2,969.8
		L963.2,969.8z"/>
</g>
</svg>
