<?xml version="1.0" encoding="utf-8"?>
<!-- Generator: Adobe Illustrator 28.0.0, SVG Export Plug-In . SVG Version: 6.00 Build 0)  -->
<svg version="1.1" id="Layer_1" xmlns="http://www.w3.org/2000/svg" xmlns:xlink="http://www.w3.org/1999/xlink" x="0px" y="0px"
	 viewBox="0 0 3840 1698.5" style="enable-background:new 0 0 3840 1698.5;" xml:space="preserve">
<style type="text/css">
	.st0{fill:none;stroke:#FFFFFF;stroke-miterlimit:10;}
	.st1{fill:none;stroke:#9BF316;stroke-width:12;stroke-linecap:round;stroke-miterlimit:10;stroke-dasharray:49.9771,49.9771;}
	.st2{fill:none;}
	.st3{enable-background:new    ;}
	.st4{fill:#191919;}
	.st5{fill:none;stroke:#9BF316;stroke-width:12;stroke-linecap:round;stroke-miterlimit:10;stroke-dasharray:49.8329,49.8329;}
	.st6{fill:#161616;}
	.st7{fill:#FFF080;}
	.st8{fill:#FFE424;}
	.st9{fill:none;stroke:#220F67;stroke-width:20;stroke-linecap:round;stroke-linejoin:round;}
	.st10{fill:#FFFFFF;}
	.st11{fill-rule:evenodd;clip-rule:evenodd;fill:#FFFFFF;}
	.st12{fill-rule:evenodd;clip-rule:evenodd;fill:#A3A3A3;}
	.st13{fill:#00001F;}
	.st14{fill-rule:evenodd;clip-rule:evenodd;fill:#B3B3B3;}
	.st15{fill-rule:evenodd;clip-rule:evenodd;fill:#E6E6E6;}
	.st16{fill:#FFFFFF;stroke:#000000;stroke-width:2.9998;stroke-miterlimit:9.9992;}
	.st17{fill:#FFFFFF;stroke:#000000;stroke-width:3;stroke-miterlimit:10;}
	.st18{fill-rule:evenodd;clip-rule:evenodd;fill:#FF0000;}
	.st19{fill-rule:evenodd;clip-rule:evenodd;fill:#00FF00;}
	.st20{fill-rule:evenodd;clip-rule:evenodd;fill:#06B806;}
	.st21{fill-rule:evenodd;clip-rule:evenodd;}
	.st22{fill:#B3B3B3;}
	.st23{opacity:0.25;}
	.st24{fill:#FEFCF9;}
	.st25{fill:none;stroke:#FFFFFF;stroke-width:4;stroke-linecap:round;stroke-linejoin:round;stroke-miterlimit:10;}
	.st26{fill:none;stroke:#FF005C;stroke-width:25;stroke-linecap:round;stroke-miterlimit:10;}
	.st27{fill:none;stroke:#FF005C;stroke-width:25;stroke-linecap:round;stroke-miterlimit:10;stroke-dasharray:51.1352,51.1352;}
	.st28{fill:#220F67;}
	.st29{fill:#9BF316;}
	.st30{fill:#5CAEFF;}
	.st31{fill:#66E1FF;}
	.st32{fill:#C2F3FF;}
	.st33{fill:#FFFFFF;stroke:#220F67;stroke-width:20;stroke-linecap:round;stroke-linejoin:round;}
	.st34{fill:none;stroke:#9BF316;stroke-width:20;}
	.st35{opacity:0.95;fill:#FFFFFF;enable-background:new    ;}
	.st36{fill:#010101;}
	.st37{fill:url(#SVGID_1_);}
	.st38{fill:#FF005C;}
	.st39{fill:#FFE000;}
	.st40{fill:#5CAEFE;stroke:#230F67;stroke-width:15;stroke-miterlimit:10;}
	.st41{fill:none;stroke:#230F67;stroke-width:15;stroke-miterlimit:10;}
	.st42{fill:#9FD4FF;}
	.st43{fill:none;stroke:#66E1FF;stroke-width:25;stroke-linecap:round;stroke-miterlimit:10;}
	.st44{fill:none;stroke:#191919;stroke-width:20;stroke-linecap:round;stroke-linejoin:round;}
	.st45{fill:#B2B2B2;}
	.st46{fill:none;stroke:#191919;stroke-width:10;stroke-linecap:round;stroke-linejoin:round;}
	.st47{fill:#FF808C;stroke:#191919;stroke-width:10;stroke-linecap:round;stroke-linejoin:round;}
	.st48{fill:#FFEF5E;stroke:#191919;stroke-width:10;stroke-linecap:round;stroke-linejoin:round;}
	.st49{fill:#78EB7B;stroke:#191919;stroke-width:10;stroke-linecap:round;stroke-linejoin:round;}
	.st50{fill:#66E1FF;stroke:#191919;stroke-width:10;stroke-linecap:round;stroke-linejoin:round;}
	.st51{fill:none;stroke:#66E1FF;stroke-width:20;stroke-linecap:round;stroke-miterlimit:10;}
</style>
<path class="st0" d="M3457.5,2321.4"/>
<path class="st0" d="M4649.6,2321.4"/>
<path class="st0" d="M3440.6,2321.4"/>
<path class="st0" d="M4649.6,2321.4"/>
<g>
	<g>
		<path class="st1" d="M1751.6,1599.2H163.3c-48.6,0-88.4-39.8-88.4-88.4V178c0-48.6,39.8-88.4,88.4-88.4h1588.2
			c48.6,0,88.4,39.8,88.4,88.4v1332.7C1840,1559.4,1800.2,1599.2,1751.6,1599.2z"/>
	</g>
	<rect x="438.3" y="192.3" class="st2" width="1013.4" height="216.2"/>
	<g class="st3">
		<path class="st4" d="M489.3,192.3h42c7,0,12.1,1.6,15.2,4.8c3.2,3.2,4.8,8.2,4.8,15.2v10c0,7-1.6,12.1-4.8,15.2
			c-3.2,3.2-8.2,4.8-15.2,4.8h-24v20h-18V192.3z M533.3,212.3c0-4-2-6-6-6h-20v22h20c4,0,6-2,6-6V212.3z"/>
		<path class="st4" d="M605.3,192.3h18v51c0,7-1.6,12.1-4.8,15.2c-3.2,3.2-8.2,4.8-15.2,4.8h-23c-7,0-12.1-1.6-15.2-4.8
			c-3.2-3.2-4.8-8.2-4.8-15.2v-51h18v51c0,4,2,6,6,6h15c4,0,6-2,6-6V192.3z"/>
		<path class="st4" d="M635.3,192.3h40c6.5,0,11.3,1.5,14.4,4.5c3.1,3,4.6,7.5,4.6,13.5c0,4-0.9,7.2-2.6,9.8
			c-1.7,2.5-3.9,4.2-6.4,5.2c5.4,1.5,9.1,5.1,11,10.8c0.7,2.1,1,4.5,1,7.2c0,6.5-1.5,11.3-4.6,14.4s-7.9,4.6-14.4,4.6h-43V192.3z
			 M676.3,212.3c0-4-2-6-6-6h-17v14h17c4,0,6-2,6-6V212.3z M679.3,240.3c0-4-2-6-6-6h-20v14h20c4,0,6-2,6-6V240.3z"/>
		<path class="st4" d="M724.3,248.3h36.5v14h-54.5v-70h18V248.3z"/>
		<path class="st4" d="M800.8,262.3h-36v-14h9v-42h-9v-14h36v14h-9v42h9V262.3z"/>
		<path class="st4" d="M863.8,261.3c-14.9,1.3-27.2,2-37,2c-6.5,0-11.3-1.5-14.4-4.6c-3.1-3.1-4.6-7.9-4.6-14.4v-32
			c0-7,1.6-12.1,4.8-15.2c3.2-3.2,8.2-4.8,15.2-4.8h36v14h-32c-4,0-6,2-6,6v32c0,1.5,0.5,2.8,1.4,3.7s2,1.3,3.4,1.3s2.9,0,4.6,0
			c1.7,0,3.4-0.1,5.2-0.2c1.8-0.1,3.6-0.1,5.4-0.2c1.8-0.1,4.2-0.2,7.1-0.4s6.5-0.4,10.9-0.7L863.8,261.3L863.8,261.3z"/>
		<path class="st4" d="M934.8,262.3h-36v-14h9v-42h-9v-14h36v14h-9v42h9V262.3z"/>
		<path class="st4" d="M1004.8,262.3h-19l-24-42v42h-18v-70h19l24,42v-42h18V262.3z"/>
		<path class="st4" d="M1050.8,262.3h-18v-56h-21v-14h60v14h-21V262.3z"/>
		<path class="st4" d="M1134.3,262.3h-55.5v-70h55.5v14h-37.5v13.5h29.5v14h-29.5v14.5h37.5V262.3z"/>
		<path class="st4" d="M1142.3,192.3h42c7,0,12.1,1.6,15.2,4.8c3.2,3.2,4.8,8.2,4.8,15.2v9c0,5.5-0.9,9.8-2.8,12.9
			c-1.8,3.1-4.8,5.1-8.8,6.1l12.5,22h-19.5l-11.5-21h-14v21h-18v-70H1142.3z M1186.3,212.3c0-4-2-6-6-6h-20v21h20c4,0,6-2,6-6V212.3
			z"/>
		<path class="st4" d="M1275.2,262.3h-19l-24-42v42h-18v-70h19l24,42v-42h18V262.3z"/>
		<path class="st4" d="M1342.7,262.3h-55.5v-70h55.5v14h-37.5v13.5h29.5v14h-29.5v14.5h37.5V262.3z"/>
		<path class="st4" d="M1384.7,262.3h-18v-56h-21v-14h60v14h-21V262.3z"/>
	</g>
	<g>
		<path class="st5" d="M3668.1,1599.2h-1579c-48.6,0-88.4-39.8-88.4-88.4V178c0-48.6,39.8-88.4,88.4-88.4h1579
			c48.6,0,88.4,39.8,88.4,88.4v1332.7C3756.5,1559.4,3716.8,1599.2,3668.1,1599.2z"/>
	</g>
	<rect x="2422.5" y="191" class="st2" width="1006.5" height="216.2"/>
	<g class="st3">
		<path class="st4" d="M2435.9,191h42c7,0,12.1,1.6,15.2,4.8c3.2,3.2,4.8,8.2,4.8,15.2v10c0,7-1.6,12.1-4.8,15.2
			c-3.2,3.2-8.2,4.8-15.2,4.8h-24v20h-18V191z M2479.9,211c0-4-2-6-6-6h-20v22h20c4,0,6-2,6-6V211z"/>
		<path class="st4" d="M2506.9,191h42c7,0,12.1,1.6,15.2,4.8c3.2,3.2,4.8,8.2,4.8,15.2v9c0,5.5-0.9,9.8-2.8,12.9
			c-1.8,3.1-4.8,5.1-8.8,6.1l12.5,22h-19.5l-11.5-21h-14v21h-18v-70H2506.9z M2550.9,211c0-4-2-6-6-6h-20v21h20c4,0,6-2,6-6V211z"/>
		<path class="st4" d="M2611.9,261h-36v-14h9v-42h-9v-14h36v14h-9v42h9V261z"/>
		<path class="st4" d="M2650.4,240l17-49h19.5l-26.5,70h-20l-26.5-70h19.5L2650.4,240z"/>
		<path class="st4" d="M2697.4,261h-19.5l26.5-70h20l26.5,70h-19.5l-4.5-12.5h-25L2697.4,261z M2706.4,235.5h16l-8-23.5
			L2706.4,235.5z"/>
		<path class="st4" d="M2782.9,261h-18v-56h-21v-14h60v14h-21V261z"/>
		<path class="st4" d="M2866.4,261h-55.5v-70h55.5v14h-37.5v13.5h29.5v14h-29.5V247h37.5V261z"/>
		<path class="st4" d="M2965.4,261h-19l-24-42v42h-18v-70h19l24,42v-42h18V261z"/>
		<path class="st4" d="M3032.9,261h-55.5v-70h55.5v14h-37.5v13.5h29.5v14h-29.5V247h37.5V261z"/>
		<path class="st4" d="M3074.9,261h-18v-56h-21v-14h60v14h-21V261z"/>
		<path class="st4" d="M3153.9,191l12,45l10.5-45h19.5l-19,70h-19l-12-43.5l-12,43.5h-19l-19-70h19.5l10.5,45l12-45H3153.9z"/>
		<path class="st4" d="M3263.9,242c0,7-1.6,12.1-4.8,15.2c-3.2,3.2-8.2,4.8-15.2,4.8h-25c-7,0-12.1-1.6-15.2-4.8
			c-3.2-3.2-4.8-8.2-4.8-15.2v-32c0-7,1.6-12.1,4.8-15.2c3.2-3.2,8.2-4.8,15.2-4.8h25c7,0,12.1,1.6,15.2,4.8
			c3.2,3.2,4.8,8.2,4.8,15.2V242z M3245.9,210c0-4-2-6-6-6h-17c-4,0-6,2-6,6v32c0,4,2,6,6,6h17c4,0,6-2,6-6V210z"/>
		<path class="st4" d="M3273.9,191h42c7,0,12.1,1.6,15.2,4.8c3.2,3.2,4.8,8.2,4.8,15.2v9c0,5.5-0.9,9.8-2.8,12.9
			c-1.8,3.1-4.8,5.1-8.8,6.1l12.5,22h-19.5l-11.5-21h-14v21h-18v-70H3273.9z M3317.9,211c0-4-2-6-6-6h-20v21h20c4,0,6-2,6-6V211z"/>
		<path class="st4" d="M3363.9,261h-18v-70h18v27.5h9l15.6-27.5h19l-19.6,34.5l19.5,35.5h-19l-15.5-28.5h-9V261z"/>
	</g>
	<rect x="3383.5" y="519.4" class="st2" width="382.1" height="192.1"/>
	<g class="st3">
		<path class="st4" d="M3389.1,562.8l23.5-25.7v-0.4c-0.5,0-1,0.1-1.6,0.1c-0.5,0-1,0.1-1.6,0.1s-1.3,0-1.9,0h-17.7v-5.6h29.5v7.1
			l-23.7,25.7v0.4c0.5,0,1.1-0.1,1.7-0.1c0.5,0,1.1-0.1,1.7-0.1c0.6,0,1.2,0,1.9,0h19.2v5.6h-30.8v-7.1H3389.1z"/>
		<path class="st4" d="M3439.2,531.3v6.7h0.6c0.6-2.3,1.9-4.1,3.8-5.4c1.9-1.3,4.3-2,7.1-2c4.1,0,7.2,1.3,9.6,3.8
			c2.3,2.5,3.5,6,3.5,10.5v2.2h-6.3v-1.4c0-3-0.8-5.4-2.3-7c-1.5-1.7-3.7-2.5-6.5-2.5s-4.9,0.9-6.6,2.6c-1.6,1.7-2.4,4-2.4,7V570
			h-6.3v-38.5h5.8V531.3z"/>
		<path class="st4" d="M3488.5,570.5c-2.4,0-4.5-0.4-6.4-1c-1.9-0.7-3.5-1.7-4.8-3s-2.4-2.9-3.1-4.8c-0.7-1.9-1.1-3.9-1.1-6.2v-9.8
			c0-2.3,0.4-4.4,1.1-6.3c0.7-1.8,1.8-3.4,3.1-4.7s2.9-2.3,4.8-3c1.9-0.7,4-1,6.4-1c4.8,0,8.5,1.3,11.3,4s4.1,6.3,4.1,11v9.9
			c0,4.7-1.4,8.3-4.1,11C3497,569.1,3493.3,570.5,3488.5,570.5z M3479.4,555.4c0,2.9,0.8,5.2,2.4,6.9c1.6,1.7,3.8,2.5,6.7,2.5
			c2.8,0,5-0.8,6.7-2.5c1.6-1.7,2.5-4,2.5-6.9v-9.8c0-2.9-0.8-5.2-2.5-6.9c-1.6-1.7-3.9-2.5-6.7-2.5s-5,0.8-6.6,2.5s-2.5,4-2.5,6.9
			L3479.4,555.4L3479.4,555.4z"/>
		<path class="st4" d="M3516,519.4h6.3v28h7.6l11.8-16.1h7.2l-13.7,18.6l13.9,19.9h-7.3L3530,553h-7.6v16.8h-6.3L3516,519.4
			L3516,519.4z"/>
	</g>
	<g class="st3">
		<path class="st4" d="M3388.4,666.8h6.7c0,2.4,0.9,4.4,2.6,5.8c1.8,1.5,4.1,2.2,7,2.2c3,0,5.3-0.7,7-2.1c1.7-1.4,2.5-3.3,2.5-5.6
			c0-2.1-0.6-3.9-1.8-5.4c-1.2-1.6-2.9-2.7-5-3.5l-6-2.1c-7.7-2.8-11.5-7.5-11.5-14.2c0-4.1,1.3-7.4,4-9.7s6.3-3.6,10.9-3.6
			c2.2,0,4.3,0.3,6.1,0.9c1.8,0.6,3.4,1.5,4.8,2.7c1.3,1.2,2.4,2.6,3.1,4.2s1.1,3.5,1.2,5.5h-6.7c0-2.4-0.8-4.3-2.3-5.7
			c-1.6-1.4-3.6-2.1-6.2-2.1c-2.6,0-4.7,0.6-6.2,1.9c-1.5,1.3-2.3,3-2.3,5.2c0,2.1,0.6,3.8,1.7,5.1c1.1,1.4,2.9,2.5,5.5,3.4l6.2,2.2
			c3.5,1.3,6.3,3.2,8.2,5.7s2.8,5.6,2.8,9.1c0,4.2-1.4,7.5-4.3,9.9c-2.9,2.4-6.8,3.6-11.8,3.6c-2.4,0-4.5-0.3-6.5-1s-3.6-1.6-5-2.8
			s-2.5-2.6-3.3-4.3C3388.8,670.7,3388.4,668.9,3388.4,666.8z"/>
		<path class="st4" d="M3431.1,655.3c0-4.6,1.4-8.2,4.1-10.8c2.7-2.6,6.5-3.9,11.3-3.9s8.6,1.3,11.3,3.9c2.7,2.6,4.1,6.2,4.1,10.8
			v7.1h-24.5v3.1c0,2.9,0.8,5.2,2.4,6.9c1.6,1.7,3.8,2.5,6.7,2.5c2.1,0,3.9-0.3,5.5-1c1.5-0.7,2.7-1.6,3.4-2.9h6.3
			c-0.8,2.9-2.6,5.2-5.3,6.9s-6,2.5-9.9,2.5c-4.8,0-8.6-1.3-11.3-3.9c-2.7-2.6-4.1-6.2-4.1-10.8V655.3z M3437.4,657.1h18.2v-1.8
			c0-2.9-0.8-5.1-2.4-6.7c-1.6-1.6-3.8-2.4-6.7-2.4s-5.1,0.8-6.7,2.4c-1.6,1.6-2.4,3.8-2.4,6.7L3437.4,657.1L3437.4,657.1z"/>
		<path class="st4" d="M3481.2,641.3v6.7h0.6c0.6-2.3,1.9-4.1,3.8-5.4c1.9-1.3,4.3-2,7.1-2c4.1,0,7.2,1.3,9.6,3.8
			c2.3,2.5,3.5,6,3.5,10.5v2.2h-6.3v-1.4c0-3-0.8-5.4-2.3-7c-1.5-1.7-3.7-2.5-6.5-2.5s-4.9,0.9-6.6,2.6c-1.6,1.7-2.4,4-2.4,7V680
			h-6.3v-38.5h5.8V641.3z"/>
		<path class="st4" d="M3513,641.3h6.6l9.4,27.2c0.4,1.1,0.7,2,0.8,2.8c0.2,0.8,0.3,1.5,0.4,2.1c0.1,0.7,0.1,1.3,0.1,1.8h0.6
			c0-0.5,0-1.1,0.1-1.8c0.1-0.6,0.2-1.2,0.3-2.1c0.1-0.8,0.4-1.8,0.8-2.8l8.9-27.2h6.9l-13.8,38.5h-7.1L3513,641.3z"/>
		<path class="st4" d="M3558.1,679.8V674h14v-27h-12.2v-5.7h18.5V674h11.5v5.7L3558.1,679.8L3558.1,679.8z M3573.5,626.2h1.4
			c1.4,0,2.5,0.4,3.3,1.2s1.3,1.8,1.3,3.1s-0.4,2.3-1.3,3s-1.9,1.1-3.3,1.1h-1.4c-1.4,0-2.4-0.4-3.3-1.1c-0.8-0.7-1.3-1.7-1.3-3
			s0.4-2.3,1.3-3.1C3571.1,626.6,3572.2,626.2,3573.5,626.2z"/>
		<path class="st4" d="M3615,680.5c-2.4,0-4.5-0.4-6.4-1c-1.9-0.7-3.5-1.7-4.8-3s-2.4-2.9-3.1-4.8c-0.7-1.9-1.1-3.9-1.1-6.2v-9.8
			c0-2.3,0.4-4.4,1.1-6.2c0.7-1.9,1.8-3.5,3.1-4.8s2.9-2.3,4.8-3c1.9-0.7,4-1,6.4-1c4.2,0,7.7,1.2,10.5,3.5c2.7,2.3,4.4,5.5,4.9,9.5
			h-6.3c-0.3-2.2-1.3-4-3-5.4c-1.7-1.3-3.7-2-6.1-2c-2.8,0-5,0.8-6.7,2.5c-1.6,1.7-2.5,4-2.5,6.9v9.8c0,2.9,0.8,5.2,2.4,6.9
			c1.6,1.7,3.8,2.5,6.7,2.5c2.4,0,4.5-0.7,6.1-2c1.7-1.3,2.6-3.1,3-5.4h6.3c-0.6,4.1-2.3,7.2-5,9.5
			C3622.7,679.3,3619.2,680.5,3615,680.5z"/>
		<path class="st4" d="M3641.1,655.3c0-4.6,1.4-8.2,4.1-10.8c2.7-2.6,6.5-3.9,11.3-3.9s8.6,1.3,11.3,3.9c2.7,2.6,4.1,6.2,4.1,10.8
			v7.1h-24.5v3.1c0,2.9,0.8,5.2,2.4,6.9c1.6,1.7,3.8,2.5,6.7,2.5c2.1,0,3.9-0.3,5.5-1c1.5-0.7,2.7-1.6,3.4-2.9h6.3
			c-0.8,2.9-2.6,5.2-5.3,6.9s-6,2.5-9.9,2.5c-4.8,0-8.6-1.3-11.3-3.9c-2.7-2.6-4.1-6.2-4.1-10.8V655.3z M3647.4,657.1h18.2v-1.8
			c0-2.9-0.8-5.1-2.4-6.7c-1.6-1.6-3.8-2.4-6.7-2.4s-5.1,0.8-6.7,2.4c-1.6,1.6-2.4,3.8-2.4,6.7L3647.4,657.1L3647.4,657.1z"/>
	</g>
	<g class="st3">
		<path class="st6" d="M156.2,207.7v-6h14.5v-37.9c0-0.4,0-0.9,0-1.4s0-1,0-1.5s0-1,0.1-1.7h-0.1c-0.4,0.3-0.7,0.6-1.1,0.8
			c-0.3,0.3-0.6,0.5-0.9,0.8c-0.3,0.3-0.6,0.5-0.9,0.7l-10.6,7.2V162l11.6-8.2h8.6v48h12.1v6h-33.3V207.7z"/>
	</g>
	<rect x="2115.1" y="153.7" class="st2" width="128.6" height="77.1"/>
	<g class="st3">
		<path class="st4" d="M2120,168c0.1-2.2,0.6-4.3,1.4-6.2c0.8-1.8,2-3.4,3.6-4.7c1.5-1.3,3.3-2.3,5.4-3c2.1-0.7,4.4-1.1,6.9-1.1
			s4.7,0.4,6.8,1c2,0.7,3.7,1.7,5.1,3c1.4,1.3,2.5,2.9,3.3,4.7s1.2,3.9,1.2,6.2c0,4-1.1,8-3.3,11.7c-2.2,3.8-5.8,7.8-10.6,12
			l-9.1,7.9c-0.3,0.2-0.5,0.4-0.8,0.6c-0.3,0.2-0.6,0.4-0.9,0.6c-0.4,0.2-0.8,0.5-1.1,0.7v0.3c0.8,0,1.6-0.1,2.3-0.1
			s1.4-0.1,2.1-0.1c0.7,0,1.4,0,2,0h20v6.2h-34v-7.5l14.2-12.2c2.1-1.8,4-3.6,5.5-5.2c1.5-1.7,2.8-3.3,3.7-4.9
			c0.9-1.6,1.7-3.2,2.1-4.8c0.4-1.6,0.7-3.3,0.7-5c0-2.8-0.8-5-2.5-6.6s-3.9-2.4-6.8-2.4c-3.2,0-5.7,0.8-7.5,2.5
			c-1.9,1.7-2.8,3.8-2.8,6.5L2120,168L2120,168z"/>
	</g>
	<g>
		<path class="st7" d="M1611.4,1009.6c136.2-136.2,136.2-357.2,0-493.4s-357.2-136.2-493.4,0s-136.2,357.2,0,493.4
			S1475.2,1145.9,1611.4,1009.6z"/>
		<path class="st8" d="M1506.4,904.7c-116,116-297.2,135.4-435.2,46.7c103.9,162.3,319.7,209.6,481.9,105.7s209.6-319.7,105.7-481.9
			c-27.2-42.5-63.2-78.5-105.7-105.7C1641.9,607.5,1622.4,788.7,1506.4,904.7z"/>
		<path class="st9" d="M1611.4,1009.6c136.2-136.2,136.2-357.2,0-493.4s-357.2-136.2-493.4,0s-136.2,357.2,0,493.4
			S1475.2,1145.9,1611.4,1009.6z"/>
	</g>
	<rect x="1019.1" y="504.9" class="st2" width="690.7" height="120.6"/>
	<g class="st3">
		<path d="M1202.1,553l24.1-25.9v-0.5c-0.6,0.1-1.3,0.2-2,0.2c-0.6,0.1-1.3,0.2-2,0.2c-0.7,0.1-1.5,0.1-2.4,0.1h-17v-8.7h35.1v9.5
			l-24.2,25.9v0.6c0.6-0.2,1.3-0.3,2-0.4c0.6-0.1,1.3-0.2,2.1-0.2c0.8-0.1,1.5-0.1,2.3-0.1h18.7v8.7h-36.6L1202.1,553L1202.1,553z"
			/>
		<path d="M1261.5,518.5v7.6h0.7c0.5-2.7,1.9-4.7,4-6.2s4.9-2.2,8.2-2.2c4.7,0,8.5,1.5,11.1,4.4c2.7,2.9,4,7,4,12.2v3.2H1279v-2.3
			c0-2.8-0.8-5-2.3-6.6s-3.7-2.4-6.4-2.4c-2.6,0-4.6,0.8-6,2.4c-1.5,1.6-2.2,3.8-2.2,6.6v27.4h-10v-44h9.4V518.5z"/>
		<path d="M1316.4,563.3c-2.9,0-5.5-0.4-7.9-1.3c-2.4-0.9-4.4-2-6-3.6c-1.7-1.5-2.9-3.3-3.8-5.5c-0.9-2.1-1.4-4.5-1.4-7.1V535
			c0-2.6,0.5-5,1.4-7.1s2.2-4,3.8-5.5c1.7-1.5,3.7-2.7,6-3.5c2.4-0.8,5-1.2,7.9-1.2s5.5,0.4,7.9,1.2s4.4,2,6,3.5
			c1.7,1.5,2.9,3.3,3.8,5.5c0.9,2.1,1.4,4.5,1.4,7.1v10.8c0,2.6-0.5,5-1.4,7.2s-2.2,4-3.8,5.5c-1.7,1.5-3.7,2.7-6,3.5
			C1322,562.9,1319.4,563.3,1316.4,563.3z M1307.3,545.8c0,2.7,0.8,4.8,2.4,6.3s3.9,2.3,6.7,2.3c2.8,0,5.1-0.8,6.7-2.3
			s2.4-3.7,2.4-6.3V535c0-2.7-0.8-4.8-2.4-6.3s-3.9-2.3-6.7-2.3c-2.8,0-5.1,0.8-6.7,2.3s-2.4,3.7-2.4,6.3V545.8z"/>
		<path d="M1346.8,504.9h10v31h7l11-17.4h11.2l-13.6,21.4l13.8,22.6h-11.4l-11-18.1h-7v18.1h-10V504.9z"/>
		<path d="M1404.7,555.4c0-2.4,0.7-4.3,2.1-5.7s3.3-2.1,5.6-2.1c2.4,0,4.3,0.7,5.7,2.1c1.4,1.4,2.1,3.3,2.1,5.7
			c0,2.3-0.7,4.2-2.1,5.7c-1.4,1.4-3.3,2.2-5.7,2.2c-2.3,0-4.2-0.7-5.6-2.2C1405.4,559.7,1404.7,557.8,1404.7,555.4z"/>
		<path d="M1443.1,553.4h15.8v-25.8h-13.8v-9h23.4v34.9h12.7v9.1h-38.1V553.4z M1456,506.6c0-1.5,0.5-2.8,1.6-3.8
			c1-1,2.4-1.5,4.1-1.5h2.1c1.7,0,3.1,0.5,4.1,1.5s1.6,2.3,1.6,3.8c0,1.6-0.5,2.9-1.6,3.8s-2.4,1.4-4.2,1.4h-2
			c-1.7,0-3.1-0.5-4.1-1.4S1456,508.2,1456,506.6z"/>
		<path d="M1508.4,563.3c-2.9,0-5.5-0.4-7.9-1.3c-2.4-0.9-4.4-2-6-3.6c-1.7-1.5-2.9-3.3-3.8-5.5c-0.9-2.1-1.4-4.5-1.4-7.1V535
			c0-2.6,0.5-5,1.4-7.1s2.2-4,3.8-5.5c1.7-1.5,3.7-2.7,6-3.5c2.4-0.8,5-1.2,7.9-1.2s5.5,0.4,7.9,1.2s4.4,2,6,3.5
			c1.7,1.5,2.9,3.3,3.8,5.5c0.9,2.1,1.4,4.5,1.4,7.1v10.8c0,2.6-0.5,5-1.4,7.2s-2.2,4-3.8,5.5c-1.7,1.5-3.7,2.7-6,3.5
			C1514,562.9,1511.4,563.3,1508.4,563.3z M1499.3,545.8c0,2.7,0.8,4.8,2.4,6.3s3.9,2.3,6.7,2.3c2.8,0,5.1-0.8,6.7-2.3
			s2.4-3.7,2.4-6.3V535c0-2.7-0.8-4.8-2.4-6.3s-3.9-2.3-6.7-2.3c-2.8,0-5.1,0.8-6.7,2.3s-2.4,3.7-2.4,6.3V545.8z"/>
	</g>
	<g>
		<rect x="1300.7" y="779.5" class="st10" width="136.8" height="72.7"/>
		<polygon class="st10" points="1446.8,1043.3 1452.5,1037.2 1451.2,1031.9 1449,1027.7 1437.4,928.6 1308.1,930.5 1296.1,1027.7 
			1293.3,1034.8 1299.1,1040.5 1324.2,1039 1338.5,1041.2 1345.2,1040.8 1349.9,1034.8 1346.8,1028.3 1368.7,955.4 1377.8,956.4 
			1377.6,961.8 1396.3,1029.4 1395.9,1034.8 1400.1,1040.8 1409.8,1046 		"/>
		<g>
			<g>
				<path class="st11" d="M1440.9,795.4c3.4,0.8,36.5,9.8,43,21.4c6.5,11.6,25.6,62.1,25.4,74.8c0,1.2,0.2,33.4-2.1,41.7
					c-1.1,3.8-21.9,3-28,1.5c-2-0.5,0.7-17.4,0-28.7c-1.3-20.9-6.4-33.4-7.5-30.5c-3.1,7.9-26.7,20.6-26.7,20.6"/>
				<path class="st12" d="M1508.1,928.1c-0.2,2.1-0.5,3.9-0.9,5.2c-1.1,3.8-21.9,3-28,1.5c-2-0.5,0.7-17.4,0-28.7
					c-1.3-20.9-6.4-33.4-7.5-30.5c-3.1,7.9-19.9,27-19.9,27l-4.3,1.6c-1-1,1.4-10.1,1-11c-4.9-10,18.8-33.6,22.1-37.2
					c3.3-3.7,6.5,1.6,6.3,8.3s0,8.1,0,8.1c11.4,47,6.6,57.5,6.6,57.5s2.2,0.8,11,0.6c8.7-0.2,12-2.9,12-2.9L1508.1,928.1z"/>
				<path class="st13" d="M1440.5,907c-20.7-34.2,25.8-7.5,27.8-23.6c0-0.1,0-0.1,0-0.2c0.6-6.3,1.7-14,2.4-19
					c0.4-2.8,0.7-4.7,0.7-4.9c0-1,0.8-1.8,1.8-1.8s1.8,0.8,1.8,1.8c0,0.5-0.3,2.5-0.7,5.4c-0.3,2.1-0.7,4.7-1.1,7.5
					c0.9,1.9,2,4.1,2.5,5.4c1.6,4.1,3.6,11.9,4.7,22.2c0.2,2,0.4,4,0.5,6.1c0.3,5.2,0,11.5-0.4,17c-0.3,5.7-0.4,10.3-0.1,10.3
					c3.4,0.8,10.8,1.3,17.4,0.9c4.2-0.2,7.5-0.6,7.6-1.3c2.1-7.4,2.1-34.6,2.1-40.3c0-0.6,0-0.9,0-1c0.1-5.3-3.4-17.7-7.9-31
					c-5.9-17.5-13.6-36.4-17.3-42.8c-2.1-3.7-7.4-7.2-13.5-10.3c-11.7-5.8-26.3-9.7-28.4-10.2 M1441.3,793.7
					c2.2,0.5,17.1,4.5,29.1,10.5c6.7,3.3,12.5,7.3,15,11.7c3.7,6.6,11.5,25.8,17.5,43.4c4.6,13.6,8.2,26.5,8.1,32.2c0,0.1,0,0.4,0,1
					c0,5.7,0,33.4-2.2,41.2c-0.7,2.5-5.3,3.6-10.9,3.9c-6.9,0.4-15.6-0.3-19.3-1.2c-2.6-0.6-2.2-6.5-1.8-13.8
					c0.3-5.3,0.7-11.5,0.4-16.5c-0.8-12.8-3-22.4-4.9-27.1c-0.2,1.1-9.9,0.2-10.1,1.6 M1453.1,887.6l10.6-3.6
					c-1.8,15-18.8,25.8-18.9,28"/>
				<path class="st11" d="M1506.1,935.2L1506.1,935.2c-6.1,1.6-19.4,1.1-25.7,0h-0.8V952c0,5.3,4.4,9.7,9.7,9.7h7.1
					c5.3,0,9.7-4.4,9.7-9.7L1506.1,935.2L1506.1,935.2z"/>
				<path class="st12" d="M1506.1,935.2L1506.1,935.2c-6.1,1.6-19.4,1.1-25.7,0h-0.8V952c0,2.7,3.3,5.7,5.2,7.5
					c0.3-1.2,0.5-2.2,0.5-2.9v-15.1h0.8c5.3,0.9,13.3,0.9,20,0.1V935.2z"/>
				<path class="st13" d="M1508,933.3v1.9V952c0,3.2-1.3,6.1-3.4,8.2c-2.1,2.1-5,3.4-8.2,3.4h-7.1c-3.2,0-6.1-1.3-8.2-3.4
					c-2.1-2.1-3.4-5-3.4-8.2v-16.8v-1.9h1.9h0.8h0.1h0.2c3.4,0.6,8.8,1,14,1c4.2,0,8.3-0.3,10.9-1l0.3-0.1h0.2l0,0L1508,933.3
					L1508,933.3z M1494.8,938.2c-4.7,0-9.7-0.3-13.2-0.8V952c0,2.1,0.9,4.1,2.3,5.5s3.4,2.3,5.5,2.3h7.1c2.1,0,4.1-0.9,5.5-2.3
					c1.4-1.4,2.3-3.4,2.3-5.5v-14.4C1501.5,938,1498.2,938.2,1494.8,938.2L1494.8,938.2z"/>
			</g>
			<g>
				<path class="st11" d="M1300.7,796.5c-3.4,0.8-36.5,9.8-43,21.4c-6.5,11.6-25.6,62.1-25.4,74.8c0,1.2-0.2,33.4,2.1,41.7
					c1.1,3.8,21.9,3,28,1.5c2-0.5-0.7-17.4,0-28.7c1.3-20.9,6.4-33.4,7.5-30.5c3.1,7.9,26.7,20.6,26.7,20.6"/>
				<path class="st12" d="M1233.5,929.2c0.2,2.1,0.5,3.9,0.9,5.2c1.1,3.8,21.9,3,28,1.5c2-0.5-0.7-17.4,0-28.7
					c1.3-20.9,6.4-33.4,7.5-30.5c3.1,7.9,19.9,27,19.9,27l4.3,1.6c1-1-1.4-10.1-1-11c4.9-10-18.8-33.6-22.1-37.2
					c-3.3-3.7-6.5,1.6-6.3,8.3s0,8.1,0,8.1c-11.4,47-6.6,57.5-6.6,57.5s-2.2,0.8-11,0.6c-8.7-0.2-12-2.9-12-2.9L1233.5,929.2z"/>
				<path class="st13" d="M1301.1,798.2c-2.2,0.5-16.7,4.4-28.4,10.2c-6.1,3-11.4,6.6-13.5,10.3c-3.6,6.5-11.3,25.4-17.3,42.8
					c-4.5,13.3-8,25.7-7.9,31c0,0.1,0,0.5,0,1c0,5.6,0,32.9,2.1,40.3c0.2,0.7,3.5,1.1,7.6,1.3c6.6,0.3,13.9-0.1,17.4-0.9
					c0.3-0.1,0.3-4.6-0.1-10.3c-0.3-5.4-0.7-11.7-0.4-17c0.1-2.1,0.3-4.2,0.5-6.1c1.1-10.3,3-18.1,4.7-22.2c0.5-1.3,1.6-3.5,2.5-5.4
					c-0.4-2.8-0.8-5.4-1.1-7.5c-0.4-2.9-0.7-5-0.7-5.4c0-1,0.8-1.8,1.8-1.8s1.8,0.8,1.8,1.8c0,0.3,0.3,2.2,0.7,4.9
					c0.7,5,1.8,12.7,2.4,19c0,0.1,0,0.1,0,0.2c2,16.2,48.5-10.6,27.8,23.6 M1279.2,881.7c-0.2-1.4-9.9-0.5-10.1-1.6
					c-1.8,4.7-4,14.2-4.9,27.1c-0.3,5,0,11.2,0.4,16.5c0.4,7.3,0.8,13.2-1.8,13.8c-3.7,0.9-12.4,1.6-19.3,1.2
					c-5.6-0.3-10.2-1.4-10.9-3.9c-2.2-7.8-2.2-35.5-2.2-41.2c0-0.5,0-0.9,0-1c-0.1-5.7,3.5-18.6,8.1-32.2
					c6-17.7,13.8-36.8,17.5-43.4c2.5-4.4,8.3-8.4,15-11.7c12-6,26.9-10,29.1-10.5 M1296.7,913.1c-0.1-2.2-17-13-18.9-28l10.6,3.6"/>
				<path class="st11" d="M1235.4,936.3L1235.4,936.3c6.1,1.6,19.4,1.1,25.7,0h0.8V953c0,5.3-4.4,9.7-9.7,9.7h-7.1
					c-5.3,0-9.7-4.4-9.7-9.7L1235.4,936.3L1235.4,936.3z"/>
				<path class="st12" d="M1235.4,936.3L1235.4,936.3c6.1,1.6,19.4,1.1,25.7,0h0.8V953c0,2.7-3.3,5.7-5.2,7.5
					c-0.3-1.2-0.5-2.2-0.5-2.9v-15.1h-0.8c-5.3,0.9-13.3,0.9-20,0.1V936.3z"/>
				<path class="st13" d="M1235.4,934.4L1235.4,934.4h0.2l0.3,0.1c2.6,0.7,6.6,1,10.9,1c5.2,0,10.6-0.4,14-1h0.2h0.1h0.8h1.9v1.9
					V953c0,3.2-1.3,6.1-3.4,8.2c-2.1,2.1-5,3.4-8.2,3.4h-7.1c-3.2,0-6.1-1.3-8.2-3.4c-2.1-2.1-3.4-5-3.4-8.2v-16.8v-1.9h1.9
					L1235.4,934.4L1235.4,934.4z M1246.8,939.2c-3.4,0-6.7-0.2-9.4-0.6V953c0,2.1,0.9,4.1,2.3,5.5s3.4,2.3,5.5,2.3h7.1
					c2.1,0,4.1-0.9,5.5-2.3c1.4-1.4,2.3-3.4,2.3-5.5v-14.6C1256.5,938.9,1251.5,939.2,1246.8,939.2L1246.8,939.2z"/>
			</g>
			<g>
				<path class="st12" d="M1296.1,1027.7h52.5l20.1-72.3c1.9,0.3,5.1,0.3,7,0l21.2,72.3h52.1l-0.5-3.5c-0.9-0.3-1.6-0.4-2.1-0.3
					c-5.7,1.4-40.7,0.4-43.8-0.2c-3.1-0.6-20.1-62.6-20.5-65.2c-0.4-2.6,4.3-1.4,7.5-7.5c3.3-6.1-5.5-5.9-5.5-5.9
					c-12.2,5.7-25.2-0.6-25.2-0.6c-11.5,7.4,1.9,12.6,3,14.5c1,1.8-17.1,63.8-19.3,65.6c-2.2,1.8-43.6,0.6-43.6,0.6
					s-0.9,0.2-2.5,0.5L1296.1,1027.7z"/>
				<path class="st13" d="M1309,939.5L1309,939.5v0.2l-11.5,88.6h49.4l19.8-71.8c-4.5-1.1-6.8-3.3-6.8-3.3c-0.7-0.7-0.7-1.8-0.1-2.5
					c0.7-0.7,1.8-0.7,2.5-0.1c0,0,3.4,3.3,10.6,2.9c7.3-0.4,10.8-3.8,10.8-3.8c0.7-0.7,1.8-0.6,2.5,0.1c0.7,0.7,0.6,1.8-0.1,2.5
					c0,0-2.8,2.7-8.2,4l20,72h49.4l-9.4-89.2 M1440.6,939.1l10.4,90.8l0.3,2h-2h-52.7h-1.4l-0.4-1.3l-20.3-73.3
					c-0.7,0-1.4,0.1-2.2,0.1s-1.5,0-2.2-0.1l-20.2,73.3l-0.4,1.3h-1.4h-52.7h-2l0.3-2l11.8-90.4"/>
				<path class="st14" d="M1299.1,1040.5h45c3.2,0,5.8-2.6,5.8-5.8l0,0c0-3.2-2.6-5.8-5.8-5.8h-45c-3.2,0-5.8,2.6-5.8,5.8l0,0
					C1293.3,1037.9,1296,1040.5,1299.1,1040.5L1299.1,1040.5z"/>
				<path class="st13" d="M1299.1,1038.7h45c1.1,0,2.1-0.4,2.8-1.2c0.7-0.7,1.2-1.7,1.2-2.8c0-1.1-0.5-2.1-1.2-2.8
					c-0.7-0.7-1.7-1.2-2.8-1.2h-45c-1.1,0-2.1,0.4-2.8,1.2c-0.7,0.7-1.2,1.7-1.2,2.8c0,1.1,0.5,2.1,1.2,2.8
					C1297,1038.3,1298,1038.7,1299.1,1038.7L1299.1,1038.7z M1344.1,1042.3h-45c-2.1,0-4-0.8-5.4-2.2c-1.4-1.4-2.2-3.2-2.2-5.3
					c0-2.1,0.9-4,2.2-5.3c1.4-1.4,3.3-2.2,5.4-2.2h45c2.1,0,4,0.8,5.4,2.2c1.4,1.4,2.2,3.2,2.2,5.3c0,2.1-0.9,4-2.2,5.3
					C1348.1,1041.4,1346.2,1042.3,1344.1,1042.3L1344.1,1042.3z"/>
				<path class="st11" d="M1292.4,1069.8h56.4v-16.3c0-9-7.4-16.3-16.4-16.3h-23.6c-9,0-16.4,7.3-16.4,16.3V1069.8z"/>
				<path class="st13" d="M1294.1,1068h52.8v-14.5c0-4-1.6-7.6-4.3-10.2c-2.7-2.6-6.3-4.3-10.3-4.3h-23.6c-4,0-7.7,1.6-10.3,4.3
					c-2.6,2.6-4.3,6.3-4.3,10.2L1294.1,1068L1294.1,1068z M1348.7,1071.6h-56.4h-1.8v-1.8v-16.3c0-5,2-9.5,5.3-12.7
					c3.3-3.3,7.8-5.3,12.8-5.3h23.6c5,0,9.5,2,12.8,5.3s5.3,7.8,5.3,12.7v16.3v1.8H1348.7z"/>
				<path class="st14" d="M1401.7,1040.5h45c3.2,0,5.8-2.6,5.8-5.8l0,0c0-3.2-2.6-5.8-5.8-5.8h-45c-3.2,0-5.8,2.6-5.8,5.8l0,0
					C1395.9,1037.9,1398.5,1040.5,1401.7,1040.5L1401.7,1040.5z"/>
				<path class="st13" d="M1401.7,1038.7h45c1.1,0,2.1-0.4,2.8-1.2c0.7-0.7,1.2-1.7,1.2-2.8c0-1.1-0.5-2.1-1.2-2.8
					c-0.7-0.7-1.7-1.2-2.8-1.2h-45c-1.1,0-2.1,0.4-2.8,1.2c-0.7,0.7-1.2,1.7-1.2,2.8c0,1.1,0.5,2.1,1.2,2.8
					C1399.6,1038.3,1400.6,1038.7,1401.7,1038.7L1401.7,1038.7z M1446.7,1042.3h-45c-2.1,0-4-0.8-5.4-2.2c-1.4-1.4-2.2-3.2-2.2-5.3
					c0-2.1,0.9-4,2.2-5.3c1.4-1.4,3.3-2.2,5.4-2.2h45c2.1,0,4,0.8,5.4,2.2c1.4,1.4,2.2,3.2,2.2,5.3c0,2.1-0.9,4-2.2,5.3
					C1450.7,1041.4,1448.8,1042.3,1446.7,1042.3L1446.7,1042.3z"/>
				<path class="st11" d="M1396.5,1069.8h56.4v-16.3c0-9-7.4-16.3-16.4-16.3h-23.6c-9,0-16.4,7.3-16.4,16.3V1069.8z"/>
				<path class="st14" d="M1452.9,1069.3h-56.4V1053c0-4.5,1.8-8.5,4.8-11.5c1.1-0.2,2.2-0.3,3.2-0.4c0.5,0-0.5,3.1-0.5,5.3v16.3
					h48.9V1069.3z"/>
				<path class="st13" d="M1398.3,1068h52.8v-14.5c0-4-1.6-7.6-4.3-10.2c-2.6-2.6-6.3-4.3-10.3-4.3h-23.6c-4,0-7.7,1.6-10.3,4.3
					c-2.6,2.6-4.3,6.3-4.3,10.2L1398.3,1068L1398.3,1068z M1452.9,1071.6h-56.4h-1.8v-1.8v-16.3c0-5,2-9.5,5.3-12.7
					c3.3-3.3,7.8-5.3,12.8-5.3h23.6c5,0,9.5,2,12.8,5.3s5.3,7.8,5.3,12.7v16.3v1.8H1452.9z"/>
				<path class="st14" d="M1347,1068.5h-53.1v-15.4c0-4.2,1.7-8.1,4.5-10.9c1.1-0.2,2.1-0.3,3-0.3c0.5,0-0.5,2.9-0.5,5v15.4h46.1
					V1068.5z"/>
			</g>
			<path class="st15" d="M1262.4,786.4c-3.2-4.3-6.2-4.9-5.4-23.1c0.7-11.2-1.8-30.4,12.9-26.5l0.2,70.3l-20,26.4
				c0,0-2.1-34.3,0.3-40.8C1252.8,786.1,1259.2,786.2,1262.4,786.4L1262.4,786.4z"/>
			<path class="st14" d="M1270.1,803.3v5.4l-20,25.4c0,0-0.8-12.9-0.9-24.2c4.2-3.2,9-6.3,14-9.1c-0.2-1.5-0.3-3-0.3-4.5v-60.7
				c1.7-0.8,4-1,7-0.2L1270.1,803.3L1270.1,803.3z"/>
			<path class="st13" d="M1264.5,785c-0.5-0.7-0.9-1.2-1.4-1.8c-2.3-2.8-4.2-5.1-3.6-19.8l0,0c0.1-1.7,0.1-3.8,0.2-5.9
				c0.1-4.7,0.2-9.9,1.3-13.7c0.9-3.2,2.8-5.4,6.5-5l0.2,67.5l-15.4,20.3c-0.5-10.2-1.1-28.7,0.5-33.1c0.9-2.4,2.5-3.6,4.2-4.2
				c1.9-0.6,4-0.6,5.4-0.5l5.2,0.3L1264.5,785z M1254.5,763.1c-0.5,13.4,0.9,17.9,3,21c-0.7,0.1-1.5,0.3-2.2,0.5
				c-2.9,1-5.7,3-7.3,7.1c-2.6,7-0.5,41.7-0.5,41.8l0.4,6.7l4.1-5.4l20-26.4l0.5-0.7v-0.8l-0.2-70.3v-1.9l-1.8-0.5
				c-8.7-2.4-12.6,1.6-14.5,8c-1.3,4.4-1.4,9.9-1.4,15C1254.7,759.4,1254.6,761.3,1254.5,763.1L1254.5,763.1z"/>
			<path class="st15" d="M1308.9,723.8h-25.6c-7.4,0-13.4,5.8-13.4,13v68c0,7.2,6,13,13.4,13h25.6c7.4,0,13.4-5.9,13.4-13v-68
				C1322.2,729.6,1316.2,723.8,1308.9,723.8L1308.9,723.8z"/>
			<path class="st14" d="M1269.9,800.9v9.5c0,7.2,6,13,13.4,13h25.6c7.4,0,13.4-5.8,13.4-13V808c0.2,0.1,0.5,0.2,0.7,0.3V741
				c0-7.1-6-13-13.4-13H1284c-7.4,0-13.4,5.9-13.4,13v23c6.2,9.6,13.9,18.5,23.2,26.2C1286.9,792.9,1278.3,796.5,1269.9,800.9
				L1269.9,800.9z"/>
			<path class="st13" d="M1309.6,721.3H1284c-4.4,0-8.3,1.7-11.2,4.5c-2.9,2.8-4.7,6.7-4.7,10.9v68c0,4.2,1.8,8.1,4.7,10.9
				c2.9,2.8,6.9,4.5,11.2,4.5h25.6c4.4,0,8.3-1.7,11.2-4.5c2.9-2.8,4.7-6.7,4.7-10.9v-68c0-4.2-1.8-8.1-4.7-10.9
				C1317.9,723.1,1313.9,721.3,1309.6,721.3L1309.6,721.3z M1284,726.2h25.6c3,0,5.7,1.2,7.7,3.1c2,1.9,3.2,4.6,3.2,7.5v68
				c0,2.9-1.2,5.5-3.2,7.5c-2,1.9-4.7,3.1-7.7,3.1H1284c-3,0-5.7-1.2-7.7-3.1c-2-1.9-3.2-4.6-3.2-7.5v-68c0-2.9,1.2-5.5,3.2-7.5
				C1278.3,727.4,1281,726.2,1284,726.2L1284,726.2z"/>
			<path class="st15" d="M1479.3,786.4c3.2-4.3,6.2-4.9,5.4-23.1c-0.7-11.2,1.8-30.4-12.9-26.5l-0.2,70.3l20,26.4
				c0,0,2.1-34.3-0.3-40.8C1489,786.1,1482.6,786.2,1479.3,786.4L1479.3,786.4z"/>
			<path class="st14" d="M1471.7,805.4v5.4l20,25.7c0,0,0.8-13.1,0.9-24.4c-4.2-3.3-8.9-6.3-13.9-9.1c0.2-1.5,0.2-3.1,0.2-4.6V737
				c-1.7-0.8-4-1-7-0.2L1471.7,805.4L1471.7,805.4z"/>
			<path class="st13" d="M1477.3,785c0.5-0.7,0.9-1.2,1.4-1.8c2.3-2.8,4.2-5.1,3.6-19.8l0,0c-0.1-1.7-0.1-3.8-0.2-5.9
				c-0.1-4.7-0.2-9.9-1.3-13.7c-0.9-3.2-2.8-5.4-6.5-5l-0.2,67.5l15.4,20.3c0.5-10.2,1.1-28.7-0.5-33.1c-0.9-2.4-2.5-3.6-4.2-4.2
				c-1.9-0.6-4-0.6-5.4-0.5l-5.2,0.3L1477.3,785z M1487.3,763.1c0.6,13.4-0.9,17.9-3,21c0.7,0.1,1.5,0.3,2.2,0.5
				c2.9,1,5.7,3,7.3,7.1c2.6,7,0.5,41.7,0.5,41.8l-0.4,6.7l-4.1-5.4l-20-26.4l-0.5-0.7v-0.8l0.2-70.3v-1.9l1.8-0.5
				c8.7-2.4,12.6,1.6,14.5,8c1.3,4.4,1.4,9.9,1.4,15C1487.1,759.4,1487.2,761.3,1487.3,763.1L1487.3,763.1z"/>
			<path class="st15" d="M1432.9,723.8h25.6c7.4,0,13.4,5.8,13.4,13v68c0,7.2-6,13-13.4,13h-25.6c-7.4,0-13.4-5.9-13.4-13v-68
				C1419.6,729.6,1425.6,723.8,1432.9,723.8L1432.9,723.8z"/>
			<path class="st14" d="M1471.9,800.9v9.5c0,7.2-6,13-13.4,13h-25.6c-7.4,0-13.4-5.8-13.4-13v-25.9c7.4,0.1,12.4,0.3,13.3,0.5
				C1434.7,785.5,1453.6,791.4,1471.9,800.9L1471.9,800.9z"/>
			<path class="st13" d="M1432.2,721.3h25.6c4.4,0,8.3,1.7,11.2,4.5c2.9,2.8,4.7,6.7,4.7,10.9v68c0,4.2-1.8,8.1-4.7,10.9
				c-2.9,2.8-6.9,4.5-11.2,4.5h-25.6c-4.4,0-8.3-1.7-11.2-4.5c-2.9-2.8-4.7-6.7-4.7-10.9v-68c0-4.2,1.8-8.1,4.7-10.9
				C1423.9,723.1,1427.9,721.3,1432.2,721.3L1432.2,721.3z M1457.8,726.2h-25.6c-3,0-5.7,1.2-7.7,3.1c-2,1.9-3.2,4.6-3.2,7.5v68
				c0,2.9,1.2,5.5,3.2,7.5c2,1.9,4.7,3.1,7.7,3.1h25.6c3,0,5.7-1.2,7.7-3.1c2-1.9,3.2-4.6,3.2-7.5v-68c0-2.9-1.2-5.5-3.2-7.5
				C1463.5,727.4,1460.8,726.2,1457.8,726.2L1457.8,726.2z"/>
			<g>
				
					<ellipse transform="matrix(0.9999 -1.050218e-02 1.050218e-02 0.9999 -9.6597 14.4763)" class="st16" cx="1373.5" cy="927" rx="80.8" ry="34.9"/>
			</g>
			<path class="st12" d="M1415,802c-4.2-1.3-7.1-2.1-7.7-2.2c-3-0.6-69.7-0.6-72.7,0c-1.2,0.2-6.9,1.5-13.6,3.4
				C1348.5,819.3,1386.6,819.6,1415,802L1415,802z"/>
			<path class="st17" d="M1271.1,828l0.8,78.1c0.2,23.4,45.6,42,101.2,41.4c55.7-0.6,98.5-20.1,100.3-43.5
				c0.2-2.2-0.1-36.8-0.6-82.3l-0.8-16.8c0.2,23.4-42.1,11.3-97.7,11.9c-55.7,0.6-103.6,11.3-103.8-12.1L1271.1,828z"/>
			<g>
				<g>
					<path class="st12" d="M1431.6,794.7c-8.8-3.8-15.9-6.1-16.9-6.3c-12.2,16.1-8.4,98.7-10.4,101.1c-2,2.4-2.6,9.5-1.5,16.7
						c1.1,7.3,18.7,13.9,23.4,0c4.6-13.9-4.8-18.3-4.8-18.3C1418.1,856.1,1426.6,804.7,1431.6,794.7L1431.6,794.7z"/>
					<path class="st12" d="M1326.7,789.5c-4.1,1.2-10.5,3.2-17.1,5.8c4.8,7,14.1,61.2,10.9,94.2c0,0-9.5,4.4-4.8,18.3
						c4.6,13.9,22.2,7.3,23.4,0c1.1-7.3,0.4-14.3-1.5-16.7C1335.4,888.7,1339.2,804.6,1326.7,789.5L1326.7,789.5z"/>
					<path class="st12" d="M1327.2,789c-4.1,1.2-10.5,3.2-17.1,5.8c4.8,7.1,14.1,61.2,10.9,94.2c0,0-9.5,4.4-4.8,18.3
						c4.6,13.9,22.2,7.3,23.4,0c1.1-7.3,0.4-14.3-1.5-16.7C1336,888.1,1339.8,804.1,1327.2,789L1327.2,789z"/>
					<path class="st12" d="M1350.4,891.9h41.2c6,0,10.8,5.2,10.8,11.7v17.6c0,6.4-4.9,11.6-10.8,11.6h-41.2c-6,0-10.8-5.2-10.8-11.6
						v-17.6C1339.5,897.1,1344.4,891.9,1350.4,891.9L1350.4,891.9z"/>
					<path class="st11" d="M1353.4,896h35.3c5.1,0,9.3,4.2,9.3,9.3v14c0,5.1-4.2,9.3-9.3,9.3h-35.3c-5.1,0-9.3-4.2-9.3-9.3v-14
						C1344.1,900.2,1348.3,896,1353.4,896L1353.4,896z"/>
					<path class="st12" d="M1377.4,896h3.3c6.4,0.8,11.3,6.2,11.3,12.8c0,7.1-5.8,12.9-12.9,12.9s-12.9-5.8-12.9-12.9
						C1366.1,902.2,1371,896.8,1377.4,896L1377.4,896z"/>
					<path class="st12" d="M1358,899.6c5.4,0,9.7,4.4,9.7,9.7c0,5.4-4.4,9.7-9.7,9.7c-5.4,0-9.7-4.4-9.7-9.7
						C1348.3,903.9,1352.7,899.6,1358,899.6L1358,899.6z"/>
					<path class="st18" d="M1378.7,900.4c4.7,0,8.6,3.8,8.6,8.6c0,4.7-3.8,8.6-8.6,8.6c-4.7,0-8.6-3.8-8.6-8.6
						S1373.9,900.4,1378.7,900.4L1378.7,900.4z"/>
					<path class="st13" d="M1378.7,898.5c2.9,0,5.5,1.2,7.4,3.1c1.9,1.9,3.1,4.5,3.1,7.4s-1.2,5.5-3.1,7.4s-4.5,3.1-7.4,3.1
						s-5.5-1.2-7.4-3.1c-1.9-1.9-3.1-4.5-3.1-7.4s1.2-5.5,3.1-7.4C1373.2,899.6,1375.8,898.5,1378.7,898.5L1378.7,898.5z
						 M1383.4,904.3c-1.2-1.2-2.9-1.9-4.7-1.9c-1.8,0-3.5,0.7-4.7,1.9s-2,2.9-2,4.7s0.7,3.5,2,4.7c1.2,1.2,2.9,1.9,4.7,1.9
						c1.8,0,3.5-0.7,4.7-1.9s1.9-2.9,1.9-4.7C1385.3,907.1,1384.6,905.5,1383.4,904.3L1383.4,904.3z"/>
					<path class="st19" d="M1358,903.9c3,0,5.4,2.4,5.4,5.4s-2.4,5.4-5.4,5.4s-5.4-2.4-5.4-5.4
						C1352.6,906.3,1355.1,903.9,1358,903.9L1358,903.9z"/>
					<path class="st20" d="M1362.3,906c0.7,0.9,1.2,2.1,1.2,3.3c0,2.9-2.3,5.2-5.1,5.4c-2.3-1.1-3.9-2.2-2.6-2.2
						c3,0,5.4-2.4,5.4-5.4C1361.1,906.5,1361.6,906.2,1362.3,906L1362.3,906z"/>
					<path class="st13" d="M1358,902c2,0,3.9,0.8,5.2,2.1c1.3,1.3,2.1,3.2,2.1,5.2s-0.8,3.9-2.1,5.2c-1.3,1.3-3.2,2.1-5.2,2.1
						s-3.9-0.8-5.2-2.1s-2.1-3.2-2.1-5.2s0.8-3.9,2.1-5.2C1354.2,902.8,1356,902,1358,902L1358,902z M1360.5,906.9
						c-0.6-0.6-1.5-1-2.5-1s-1.8,0.4-2.5,1c-0.6,0.6-1,1.5-1,2.5s0.4,1.8,1,2.5c0.6,0.6,1.5,1,2.5,1s1.8-0.4,2.5-1
						c0.6-0.6,1-1.5,1-2.5S1361.1,907.5,1360.5,906.9L1360.5,906.9z"/>
					<path class="st13" d="M1353.4,894.1h35.3c3.1,0,5.9,1.3,7.9,3.3s3.3,4.8,3.3,7.9v14c0,3.1-1.3,5.9-3.3,7.9s-4.8,3.3-7.9,3.3
						h-35.3c-3.1,0-5.9-1.3-7.9-3.3s-3.3-4.8-3.3-7.9v-14c0-3.1,1.3-5.9,3.3-7.9C1347.5,895.4,1350.3,894.1,1353.4,894.1
						L1353.4,894.1z M1388.6,898h-35.3c-2,0-3.8,0.8-5.2,2.2c-1.3,1.3-2.2,3.2-2.2,5.2v14c0,2,0.8,3.8,2.2,5.2
						c1.3,1.3,3.2,2.2,5.2,2.2h35.3c2,0,3.9-0.8,5.2-2.2c1.3-1.3,2.2-3.2,2.2-5.2v-14c0-2-0.8-3.8-2.2-5.2
						C1392.5,898.8,1390.6,898,1388.6,898L1388.6,898z"/>
					<path class="st13" d="M1326.6,892.2h1.6c4.4-43-4.1-87.4-6.2-97.5l-4.1,1.5c8.1,19.2,10,54.6,9.8,77.2
						C1327.6,879.1,1327.7,886.6,1326.6,892.2L1326.6,892.2z M1332,892.9c0.5,0.3,0.9,0.6,1.3,1c1,1,1.7,2.5,1.7,4.1v4.9
						c0,1.6-0.7,3-1.7,4.1c-1,1-2.5,1.7-4.1,1.7h-4.9c-1.6,0-3-0.7-4.1-1.7c-1-1-1.7-2.5-1.7-4.1V898c0-1.6,0.7-3,1.7-4.1
						c0.9-0.9,1.7-1.4,2.8-1.6c0-0.7,0-1.8,0.2-4.4c0.3-3.7,0.5-8.7,0.6-14.7c0.2-23-1.7-59.4-10.3-77.4l-0.9-1.9l2-0.7l8.1-3l2-0.7
						l0.5,2.1C1325.4,791.8,1337.2,843.3,1332,892.9L1332,892.9z M1329.6,896.1h-0.5h-4.8c-0.5,0-1,0.2-1.4,0.6
						c-0.4,0.4-0.6,0.8-0.6,1.4v4.9c0,0.5,0.2,1,0.6,1.4c0.3,0.3,0.8,0.6,1.4,0.6h4.9c0.5,0,1-0.2,1.4-0.6c0.3-0.4,0.6-0.8,0.6-1.4
						v-5c0-0.5-0.2-1-0.6-1.4C1330.4,896.3,1330,896.2,1329.6,896.1L1329.6,896.1z"/>
					<path class="st13" d="M1327.2,891.6h1.6c4.4-43-4.1-87.4-6.2-97.5l-4.1,1.5c8.1,19.2,10,54.6,9.8,77.2
						C1328.2,878.5,1328.3,886,1327.2,891.6L1327.2,891.6z M1332.6,892.3c0.5,0.3,0.9,0.6,1.3,1c1.1,1,1.7,2.5,1.7,4.1v4.9
						c0,1.6-0.7,3-1.7,4.1c-1,1-2.5,1.7-4.1,1.7h-4.9c-1.6,0-3-0.7-4.1-1.7c-1-1-1.7-2.5-1.7-4.1v-4.9c0-1.6,0.7-3,1.7-4.1
						c0.9-0.9,1.7-1.4,2.8-1.6c0-0.7,0-1.8,0.2-4.4c0.3-3.7,0.5-8.7,0.5-14.7c0.2-23-1.7-59.4-10.3-77.4l-0.9-1.9l2-0.7l8.1-3l2-0.7
						l0.5,2.1C1325.9,791.3,1337.7,842.8,1332.6,892.3L1332.6,892.3z M1330.2,895.5h-0.5h-4.8c-0.5,0-1,0.2-1.4,0.6
						c-0.3,0.3-0.6,0.8-0.6,1.4v4.9c0,0.5,0.2,1,0.6,1.4s0.8,0.6,1.4,0.6h4.9c0.5,0,1-0.2,1.4-0.6c0.4-0.3,0.6-0.8,0.6-1.4v-4.9
						c0-0.5-0.2-1-0.6-1.4C1330.9,895.8,1330.6,895.6,1330.2,895.5L1330.2,895.5z"/>
					<path class="st13" d="M1414.4,890h-1.6c-4.4-43,4.1-87.4,6.2-97.5l4.1,1.5c-8.1,19.2-10,54.6-9.8,77.2
						C1413.4,876.8,1413.3,884.3,1414.4,890L1414.4,890z M1409,890.6c-0.5,0.3-0.9,0.6-1.3,1c-1,1-1.7,2.5-1.7,4.1v4.9
						c0,1.6,0.7,3,1.7,4.1c1,1,2.5,1.7,4.1,1.7h4.9c1.6,0,3-0.7,4.1-1.7c1-1,1.7-2.5,1.7-4.1v-4.9c0-1.6-0.7-3-1.7-4.1
						c-0.9-0.9-1.7-1.4-2.8-1.6c0-0.7,0-1.8-0.2-4.4c-0.3-3.7-0.5-8.7-0.5-14.7c-0.2-23,1.7-59.4,10.3-77.4l0.9-1.9l-2-0.7l-8.1-3
						l-2-0.7l-0.5,2.1C1415.6,789.6,1403.8,841.1,1409,890.6L1409,890.6z M1411.4,893.8h0.5h4.8c0.5,0,1,0.2,1.4,0.6
						c0.3,0.3,0.6,0.8,0.6,1.4v4.9c0,0.5-0.2,1-0.6,1.4c-0.4,0.3-0.8,0.6-1.4,0.6h-4.9c-0.5,0-1-0.2-1.4-0.6
						c-0.3-0.4-0.6-0.8-0.6-1.4v-4.9c0-0.5,0.2-1,0.6-1.4C1410.6,894.1,1411,893.9,1411.4,893.8L1411.4,893.8z"/>
				</g>
			</g>
			<path class="st14" d="M1429.3,725.1h25.6c7.4,0,13.4,5.9,13.4,13v23c-7.3,11.4-16.8,21.8-28.5,30.4c-7.5,5.6,0.1-0.4-8.3,3.2
				l-3.2-54.9C1428.3,732.6,1422,725.1,1429.3,725.1L1429.3,725.1z"/>
			<path class="st21" d="M1299.6,616.5c48.1-35.9,117-27.1,153.9,19.6c36.9,46.7,27.9,113.7-20.2,149.6
				c-48.1,35.9-117,27.1-153.9-19.6C1242.5,719.3,1251.6,652.4,1299.6,616.5L1299.6,616.5z"/>
			<path class="st11" d="M1247.3,724.6l11.4-0.3c-2.8-14.2-2.6-28.9,0.6-43.3v-0.3l-13.2,0.3c-7.2,0.2-13,6.1-12.8,13.1l0.5,17.9
				C1234,719.2,1240.1,724.8,1247.3,724.6L1247.3,724.6z"/>
			<path class="st11" d="M1485,724.1l-11.4-0.3c2.8-14.2,2.6-29-0.6-43.3v-0.3l13.2,0.3c7.2,0.2,13,6.1,12.8,13.1l-0.5,17.9
				C1498.3,718.7,1492.2,724.3,1485,724.1L1485,724.1z"/>
			<path d="M1297.8,614.1c24.7-18.5,54.8-25.4,83.4-21.8c28.6,3.6,55.8,17.9,74.8,41.9s26.2,53.2,22.4,81.1
				c-3.8,27.8-18.4,54.2-43.1,72.7s-54.8,25.4-83.4,21.8c-28.6-3.7-55.8-17.9-74.8-41.9s-26.1-53.2-22.4-81.1
				C1258.4,659,1273.1,632.5,1297.8,614.1L1297.8,614.1z M1380.4,598.3c-27.1-3.5-55.5,3.1-78.9,20.6
				c-23.4,17.4-37.3,42.4-40.8,68.8c-3.6,26.3,3.2,53.9,21.2,76.6c17.9,22.7,43.7,36.2,70.8,39.7c27.1,3.5,55.5-3.1,78.9-20.6
				c23.4-17.4,37.3-42.4,40.8-68.8c3.6-26.3-3.2-53.9-21.2-76.6C1433.2,615.2,1407.4,601.7,1380.4,598.3L1380.4,598.3z"/>
			<path class="st12" d="M1247.3,724.6l11.4-0.3c-2.8-14.2-2.6-28.9,0.6-43.3v-0.3l-10,0.2c-1.7,11.7-3.2,22.6-1.8,35.1l-11.4,0.3
				c-0.6,0-1,0.3-1.1,0.7C1237.1,721.6,1241.9,724.7,1247.3,724.6L1247.3,724.6z"/>
			<path class="st12" d="M1485,724.1l-11.4-0.3c2.8-14.2,2.6-29-0.6-43.3v-0.3l10,0.3c1.7,11.7,3.2,22.6,1.8,35.1l11.4,0.3
				c0.6,0,1,0.3,1.1,0.7C1495.2,721.1,1490.4,724.3,1485,724.1L1485,724.1z"/>
			<path class="st13" d="M1247.4,727.6l11.4-0.3l3.6-0.1l-0.7-3.5c-1.4-6.9-2-14-1.9-21.1c0.1-7,0.9-14,2.5-21l0.1-0.4v-0.4v-0.3
				l-0.1-3l-3.1,0.1l-13.2,0.3l0,0c-4.5,0.1-8.5,2-11.4,4.9s-4.6,6.9-4.5,11.3l0,0l0.5,17.9c0.1,4.4,2,8.3,5.1,11
				C1238.8,726,1242.9,727.7,1247.4,727.6L1247.4,727.6z M1255.1,721.4l-7.8,0.2c-2.8,0.1-5.3-1-7.2-2.7c-1.9-1.7-3.1-4.2-3.2-6.9
				l-0.5-17.9l0,0c-0.1-2.7,1-5.2,2.8-7s4.3-3,7-3.1l0,0l9.4-0.2c-1.2,6.2-1.8,12.5-1.9,18.8C1253.6,708.9,1254,715.2,1255.1,721.4
				L1255.1,721.4z"/>
			<path class="st13" d="M1484.9,727.1l-11.4-0.3l-3.6-0.1l0.7-3.5c1.4-6.9,2-14,1.9-21.1c-0.1-7-0.9-14.1-2.5-21l-0.1-0.4v-0.4V680
				l0.1-3l3.1,0.1l13.2,0.3l0,0c4.5,0.1,8.5,2,11.4,4.9s4.6,6.9,4.5,11.3l0,0l-0.5,17.9c-0.1,4.3-2,8.2-5.1,11
				C1493.5,725.5,1489.4,727.2,1484.9,727.1L1484.9,727.1z M1477.2,720.9l7.8,0.2c2.8,0.1,5.3-1,7.2-2.7c1.9-1.7,3.1-4.2,3.2-6.9
				l0.5-17.9l0,0c0.1-2.7-1-5.2-2.8-7s-4.3-3-7-3.1l0,0l-9.4-0.2c1.2,6.2,1.9,12.5,1.9,18.8C1478.7,708.4,1478.3,714.7,1477.2,720.9
				L1477.2,720.9z"/>
			<path class="st11" d="M1475.4,714.1c-3.5,27.4-17.8,53.5-42.1,71.6c-48.1,35.9-117,27.1-153.9-19.6
				c-8.2-10.4-14.2-21.8-17.9-33.6C1303,802.3,1421.2,831.8,1475.4,714.1L1475.4,714.1z"/>
			<path class="st13" d="M1478.5,714.4c-1.8,14.4-6.5,28.4-14,41.1c-7.2,12.3-17,23.4-29.2,32.5c-24.7,18.5-54.8,25.4-83.4,21.8
				c-28.6-3.7-55.8-17.9-74.8-41.9c-4.2-5.3-7.8-10.8-10.8-16.5c-3.1-5.9-5.6-11.9-7.6-18.1l-3.7-18.7l9.3,16.3
				c12.9,21.8,33.6,39.6,57.4,50c14.9,6.5,31.1,10,47.4,9.8c16.2-0.2,32.6-4.2,48-12.9c21.4-12,40.9-32.9,55.7-65l6.5-18.3
				L1478.5,714.4z M1459.1,752.5c3-5.1,5.5-10.3,7.5-15.7c-13.5,21.5-29.5,36.5-46.7,46.2c-16.3,9.1-33.7,13.4-51,13.7
				c-17.2,0.3-34.3-3.5-50-10.3c-15.9-6.9-30.5-17-42.4-29.3c1.6,2.5,3.4,4.9,5.2,7.2c17.9,22.7,43.7,36.2,70.8,39.7
				c27.1,3.5,55.5-3.1,78.9-20.6C1443.1,774.7,1452.3,764.2,1459.1,752.5L1459.1,752.5z"/>
			<path class="st11" d="M1299.7,614.1c48.1-35.9,117-27.1,153.9,19.6c18.3,23.1,25.3,51.2,21.9,78c-10-42.9-29.3-65.4-55-78.7
				c-39.9-20.7-80.5-23.2-122.6,12.6c-30.7,26.1-34.1,57.6-36.3,84.5C1248.5,688.6,1262.3,642,1299.7,614.1L1299.7,614.1z"/>
			<path class="st13" d="M1297.8,611.7c24.7-18.5,54.8-25.4,83.4-21.8c28.6,3.6,55.8,17.9,74.8,41.9c9.2,11.7,15.6,24.5,19.4,37.9
				c3.9,13.9,4.9,28.2,3.1,42.3l-2.8,16.7l-3.2-16.4c-4.9-21.1-12.1-37.1-21.1-49.4c-9-12.2-19.9-20.9-32.3-27.4
				c-19.4-10.1-39-15.8-58.8-14.6c-19.7,1.2-39.8,9.3-60.3,26.8c-14.9,12.7-23.2,26.6-28,40.6c-4.9,14.2-6.2,28.6-7.3,41.9
				l-1.2,15.7l-4.7-15c-6.8-21.6-6.5-44.5,0.4-65.7C1265.8,644.7,1278.9,625.8,1297.8,611.7L1297.8,611.7z M1380.4,595.8
				c-27.1-3.5-55.5,3.1-78.9,20.6c-17.9,13.4-30.2,31.2-36.6,50.6c-4.6,14-6.1,28.9-4.4,43.5c1.1-7.9,2.8-16,5.6-24.1
				c5.1-15,13.9-29.8,29.7-43.2c21.6-18.4,42.9-26.9,64-28.2c21-1.3,41.7,4.6,62.1,15.3c13.2,6.9,24.8,16.1,34.4,29.2
				c6.6,8.9,12.2,19.6,16.7,32.6c-0.5-7-1.6-13.9-3.5-20.7c-3.6-12.6-9.6-24.8-18.3-35.8C1433.2,612.8,1407.5,599.3,1380.4,595.8
				L1380.4,595.8z"/>
			<path class="st15" d="M1476.2,702.3c-0.1,3.1-0.4,6.2-0.8,9.3c-10-42.9-29.3-65.4-55-78.7c-39.9-20.7-94.9-19.3-129.4,14.6
				c-10.3,10.1-29.3,34-30.6,65.6c-4.9-32.3,8.1-61.8,39.6-85.3c48.1-35.9,117-27.1,153.9,19.6C1467,664,1474.3,683,1476.2,702.3
				L1476.2,702.3z"/>
			<path class="st13" d="M1478.7,702.4c-0.1,1.7-0.2,3.3-0.3,4.8c-0.1,1.6-0.3,3.2-0.5,4.8l-1.8,13.9l-3.2-13.7
				c-4.9-21.1-12.1-37.2-21.2-49.6c-9-12.3-20-21-32.5-27.5c-20.3-10.6-44.7-15.3-68.2-12.6c-21.5,2.4-42.2,11-58.2,26.8
				c-6,5.9-14.9,16.5-21.5,30.5c-4.5,9.7-7.9,20.9-8.3,33.5l-1,26.3l-4-26.1c-2.6-16.7-0.4-32.8,6.5-47.6
				c6.7-14.5,18-27.9,33.9-39.8l0,0l0.2-0.1c24.6-18.4,54.5-25.3,83-21.6c28.4,3.6,55.4,17.8,74.3,41.6l0,0l0.1,0.2
				c6.6,8.3,11.7,17.2,15.5,26.5c3.9,9.6,6.3,19.5,7.3,29.6v0.2L1478.7,702.4z M1455.9,659.8c6.2,8.4,11.5,18.3,15.8,30.3
				c-1.2-5.3-2.8-10.6-4.9-15.8c-3.6-8.9-8.5-17.4-14.8-25.3l0,0c-18-22.8-43.9-36.4-71.1-39.9s-55.8,3.2-79.3,20.7l0,0
				c-15.3,11.4-26.1,24.2-32.5,38.1c-2.8,6-4.8,12.2-5.9,18.6c1.1-3,2.3-5.9,3.6-8.7c6.9-14.7,16.3-25.8,22.5-32
				c16.9-16.6,38.7-25.7,61.2-28.2c24.5-2.8,49.9,2.1,71.1,13.2C1434.8,637.6,1446.4,646.8,1455.9,659.8L1455.9,659.8z"/>
			<path class="st15" d="M1279.1,693.8c0,0,17.4-52.6,78.9-57.6c6.1-1,13.6,16,4.5,18.6s-46.2,8.2-69.9,51.7
				C1291,709.7,1275.4,702.7,1279.1,693.8L1279.1,693.8z"/>
			<path class="st15" d="M1389.4,654.8c5.1,0,9.3-4.1,9.3-9.1s-4.2-9.1-9.3-9.1c-5.1,0-9.3,4.1-9.3,9.1S1384.3,654.8,1389.4,654.8
				L1389.4,654.8z"/>
			<path class="st22" d="M1370.6,824.7l-19.5,29.7l11.1,7.2l1.8-2.8l5.8,27.6l19.2-29.8l-10.8-7l-1.8,2.8L1370.6,824.7z
				 M1379.4,854.4l4.7,3.2l-12.6,19.4l-5.8-27.6l-4.7,7.2l-4.7-3l12.7-19.4l5.7,27.4L1379.4,854.4z"/>
			<g class="st23">
				<circle class="st24" cx="1411.5" cy="702.7" r="23.6"/>
				<circle cx="1414.9" cy="700.3" r="9.1"/>
				<circle class="st24" cx="1321.8" cy="702.7" r="23.6"/>
				<path id="XMLID_00000158028693042030629570000016018775077572765575_" class="st25" d="M1368.9,769.5
					c-20.3,0-35.1-8.8-42.3-14.1c-1.1-0.8-1.3-2.3-0.5-3.4c0.8-1.1,2.3-1.3,3.4-0.5c7,5.2,21.7,13.8,41.7,13.1
					c17.8-0.6,30.9-8.5,37.1-13.1c1.1-0.8,2.6-0.6,3.4,0.5s0.6,2.6-0.5,3.4c-6.6,5-20.6,13.4-39.8,14.1
					C1370.5,769.5,1369.7,769.5,1368.9,769.5z"/>
				<circle cx="1327.9" cy="699.3" r="9.1"/>
			</g>
		</g>
	</g>
	<rect x="2140.7" y="1426" class="st2" width="1559.3" height="192.1"/>
	<g class="st3">
		<path class="st4" d="M2502.6,1426c2.3,0,4.4,0.4,6.2,1.1c1.9,0.7,3.5,1.7,4.8,3s2.4,2.9,3.1,4.7c0.7,1.8,1.1,3.8,1.1,6
			s-0.4,4.2-1.1,6c-0.7,1.8-1.8,3.3-3.1,4.7s-2.9,2.3-4.8,3c-1.9,0.7-3.9,1-6.2,1h-10.7v21h-6.3V1426H2502.6z M2491.9,1449.8h10.7
			c2.6,0,4.7-0.8,6.3-2.5s2.4-3.9,2.4-6.6c0-2.8-0.8-5-2.4-6.6c-1.6-1.7-3.7-2.5-6.3-2.5h-10.7V1449.8z"/>
		<path class="st4" d="M2535.1,1437.9v6.7h0.6c0.6-2.3,1.9-4.1,3.8-5.4c1.9-1.3,4.3-2,7.1-2c4.1,0,7.2,1.3,9.6,3.8
			c2.3,2.5,3.5,6,3.5,10.5v2.2h-6.3v-1.4c0-3-0.8-5.4-2.3-7c-1.5-1.7-3.7-2.5-6.5-2.5s-4.9,0.9-6.6,2.6c-1.6,1.7-2.5,4-2.5,7v24.2
			h-6.3v-38.5h5.9V1437.9z"/>
		<path class="st4" d="M2584.3,1477.1c-2.4,0-4.5-0.4-6.4-1c-1.9-0.7-3.5-1.7-4.8-3s-2.4-2.9-3.1-4.8c-0.7-1.9-1.1-3.9-1.1-6.2v-9.8
			c0-2.3,0.4-4.4,1.1-6.3c0.7-1.8,1.8-3.4,3.1-4.7s2.9-2.3,4.8-3c1.9-0.7,4-1,6.4-1c4.8,0,8.5,1.3,11.3,4s4.1,6.3,4.1,11v9.9
			c0,4.7-1.4,8.3-4.1,11C2592.9,1475.8,2589.1,1477.1,2584.3,1477.1z M2575.2,1462.1c0,2.9,0.8,5.2,2.4,6.9s3.8,2.5,6.7,2.5
			c2.8,0,5-0.8,6.7-2.5c1.6-1.7,2.5-4,2.5-6.9v-9.8c0-2.9-0.8-5.2-2.5-6.9c-1.6-1.7-3.8-2.5-6.7-2.5c-2.8,0-5,0.8-6.6,2.5
			s-2.5,4-2.5,6.9L2575.2,1462.1L2575.2,1462.1z"/>
		<path class="st4" d="M2610.9,1452.3c0-2.3,0.3-4.4,0.9-6.3c0.6-1.9,1.5-3.4,2.6-4.7c1.1-1.3,2.5-2.3,4.1-3s3.4-1,5.3-1
			c2.8,0,5.2,0.6,7.1,1.9c1.9,1.3,3.1,3.1,3.7,5.4h0.6c0-0.8-0.1-1.6-0.1-2.4c-0.1-0.7-0.2-1.4-0.2-2.2c0-0.8,0-1.5,0-2.1V1426h6.3
			v50.4h-5.9v-6.7h-0.6c-0.6,2.3-1.8,4.1-3.7,5.4s-4.2,1.9-7.1,1.9c-2,0-3.7-0.4-5.3-1c-1.6-0.7-2.9-1.7-4.1-3
			c-1.1-1.3-2-2.9-2.6-4.7c-0.6-1.9-0.9-4-0.9-6.3v-9.7H2610.9z M2617.2,1452.3v9.8c0,2.9,0.8,5.3,2.4,7c1.6,1.7,3.8,2.6,6.6,2.6
			c2.6,0,4.7-0.9,6.3-2.6s2.3-4.1,2.3-7v-9.8c0-2.9-0.8-5.3-2.3-7c-1.6-1.7-3.7-2.6-6.3-2.6c-2.8,0-5.1,0.8-6.7,2.5
			C2618,1446.9,2617.2,1449.2,2617.2,1452.3z"/>
		<path class="st4" d="M2659.9,1437.9v24.9c0,5.8,2.8,8.8,8.3,8.8c5.6,0,8.5-2.9,8.5-8.8v-24.9h6.3v24.9c0,4.6-1.3,8.1-3.8,10.6
			s-6.2,3.7-11,3.7c-4.7,0-8.3-1.2-10.8-3.7s-3.8-6-3.8-10.5V1438L2659.9,1437.9L2659.9,1437.9z"/>
		<path class="st4" d="M2710.9,1477.1c-2.4,0-4.5-0.4-6.4-1c-1.9-0.7-3.5-1.7-4.8-3s-2.4-2.9-3.1-4.8c-0.7-1.9-1.1-3.9-1.1-6.2v-9.8
			c0-2.3,0.4-4.4,1.1-6.2c0.7-1.9,1.8-3.5,3.1-4.8s2.9-2.3,4.8-3c1.9-0.7,4-1,6.4-1c4.2,0,7.7,1.2,10.5,3.5c2.7,2.3,4.4,5.5,4.9,9.5
			h-6.3c-0.3-2.2-1.3-4-3-5.4c-1.7-1.3-3.7-2-6.1-2c-2.8,0-5,0.8-6.7,2.5c-1.6,1.7-2.4,4-2.4,6.9v9.8c0,2.9,0.8,5.2,2.4,6.9
			c1.6,1.7,3.8,2.5,6.7,2.5c2.4,0,4.5-0.7,6.1-2c1.7-1.3,2.6-3.1,3-5.4h6.3c-0.6,4.1-2.3,7.2-5,9.5
			C2718.5,1476,2715.1,1477.1,2710.9,1477.1z"/>
		<path class="st4" d="M2735.5,1437.9h11.2V1426h6.3v11.9h15v5.7h-15v22.8c0,1.3,0.4,2.3,1.2,3.1c0.8,0.7,1.9,1.1,3.3,1.1h9.8v5.7
			h-9.8c-3.3,0-6-0.9-7.9-2.7c-2-1.8-2.9-4.2-2.9-7.2v-22.8h-11.2L2735.5,1437.9L2735.5,1437.9z"/>
		<path class="st4" d="M2780,1476.4v-5.7h14v-27h-12.2v-5.7h18.5v32.8h11.6v5.7H2780V1476.4z M2795.4,1422.9h1.4
			c1.4,0,2.5,0.4,3.3,1.2c0.8,0.8,1.3,1.8,1.3,3.1c0,1.3-0.4,2.3-1.3,3c-0.8,0.7-1.9,1.1-3.3,1.1h-1.4c-1.4,0-2.4-0.4-3.3-1.1
			c-0.8-0.7-1.3-1.7-1.3-3s0.4-2.3,1.3-3.1C2792.9,1423.3,2794,1422.9,2795.4,1422.9z"/>
		<path class="st4" d="M2836.3,1477.1c-2.4,0-4.5-0.4-6.4-1c-1.9-0.7-3.5-1.7-4.8-3s-2.4-2.9-3.1-4.8c-0.7-1.9-1.1-3.9-1.1-6.2v-9.8
			c0-2.3,0.4-4.4,1.1-6.3c0.7-1.8,1.8-3.4,3.1-4.7s2.9-2.3,4.8-3c1.9-0.7,4-1,6.4-1c4.8,0,8.5,1.3,11.3,4s4.1,6.3,4.1,11v9.9
			c0,4.7-1.4,8.3-4.1,11C2844.9,1475.8,2841.1,1477.1,2836.3,1477.1z M2827.2,1462.1c0,2.9,0.8,5.2,2.4,6.9c1.6,1.7,3.8,2.5,6.7,2.5
			c2.8,0,5-0.8,6.6-2.5s2.5-4,2.5-6.9v-9.8c0-2.9-0.8-5.2-2.5-6.9c-1.6-1.7-3.8-2.5-6.6-2.5s-5,0.8-6.6,2.5s-2.5,4-2.5,6.9
			L2827.2,1462.1L2827.2,1462.1z"/>
		<path class="st4" d="M2863.5,1437.9h5.9v6.7h0.6c0.6-2.4,1.8-4.2,3.6-5.5s4.1-1.9,6.9-1.9c2,0,3.8,0.3,5.4,1
			c1.6,0.7,2.9,1.6,4,2.8c1.1,1.2,1.9,2.6,2.5,4.3c0.6,1.7,0.8,3.5,0.8,5.4v25.6h-6.3v-24.6c0-2.9-0.7-5.2-2.2-6.9
			c-1.5-1.6-3.6-2.5-6.2-2.5c-2.7,0-4.8,0.9-6.3,2.6c-1.6,1.8-2.3,4.1-2.3,7.1v24.2h-6.3L2863.5,1437.9L2863.5,1437.9z"/>
		<path class="st4" d="M2943.1,1426h6l3.3,36.8c0.1,1.1,0.2,2.2,0.2,3.3c0,1.1,0.1,2.2,0.1,3.1c0,1.1,0.1,2.2,0.1,3.3h0.9
			c0-1.1,0.1-2.2,0.2-3.3c0-0.9,0.1-2,0.2-3.1s0.2-2.3,0.4-3.3l4.8-36.8h6.2l4.6,36.8c0.1,1,0.3,2.1,0.3,3.3
			c0.1,1.1,0.2,2.2,0.3,3.2c0,1.1,0.1,2.2,0.2,3.3h1c0-1.1,0.1-2.2,0.2-3.3c0.1-0.9,0.2-2,0.2-3.1c0.1-1.1,0.2-2.3,0.2-3.3l3.2-36.8
			h5.7l-5.1,50.4h-9l-4.1-37c-0.3-2.8-0.4-5-0.4-6.6c0-1,0-1.9,0.1-2.7h-1.2c0,0.8,0,1.7,0,2.7c0,0.8,0,1.8-0.1,2.9
			c0,1.1-0.2,2.4-0.4,3.7l-4.5,37h-9L2943.1,1426z"/>
		<path class="st4" d="M2988.9,1451.9c0-4.6,1.4-8.2,4.1-10.8c2.7-2.6,6.5-3.9,11.3-3.9s8.6,1.3,11.3,3.9s4.1,6.2,4.1,10.8v7.1
			h-24.5v3.1c0,2.9,0.8,5.2,2.4,6.9c1.6,1.7,3.8,2.5,6.7,2.5c2.1,0,3.9-0.3,5.5-1c1.5-0.7,2.7-1.6,3.4-2.9h6.3
			c-0.8,2.9-2.6,5.2-5.3,6.9c-2.7,1.7-6,2.5-9.9,2.5c-4.8,0-8.6-1.3-11.3-3.9s-4.1-6.2-4.1-10.8V1451.9z M2995.2,1453.7h18.2v-1.8
			c0-2.9-0.8-5.1-2.4-6.7c-1.6-1.6-3.8-2.4-6.7-2.4s-5.1,0.8-6.7,2.4c-1.6,1.6-2.4,3.8-2.4,6.7L2995.2,1453.7L2995.2,1453.7z"/>
		<path class="st4" d="M3031.5,1426h6.3v11.2c0,0.7,0,1.4,0,2.3s-0.1,1.7-0.1,2.4c-0.1,0.9-0.2,1.8-0.2,2.7h0.6
			c0.6-2.3,1.8-4.1,3.7-5.4s4.2-1.9,7.1-1.9c2,0,3.7,0.4,5.3,1c1.6,0.7,2.9,1.7,4.1,3c1.1,1.3,2,2.9,2.6,4.7c0.6,1.9,0.9,4,0.9,6.3
			v9.8c0,2.3-0.3,4.4-0.9,6.3c-0.6,1.9-1.5,3.4-2.6,4.7c-1.1,1.3-2.5,2.3-4.1,3s-3.4,1-5.3,1c-2.8,0-5.2-0.6-7.1-1.9
			c-1.9-1.3-3.1-3.1-3.7-5.4h-0.6v6.7h-6V1426z M3037.8,1462.1c0,2.9,0.8,5.3,2.3,7s3.7,2.6,6.3,2.6c2.8,0,5-0.9,6.6-2.6
			s2.4-4.1,2.4-7v-9.8c0-3-0.8-5.4-2.4-7.1c-1.6-1.7-3.8-2.5-6.6-2.5c-2.6,0-4.7,0.9-6.3,2.6s-2.3,4.1-2.3,7V1462.1z"/>
		<path class="st4" d="M3114.2,1463.5h6.6c0,2.4,0.9,4.4,2.6,5.8c1.8,1.5,4.1,2.2,7,2.2c3,0,5.3-0.7,7-2.1s2.5-3.3,2.5-5.6
			c0-2.1-0.6-3.9-1.8-5.4c-1.2-1.6-2.9-2.7-5-3.5l-6-2.1c-7.7-2.8-11.5-7.5-11.5-14.2c0-4.1,1.3-7.4,4-9.7s6.3-3.6,10.9-3.6
			c2.2,0,4.3,0.3,6.1,0.9s3.4,1.5,4.8,2.7c1.3,1.2,2.4,2.6,3.1,4.2c0.7,1.7,1.1,3.5,1.2,5.5h-6.6c0-2.4-0.8-4.3-2.3-5.7
			c-1.6-1.4-3.6-2.1-6.2-2.1c-2.6,0-4.7,0.6-6.2,1.9s-2.3,3-2.3,5.2c0,2.1,0.6,3.8,1.7,5.1c1.1,1.4,2.9,2.5,5.5,3.4l6.2,2.2
			c3.5,1.3,6.3,3.2,8.2,5.7s2.8,5.6,2.8,9.1c0,4.2-1.4,7.5-4.3,9.9c-2.9,2.4-6.8,3.6-11.8,3.6c-2.4,0-4.5-0.3-6.5-1s-3.6-1.6-5-2.8
			c-1.4-1.2-2.5-2.6-3.3-4.3C3114.7,1467.4,3114.3,1465.5,3114.2,1463.5z"/>
		<path class="st4" d="M3156.9,1451.9c0-4.6,1.4-8.2,4.1-10.8c2.7-2.6,6.5-3.9,11.3-3.9s8.6,1.3,11.3,3.9s4.1,6.2,4.1,10.8v7.1
			h-24.5v3.1c0,2.9,0.8,5.2,2.4,6.9c1.6,1.7,3.8,2.5,6.7,2.5c2.1,0,3.9-0.3,5.5-1c1.5-0.7,2.7-1.6,3.4-2.9h6.3
			c-0.8,2.9-2.6,5.2-5.3,6.9c-2.7,1.7-6,2.5-9.9,2.5c-4.8,0-8.6-1.3-11.3-3.9s-4.1-6.2-4.1-10.8V1451.9z M3163.2,1453.7h18.2v-1.8
			c0-2.9-0.8-5.1-2.4-6.7c-1.6-1.6-3.8-2.4-6.7-2.4s-5.1,0.8-6.7,2.4c-1.6,1.6-2.4,3.8-2.4,6.7L3163.2,1453.7L3163.2,1453.7z"/>
		<path class="st4" d="M3207.1,1437.9v6.7h0.6c0.6-2.3,1.9-4.1,3.8-5.4c1.9-1.3,4.3-2,7.1-2c4.1,0,7.2,1.3,9.6,3.8
			c2.3,2.5,3.5,6,3.5,10.5v2.2h-6.3v-1.4c0-3-0.8-5.4-2.3-7s-3.7-2.5-6.5-2.5s-4.9,0.9-6.6,2.6c-1.6,1.7-2.5,4-2.5,7v24.2h-6.3
			v-38.5h5.9V1437.9z"/>
		<path class="st4" d="M3238.8,1437.9h6.7l9.4,27.2c0.4,1.1,0.7,2,0.8,2.8c0.2,0.8,0.3,1.5,0.4,2.1c0.1,0.7,0.1,1.3,0.1,1.8h0.6
			c0-0.5,0-1.1,0.1-1.8c0.1-0.6,0.2-1.2,0.4-2.1c0.1-0.8,0.4-1.8,0.8-2.8l8.9-27.2h6.9l-13.8,38.5h-7.1L3238.8,1437.9z"/>
		<path class="st4" d="M3282.9,1451.9c0-4.6,1.4-8.2,4.1-10.8c2.7-2.6,6.5-3.9,11.3-3.9s8.6,1.3,11.3,3.9s4.1,6.2,4.1,10.8v7.1
			h-24.5v3.1c0,2.9,0.8,5.2,2.4,6.9c1.6,1.7,3.8,2.5,6.7,2.5c2.1,0,3.9-0.3,5.5-1c1.5-0.7,2.7-1.6,3.4-2.9h6.3
			c-0.8,2.9-2.6,5.2-5.3,6.9c-2.7,1.7-6,2.5-9.9,2.5c-4.8,0-8.6-1.3-11.3-3.9s-4.1-6.2-4.1-10.8V1451.9z M3289.2,1453.7h18.2v-1.8
			c0-2.9-0.8-5.1-2.4-6.7c-1.6-1.6-3.8-2.4-6.7-2.4s-5.1,0.8-6.7,2.4c-1.6,1.6-2.4,3.8-2.4,6.7L3289.2,1453.7L3289.2,1453.7z"/>
		<path class="st4" d="M3333.1,1437.9v6.7h0.6c0.6-2.3,1.9-4.1,3.8-5.4c1.9-1.3,4.3-2,7.1-2c4.1,0,7.2,1.3,9.6,3.8
			c2.3,2.5,3.5,6,3.5,10.5v2.2h-6.3v-1.4c0-3-0.8-5.4-2.3-7s-3.7-2.5-6.5-2.5s-4.9,0.9-6.6,2.6c-1.6,1.7-2.5,4-2.5,7v24.2h-6.3
			v-38.5h5.9V1437.9z"/>
	</g>
	<path class="st26" d="M3092.6,1215.6h68.4c43.9,0,79.4-35.6,79.4-79.4V801.7"/>
	<g>
		<g>
			<line class="st26" x1="2899.7" y1="741.9" x2="2874.7" y2="741.9"/>
			<line class="st27" x1="2823.5" y1="741.9" x2="1826.4" y2="741.9"/>
			<line class="st26" x1="1800.8" y1="741.9" x2="1775.8" y2="741.9"/>
		</g>
	</g>
	
		<g id="g2527_00000016754139745110691160000007401410904145696384_" transform="matrix(1.5348001,0,0,1.5348001,-329.14076,-495.12879)">
		<path id="rect2157_00000005249585830011800090000006804941007971791019_" class="st28" d="M2127.5,678c-10,0-18.1,8.2-18.1,18.1
			v44.1c0,10,8.2,18.1,18.1,18.1h241.7c10,0,18.2-8.2,18.2-18.1v-44.1c0-10-8.2-18.1-18.2-18.1H2127.5z M2127.5,689.3h241.7
			c3.9,0,6.8,2.9,6.8,6.8v44.1c0,3.9-2.9,6.8-6.8,6.8h-241.7c-3.9,0-6.8-2.9-6.8-6.8v-44.1C2120.7,692.3,2123.6,689.3,2127.5,689.3z
			"/>
		<path id="path2431_00000017474469707014741090000001457379340757675136_" class="st28" d="M2167.9,718.2c0,5.3-4.3,9.7-9.7,9.7
			c-5.3,0-9.7-4.3-9.7-9.7s4.3-9.7,9.7-9.7S2167.9,712.9,2167.9,718.2z"/>
		<path id="path2433_00000008132435187918624580000004721109895172977597_" class="st29" d="M2158.3,702.9
			c-8.4,0-15.4,6.9-15.4,15.4s6.9,15.4,15.4,15.4s15.3-6.9,15.3-15.4S2166.7,702.9,2158.3,702.9z M2158.3,714.2c2.3,0,4,1.7,4,4
			s-1.7,4-4,4s-4-1.7-4-4S2156,714.2,2158.3,714.2z"/>
		<path id="path2161_00000123436946797182546330000015800030504462963892_" class="st30" d="M2298.2,718.1c-3.1,0-5.7,2.5-5.7,5.7
			c0,3.1,2.5,5.7,5.7,5.7h16.1c3.1,0,5.7-2.5,5.7-5.7c0-3.1-2.5-5.7-5.7-5.7H2298.2z"/>
		<path id="path2163_00000157995161394975215460000011687226812969113743_" class="st29" d="M2331.5,718.1c-3.1,0-5.7,2.5-5.7,5.7
			c0,3.1,2.5,5.7,5.7,5.7h16.1c3.1,0,5.7-2.5,5.7-5.7c0-3.1-2.5-5.7-5.7-5.7H2331.5z"/>
		<path id="rect2165_00000136369243074883636380000015641655047851042955_" class="st28" d="M2127.5,766.4c-10,0-18.1,8.2-18.1,18.2
			v44.1c0,10,8.2,18.2,18.1,18.2h241.7c10,0,18.2-8.2,18.2-18.2v-44.1c0-10-8.2-18.2-18.2-18.2H2127.5z M2127.5,777.8h241.7
			c3.9,0,6.8,2.9,6.8,6.8v44.1c0,3.9-2.9,6.8-6.8,6.8h-241.7c-3.9,0-6.8-2.9-6.8-6.8v-44.1C2120.7,780.7,2123.6,777.8,2127.5,777.8z
			"/>
		<path id="path2449_00000078014298163867227460000014947286908293692083_" class="st28" d="M2167.9,806.6c0,5.3-4.3,9.7-9.7,9.7
			c-5.3,0-9.7-4.3-9.7-9.7c0-5.3,4.3-9.7,9.7-9.7C2163.6,797,2167.9,801.3,2167.9,806.6z"/>
		<path id="path2451_00000039103525613570401820000013371878081534543288_" class="st29" d="M2158.3,791.3
			c-8.4,0-15.4,6.9-15.4,15.4c0,8.4,6.9,15.3,15.4,15.3s15.3-6.9,15.3-15.3C2173.6,798.2,2166.7,791.3,2158.3,791.3z M2158.3,802.6
			c2.3,0,4,1.7,4,4s-1.7,4-4,4s-4-1.7-4-4C2154.3,804.4,2156,802.6,2158.3,802.6z"/>
		<path id="path2169_00000091695081534002217580000011891128931599398810_" class="st30" d="M2298.2,806.5c-3.1,0-5.7,2.5-5.7,5.7
			c0,3.1,2.5,5.7,5.7,5.7h16.1c3.1,0,5.7-2.5,5.7-5.7c0-3.1-2.5-5.7-5.7-5.7H2298.2z"/>
		<path id="path2171_00000024684345899199015420000000432527222971063691_" class="st29" d="M2331.5,806.5c-3.1,0-5.7,2.5-5.7,5.7
			c0,3.1,2.5,5.7,5.7,5.7h16.1c3.1,0,5.7-2.5,5.7-5.7c0-3.1-2.5-5.7-5.7-5.7H2331.5z"/>
		<path id="rect2173_00000000921884882492232840000010821701889840409781_" class="st28" d="M2127.5,589.6c-10,0-18.1,8.2-18.1,18.2
			v44.1c0,10,8.2,18.2,18.1,18.2h241.7c10,0,18.2-8.2,18.2-18.2v-44.1c0-10-8.2-18.2-18.2-18.2H2127.5z M2127.5,600.9h241.7
			c3.9,0,6.8,2.9,6.8,6.8v44.1c0,3.9-2.9,6.8-6.8,6.8h-241.7c-3.9,0-6.8-2.9-6.8-6.8v-44.1C2120.7,603.9,2123.6,600.9,2127.5,600.9z
			"/>
		<path id="path2467_00000049918252590757226610000003820791569292128936_" class="st28" d="M2167.9,629.8c0,5.3-4.3,9.7-9.7,9.7
			c-5.3,0-9.7-4.3-9.7-9.7s4.3-9.7,9.7-9.7S2167.9,624.4,2167.9,629.8z"/>
		<path id="path2469_00000108999804277475672460000010430342769241788290_" class="st29" d="M2158.3,614.4
			c-8.4,0-15.4,6.9-15.4,15.4s6.9,15.3,15.4,15.3s15.3-6.9,15.3-15.3S2166.7,614.4,2158.3,614.4z M2158.3,625.8c2.3,0,4,1.7,4,4
			s-1.7,4-4,4s-4-1.7-4-4S2156,625.8,2158.3,625.8z"/>
		<path id="path2177_00000006696831861821175800000008790769572828470658_" class="st30" d="M2298.2,629.7c-3.1,0-5.7,2.5-5.7,5.7
			c0,3.1,2.5,5.7,5.7,5.7h16.1c3.1,0,5.7-2.5,5.7-5.7c0-3.1-2.5-5.7-5.7-5.7H2298.2z"/>
		<path id="path2179_00000152242962681050742190000000634357297655677363_" class="st29" d="M2331.5,629.7c-3.1,0-5.7,2.5-5.7,5.7
			c0,3.1,2.5,5.7,5.7,5.7h16.1c3.1,0,5.7-2.5,5.7-5.7c0-3.1-2.5-5.7-5.7-5.7H2331.5z"/>
	</g>
	<g>
		<path class="st31" d="M3125.2,1094.1v225.5c0,19.2-15.5,34.7-34.7,34.7h-329.6c-19.2,0-34.7-15.5-34.7-34.7v-225.5H3125.2z"/>
		<path class="st32" d="M2760.9,1354.3h34.7l260.2-260.2h-329.6v225.5C2726.2,1338.7,2741.7,1354.3,2760.9,1354.3z"/>
		<path class="st9" d="M3090.5,1007.4h-329.6c-19.2,0-34.7,15.5-34.7,34.7l0,0v277.6c0,19.2,15.5,34.7,34.7,34.7h329.6
			c19.2,0,34.7-15.5,34.7-34.7v-277.6C3125.2,1022.9,3109.7,1007.4,3090.5,1007.4z"/>
		<path class="st9" d="M2726.2,1094.1h399"/>
		<path class="st33" d="M2839,1163.5h-34.7c-4.8,0-8.7,3.9-8.7,8.7l0,0v34.7c0,4.8,3.9,8.7,8.7,8.7l0,0h34.7c4.8,0,8.7-3.9,8.7-8.7
			l0,0v-34.7C2847.6,1167.4,2843.7,1163.5,2839,1163.5L2839,1163.5z"/>
		<path class="st33" d="M2839,1250.2h-34.7c-4.8,0-8.7,3.9-8.7,8.7v34.7c0,4.8,3.9,8.7,8.7,8.7h34.7c4.8,0,8.7-3.9,8.7-8.7v-34.7
			C2847.6,1254.1,2843.7,1250.2,2839,1250.2L2839,1250.2L2839,1250.2z"/>
		<path class="st33" d="M2943,1163.5h-34.7c-4.8,0-8.7,3.9-8.7,8.7l0,0v34.7c0,4.8,3.9,8.7,8.7,8.7l0,0h34.7c4.8,0,8.7-3.9,8.7-8.7
			l0,0v-34.7C2951.7,1167.4,2947.8,1163.5,2943,1163.5L2943,1163.5z"/>
		<path class="st33" d="M2943,1250.2h-34.7c-4.8,0-8.7,3.9-8.7,8.7v34.7c0,4.8,3.9,8.7,8.7,8.7h34.7c4.8,0,8.7-3.9,8.7-8.7v-34.7
			C2951.7,1254.1,2947.8,1250.2,2943,1250.2L2943,1250.2L2943,1250.2z"/>
		<path class="st33" d="M3047.1,1163.5h-34.7c-4.8,0-8.7,3.9-8.7,8.7v34.7c0,4.8,3.9,8.7,8.7,8.7h34.7c4.8,0,8.7-3.9,8.7-8.7v-34.7
			C3055.8,1167.4,3051.9,1163.5,3047.1,1163.5z"/>
		<path class="st33" d="M3047.1,1250.2h-34.7c-4.8,0-8.7,3.9-8.7,8.7v34.7c0,4.8,3.9,8.7,8.7,8.7h34.7c4.8,0,8.7-3.9,8.7-8.7v-34.7
			C3055.8,1254.1,3051.9,1250.2,3047.1,1250.2L3047.1,1250.2z"/>
		<path class="st34" d="M2839,1055.1c-2.4,0-4.3-1.9-4.3-4.3s1.9-4.3,4.3-4.3"/>
		<path class="st34" d="M2839,1055.1c2.4,0,4.3-1.9,4.3-4.3s-1.9-4.3-4.3-4.3"/>
		<path class="st34" d="M2786.9,1055.1c-2.4,0-4.3-1.9-4.3-4.3s1.9-4.3,4.3-4.3"/>
		<path class="st34" d="M2786.9,1055.1c2.4,0,4.3-1.9,4.3-4.3s-1.9-4.3-4.3-4.3"/>
		<g>
			<path class="st34" d="M2891,1055.2c-2.4,0-4.3-1.9-4.3-4.3s1.9-4.3,4.3-4.3"/>
			<path class="st34" d="M2891,1055.2c2.4,0,4.3-1.9,4.3-4.3s-1.9-4.3-4.3-4.3l0,0"/>
		</g>
	</g>
	<g>
		<g class="st3">
			<path class="st4" d="M2403.1,630.6c0,7.5-1.7,12.9-5.1,16.3c-3.4,3.4-8.8,5.1-16.3,5.1h-26.6c-7.5,0-12.9-1.7-16.3-5.1
				c-3.4-3.4-5.1-8.8-5.1-16.3v-34.1c0-7.5,1.7-12.9,5.1-16.3c3.4-3.4,8.8-5.1,16.3-5.1h26.6c7.5,0,12.9,1.7,16.3,5.1
				c3.4,3.4,5.1,8.8,5.1,16.3V630.6z M2383.9,596.5c0-4.3-2.1-6.4-6.4-6.4h-18.1c-4.3,0-6.4,2.1-6.4,6.4v34.1c0,4.3,2.1,6.4,6.4,6.4
				h18.1c4.3,0,6.4-2.1,6.4-6.4V596.5z"/>
		</g>
		<g class="st3">
			<path class="st4" d="M2412.5,591.2h35.8c6,0,10.3,1.3,13,4s4.1,7,4.1,13v8.5c0,6-1.3,10.3-4.1,13c-2.7,2.7-7,4-13,4h-20.5v17.1
				h-15.3V591.2L2412.5,591.2z M2450,608.2c0-3.4-1.7-5.1-5.1-5.1h-17.1v18.8h17.1c3.4,0,5.1-1.7,5.1-5.1V608.2z"/>
			<path class="st4" d="M2520.3,650.9H2473v-59.7h47.3v11.9h-32v11.5h25.2v11.9h-25.2v12.4h32V650.9z"/>
			<path class="st4" d="M2579.1,650.9h-16.2l-20.5-35.8v35.8h-15.3v-59.7h16.2l20.5,35.8v-35.8h15.3V650.9z"/>
		</g>
		<g>
			<path class="st4" d="M2647.1,591.2l-37.3,44.8h37.3v14.9h-60.7V636l37.3-44.8h-37.3v-14.9h60.7V591.2z"/>
		</g>
		<g>
			<path class="st4" d="M2682.5,650.9h-30.7V639h7.7v-35.8h-7.7v-11.9h30.7v11.9h-7.7V639h7.7V650.9z"/>
			<path class="st4" d="M2719.2,650.9h-15.3v-47.7H2686v-11.9h51.2v11.9h-17.9v47.7H2719.2z"/>
			<path class="st4" d="M2771.2,650.9h-30.7V639h7.7v-35.8h-7.7v-11.9h30.7v11.9h-7.7V639h7.7V650.9z"/>
		</g>
		<circle class="st35" cx="2260.7" cy="613.3" r="54.2"/>
		<path id="Lightning_Crashes_00000054966173344279637460000012714822562433907331_" class="st36" d="M2260.7,570.5l-27.1,42.3
			l15.8,10.1l2.5-4l8.6,39l26.7-42.6l-15.3-9.8l-2.6,4L2260.7,570.5z M2273.6,612.5l6.7,4.4l-17.5,27.6l-8.6-39l-6.6,10.3l-6.6-4.2
			l17.7-27.7l8.6,38.7L2273.6,612.5z"/>
		<g>
			
				<linearGradient id="SVGID_1_" gradientUnits="userSpaceOnUse" x1="2215.7061" y1="88.5417" x2="2305.8645" y2="178.7002" gradientTransform="matrix(1 0 0 1 0 479.8896)">
				<stop  offset="4.306891e-03" style="stop-color:#FC0147"/>
				<stop  offset="3.918269e-02" style="stop-color:#F4044D"/>
				<stop  offset="0.9" style="stop-color:#0068F9"/>
			</linearGradient>
			<path class="st37" d="M2260.6,669c-7.5,0-14.8-1.5-21.7-4.4c-6.6-2.8-12.6-6.8-17.7-11.9c-5.1-5.1-9.1-11.1-11.9-17.7
				c-2.9-6.9-4.4-14.2-4.4-21.7s1.5-14.8,4.4-21.7c2.8-6.6,6.8-12.6,11.9-17.7c5.1-5.1,11.1-9.1,17.7-11.9
				c6.9-2.9,14.2-4.4,21.7-4.4s14.8,1.5,21.7,4.4c6.6,2.8,12.6,6.8,17.7,11.9c5.1,5.1,9.1,11.1,11.9,17.7c2.9,6.9,4.4,14.2,4.4,21.7
				s-1.5,14.8-4.4,21.7c-2.8,6.6-6.8,12.6-11.9,17.7c-5.1,5.1-11.1,9.1-17.7,11.9C2275.4,667.5,2268.1,669,2260.6,669z
				 M2260.6,561.9c-13.7,0-26.6,5.3-36.3,15s-15.1,22.6-15.1,36.3s5.3,26.6,15,36.3s22.6,15,36.3,15s26.6-5.3,36.3-15
				s15-22.6,15-36.3s-5.3-26.6-15-36.3C2287.2,567.3,2274.3,561.9,2260.6,561.9z"/>
		</g>
	</g>
	<line class="st26" x1="1744.8" y1="741.9" x2="1790.4" y2="782.6"/>
	<line class="st26" x1="1744.4" y1="742.6" x2="1790.8" y2="696.2"/>
	<g>
		<path class="st38" d="M2047.1,329.2c10.5-15,14.4-50.6,13.1-65.7c-1.3-15.1-4.8-29.6-10.2-42.1h-2.1l-15,30.3
			c-5-24.7-5.1-51.3-0.1-76c0.2-1,0.3-2.2,0.1-3.2c-0.1-1.1-0.4-2.1-0.9-2.9c-0.4-0.8-1-1.5-1.6-1.9s-1.3-0.5-2-0.4
			c-11.9,2.6-23.3,9.7-33.2,20.6c-9.9,11-18.1,25.5-23.8,42.5l-10.7-16.7c-0.4-0.6-0.9-1.1-1.4-1.4c-0.5-0.3-1.1-0.5-1.6-0.4
			c-0.6,0-1.1,0.3-1.6,0.7s-0.9,0.9-1.3,1.6c-6.8,12.8-11.4,28.3-13.3,44.8s2.5,55.2,12.7,74.2"/>
		<path class="st39" d="M1966.3,311.3c-1.2-7.9-0.8-11.4-0.8-11.4c1.1-14.4,4.2-28.1,9-40c4.8-12,11.2-21.8,18.6-28.9
			c0.9-0.9,1.9-1.3,3-1.2c1,0.1,2,0.8,2.8,1.9c0.8,1.1,1.4,2.6,1.7,4.3c0.3,1.7,0.3,3.5,0,5.2c-1.5,8.7-2,17.9-1.5,27
			c0.6,9.1,2.2,17.8,4.8,25.8c2.5,0.5,5.1-0.3,7.4-2.3s4.1-5.1,5.3-9c0.4-1.1,0.9-2,1.6-2.7c0.6-0.7,1.3-1.2,2.1-1.3
			c0.7-0.2,1.5-0.1,2.2,0.3s1.4,1,1.9,1.9c3.3,5.3,5.8,11.8,7.4,19c0,0,2.8,10.9,2.4,16.8s-61.8,3.5-64.6,1.7
			S1966.3,311.3,1966.3,311.3z"/>
		<g>
			<path class="st40" d="M2013,307.3h-24.8c-16.1,0-29.1,13-29.1,29.1v956.1c0,16.1,13,29.1,29.1,29.1h24.8
				c16.1,0,29.1-13,29.1-29.1v-956C2042.1,320.4,2029.1,307.3,2013,307.3z"/>
			<line class="st41" x1="2042.1" y1="1205.9" x2="1959.1" y2="1205.9"/>
			<line class="st41" x1="1959.1" y1="1101.7" x2="2042.1" y2="1101.7"/>
			<line class="st41" x1="2042.1" y1="1003.4" x2="1959.1" y2="1003.4"/>
			<line class="st41" x1="2042.1" y1="905.8" x2="1959.1" y2="905.8"/>
			<line class="st41" x1="2045.7" y1="808.3" x2="1962.7" y2="808.3"/>
			<line class="st41" x1="1962.7" y1="704.2" x2="2045.7" y2="704.2"/>
			<line class="st41" x1="2045.7" y1="605.8" x2="1962.7" y2="605.8"/>
			<line class="st41" x1="2045.7" y1="508.3" x2="1962.7" y2="508.3"/>
			<line class="st41" x1="2045.7" y1="419.1" x2="1962.7" y2="419.1"/>
			<line class="st41" x1="2000.6" y1="1316.2" x2="2000.6" y2="1205.9"/>
			<line class="st41" x1="2000.6" y1="1101.7" x2="2000.6" y2="1003.4"/>
			<line class="st41" x1="2000.6" y1="906.2" x2="2000.6" y2="807.9"/>
			<line class="st41" x1="2000.6" y1="705.5" x2="2000.6" y2="607.2"/>
			<line class="st41" x1="2000.6" y1="510" x2="2000.6" y2="411.7"/>
			<rect x="1966.1" y="1108.8" class="st42" width="68.5" height="89.4"/>
			<rect x="1966.4" y="909.3" class="st42" width="68.5" height="89.4"/>
			<rect x="1966.4" y="711" class="st42" width="68.5" height="90.7"/>
			<rect x="1966.4" y="515.3" class="st42" width="68.5" height="84.1"/>
			<path class="st42" d="M1988.9,314.4h23.5c12.4,0,22.5,10.1,22.5,22.5v74.7h-68.6V337C1966.3,324.5,1976.4,314.4,1988.9,314.4z"/>
		</g>
	</g>
	<line class="st43" x1="594.4" y1="740.4" x2="946.2" y2="740.4"/>
	<line class="st43" x1="977.2" y1="740.4" x2="931.6" y2="699.7"/>
	<line class="st43" x1="977.6" y1="739.7" x2="931.2" y2="786.1"/>
	<g>
		<path class="st31" d="M609.9,833.6V576.5c0-15.8-12.8-28.6-28.6-28.6H276.6c-15.8,0-28.6,12.8-28.6,28.6l0,0v257.1H609.9z"/>
		<path class="st32" d="M248.1,576.5v257.1h6.2L539.9,548H276.6C260.9,548,248.1,560.8,248.1,576.5L248.1,576.5z"/>
		<path class="st9" d="M609.9,833.6V576.5c0-15.8-12.8-28.6-28.6-28.6H276.6c-15.8,0-28.6,12.8-28.6,28.6l0,0v257.1H609.9z"/>
		<path class="st33" d="M648,833.6c0,31.6-25.6,57.1-57.1,57.1l0,0H267.1c-31.6,0-57.1-25.6-57.1-57.1l0,0H648L648,833.6z"/>
		<path class="st44" d="M381.4,638.1v38.1"/>
		<path class="st44" d="M476.6,638.1v38.1"/>
		<path class="st44" d="M505.1,723.8c-43.6,38.1-108.7,38.1-152.3,0"/>
	</g>
	<rect x="1141.4" y="1326.8" class="st2" width="458.5" height="192.1"/>
	<g class="st3">
		<path class="st4" d="M1349.6,1377.9c-2.4,0-4.5-0.4-6.4-1c-1.9-0.7-3.5-1.7-4.8-3s-2.4-2.9-3.1-4.8s-1.1-3.9-1.1-6.2v-9.8
			c0-2.3,0.4-4.4,1.1-6.3c0.7-1.8,1.8-3.4,3.1-4.7s2.9-2.3,4.8-3s4-1,6.4-1c4.8,0,8.5,1.3,11.3,4s4.1,6.3,4.1,11v9.9
			c0,4.7-1.4,8.3-4.1,11C1358.2,1376.6,1354.5,1377.9,1349.6,1377.9z M1340.5,1362.9c0,2.9,0.8,5.2,2.4,6.9s3.8,2.5,6.7,2.5
			c2.8,0,5-0.8,6.6-2.5s2.5-4,2.5-6.9v-9.8c0-2.9-0.8-5.2-2.5-6.9c-1.6-1.7-3.9-2.5-6.6-2.5s-5,0.8-6.6,2.5s-2.5,4-2.5,6.9V1362.9z"
			/>
		<path class="st4" d="M1384.4,1338.7v6.7h0.6c0.6-2.3,1.9-4.1,3.8-5.4s4.3-2,7.1-2c4.1,0,7.2,1.3,9.6,3.8c2.3,2.5,3.5,6,3.5,10.5
			v2.2h-6.3v-1.4c0-3-0.8-5.4-2.3-7c-1.5-1.7-3.7-2.5-6.5-2.5s-4.9,0.9-6.6,2.6c-1.6,1.7-2.4,4-2.4,7v24.2h-6.3v-38.5h5.8V1338.7z"
			/>
	</g>
	<g>
		<path class="st10" d="M1583,1205.9c-50.4,0-91.3,40.8-91.3,91.1c0,39.3,25.1,74.3,62.5,86.7c4.6,0.8,6-1.9,6-4.3
			c0-2.2,0-8.2,0-15.9c-25.4,5.5-30.6-12-30.6-12c-1.7-5.5-5.3-10.2-10.1-13.3c-8.3-5.7,0.6-5.6,0.6-5.6c5.9,0.8,11,4.3,14,9.4
			c5.2,9.4,17,12.8,26.4,7.7c0.1,0,0.1-0.1,0.2-0.1c0.4-4.6,2.5-8.9,5.8-12.2c-20.3-2.3-41.6-10.1-41.6-45.1
			c-0.1-9.1,3.2-17.8,9.4-24.5c-2.8-7.9-2.5-16.5,0.9-24.1c0,0,7.7-2.5,25.1,9.4c15-4.1,30.7-4.1,45.7,0
			c17.5-11.8,25.1-9.4,25.1-9.4c3.4,7.6,3.7,16.3,0.9,24.1c6.2,6.7,9.5,15.4,9.4,24.5c0,35.1-21.3,42.8-41.7,45
			c4.4,4.4,6.7,10.6,6.2,16.8v25.3c0,2.4,1.5,5.1,6.1,4.3c47.8-15.9,73.7-67.5,57.8-115.3C1657.3,1231,1622.3,1205.8,1583,1205.9z"
			/>
		<path class="st45" d="M1533.4,1249c0.4-1.8,1-3.6,1.7-5.3c2.3-0.4,4.6-0.2,6.8,0.5c25.8-13.2,56.4-13.2,82.3,0
			c2.2-0.7,4.5-0.8,6.8-0.5c0.7,1.7,1.2,3.5,1.7,5.3c21.8,14.2,36.5,37,40.5,62.7c8-49.7-25.8-96.6-75.5-104.6
			s-96.6,25.8-104.6,75.5c-1.6,9.6-1.6,19.4,0,29.1C1496.8,1285.9,1511.6,1263.1,1533.4,1249z"/>
		<path class="st46" d="M1583,1205.9c-50.4,0-91.3,40.8-91.3,91.1c0,39.3,25.1,74.3,62.5,86.7c4.6,0.8,6-1.9,6-4.3
			c0-2.2,0-8.2,0-15.9c-25.4,5.5-30.6-12-30.6-12c-1.7-5.5-5.3-10.2-10.1-13.3c-8.3-5.7,0.6-5.6,0.6-5.6c5.9,0.8,11,4.3,14,9.4
			c5.2,9.4,17,12.8,26.4,7.7c0.1,0,0.1-0.1,0.2-0.1c0.4-4.6,2.5-8.9,5.8-12.2c-20.3-2.3-41.6-10.1-41.6-45.1
			c-0.1-9.1,3.2-17.8,9.4-24.5c-2.8-7.9-2.5-16.5,0.9-24.1c0,0,7.7-2.5,25.1,9.4c15-4.1,30.7-4.1,45.7,0
			c17.5-11.8,25.1-9.4,25.1-9.4c3.4,7.6,3.7,16.3,0.9,24.1c6.2,6.7,9.5,15.4,9.4,24.5c0,35.1-21.3,42.8-41.7,45
			c4.4,4.4,6.7,10.6,6.2,16.8v25.3c0,2.4,1.5,5.1,6.1,4.3c47.8-15.9,73.7-67.5,57.8-115.3C1657.3,1231,1622.3,1205.8,1583,1205.9
			L1583,1205.9z"/>
	</g>
	<g>
		<path class="st47" d="M1226.8,1234.3l-22.8,21.4c-22.1-23.6-59.2-24.8-82.8-2.7c-4.2,3.9-7.7,8.4-10.6,13.3l-24.6-19.6
			c27.1-41.6,82.7-53.4,124.3-26.3C1216.3,1224.4,1221.9,1229,1226.8,1234.3L1226.8,1234.3L1226.8,1234.3z"/>
		<path class="st48" d="M1110.9,1325.9l-23.6,21.2c-21-30-21.5-69.8-1.4-100.4l24.6,19.6C1099.8,1284.7,1099.9,1307.6,1110.9,1325.9
			L1110.9,1325.9z"/>
		<path class="st49" d="M1217.1,1366.5c-39.1,30.8-95.7,24.1-126.5-15c-1.1-1.4-2.2-2.9-3.3-4.4l23.6-21.2
			c16.6,27.8,52.6,36.9,80.5,20.3c1.7-1,3.3-2.1,4.8-3.2L1217.1,1366.5L1217.1,1366.5z"/>
		<path class="st50" d="M1251.2,1284.1v16.4c-1.3,25.9-13.8,49.9-34.1,66l-20.9-23.5c9.5-6.9,16.6-16.6,20.5-27.6H1173v-31.3H1251.2
			L1251.2,1284.1z"/>
		<path class="st46" d="M1086,1246.7L1086,1246.7"/>
		<path class="st46" d="M1087.4,1347.1L1087.4,1347.1"/>
		<path class="st46" d="M1111,1325.8L1111,1325.8"/>
	</g>
	<rect x="972.8" y="1426" class="st2" width="367.3" height="105.9"/>
	<g class="st3">
		<path class="st4" d="M1036,1462.1v-21.7c0-2.2,0.4-4.3,1.1-6.2c0.7-1.9,1.8-3.5,3.1-4.8s3-2.3,4.9-3s4-1.1,6.3-1.1
			c4.2,0,7.7,1.1,10.4,3.2c2.7,2.1,4.5,5.3,5.3,9.4h-6.4c-0.5-2.2-1.5-3.9-3.1-5.1s-3.7-1.9-6.2-1.9c-2.8,0-5,0.8-6.7,2.5
			c-1.6,1.7-2.5,4-2.5,6.9v21.7c0,2.9,0.8,5.2,2.5,6.9c1.6,1.7,3.9,2.5,6.7,2.5s5-0.8,6.6-2.5s2.5-4,2.5-6.9v-6h-10.2v-5.6h16.5
			v11.6c0,2.3-0.4,4.4-1.1,6.2c-0.7,1.9-1.8,3.5-3.1,4.8c-1.3,1.3-2.9,2.3-4.8,3s-4,1-6.4,1c-2.3,0-4.5-0.4-6.4-1
			c-1.9-0.7-3.5-1.7-4.9-3c-1.3-1.3-2.4-2.9-3.1-4.8C1036.4,1466.4,1036,1464.4,1036,1462.1z"/>
		<path class="st4" d="M1093.4,1477.1c-2.4,0-4.5-0.4-6.4-1c-1.9-0.7-3.5-1.7-4.8-3s-2.4-2.9-3.1-4.8s-1.1-3.9-1.1-6.2v-9.8
			c0-2.3,0.4-4.4,1.1-6.3c0.7-1.8,1.8-3.4,3.1-4.7s2.9-2.3,4.8-3s4-1,6.4-1c4.8,0,8.5,1.3,11.3,4s4.1,6.3,4.1,11v9.9
			c0,4.7-1.4,8.3-4.1,11C1102,1475.8,1098.2,1477.1,1093.4,1477.1z M1084.3,1462.1c0,2.9,0.8,5.2,2.4,6.9c1.6,1.7,3.8,2.5,6.7,2.5
			c2.8,0,5-0.8,6.7-2.5c1.6-1.7,2.5-4,2.5-6.9v-9.8c0-2.9-0.8-5.2-2.5-6.9c-1.6-1.7-3.9-2.5-6.7-2.5s-5,0.8-6.6,2.5s-2.5,4-2.5,6.9
			V1462.1z"/>
		<path class="st4" d="M1135.4,1477.1c-2.4,0-4.5-0.4-6.4-1c-1.9-0.7-3.5-1.7-4.8-3s-2.4-2.9-3.1-4.8s-1.1-3.9-1.1-6.2v-9.8
			c0-2.3,0.4-4.4,1.1-6.3c0.7-1.8,1.8-3.4,3.1-4.7s2.9-2.3,4.8-3s4-1,6.4-1c4.8,0,8.5,1.3,11.3,4s4.1,6.3,4.1,11v9.9
			c0,4.7-1.4,8.3-4.1,11C1144,1475.8,1140.2,1477.1,1135.4,1477.1z M1126.3,1462.1c0,2.9,0.8,5.2,2.4,6.9c1.6,1.7,3.8,2.5,6.7,2.5
			c2.8,0,5-0.8,6.7-2.5c1.6-1.7,2.5-4,2.5-6.9v-9.8c0-2.9-0.8-5.2-2.5-6.9c-1.6-1.7-3.9-2.5-6.7-2.5s-5,0.8-6.6,2.5s-2.5,4-2.5,6.9
			V1462.1z"/>
		<path class="st4" d="M1161.5,1451.9c0-2.2,0.3-4.3,0.9-6.1s1.5-3.4,2.6-4.6s2.5-2.2,4.2-2.9c1.6-0.7,3.5-1,5.5-1
			c2.8,0,5.2,0.7,7.1,2s3.3,3.2,4,5.7h0.5v-7h6v36c0,4.5-1.3,8-4,10.6c-2.7,2.5-6.4,3.8-11.2,3.8h-9.4v-5.7h9.4c2.8,0,5-0.7,6.5-2.2
			c1.6-1.5,2.3-3.6,2.3-6.4v-1.8l0.3-6.6h-0.4c-0.7,2.5-2,4.4-4,5.7c-2,1.3-4.3,2-7.1,2c-2,0-3.8-0.3-5.4-1s-3-1.7-4.1-2.9
			c-1.1-1.3-2-2.8-2.7-4.6c-0.6-1.8-0.9-3.9-0.9-6.1v-6.9H1161.5z M1167.9,1458.6c0,2.9,0.8,5.2,2.4,6.8s3.8,2.4,6.6,2.4
			c2.8,0,5-0.8,6.6-2.4s2.4-3.9,2.4-6.8v-6.7c0-2.9-0.8-5.2-2.4-6.8c-1.6-1.6-3.8-2.5-6.6-2.5c-2.8,0-5,0.8-6.6,2.5
			c-1.6,1.6-2.4,3.9-2.4,6.8V1458.6z"/>
		<path class="st4" d="M1201.2,1431.1v-5.7h19v39.9c0,1.7,0.5,3.1,1.4,4c0.9,1,2.2,1.4,3.8,1.4h11.4v5.7h-11.4c-3.6,0-6.4-1-8.5-3
			s-3.1-4.7-3.1-8.2V1431L1201.2,1431.1L1201.2,1431.1z"/>
		<path class="st4" d="M1246,1451.9c0-4.6,1.4-8.2,4.1-10.8c2.7-2.6,6.5-3.9,11.3-3.9s8.6,1.3,11.3,3.9c2.7,2.6,4.1,6.2,4.1,10.8
			v7.1h-24.5v3.1c0,2.9,0.8,5.2,2.4,6.9c1.6,1.7,3.8,2.5,6.7,2.5c2.1,0,3.9-0.3,5.5-1c1.5-0.7,2.7-1.6,3.4-2.9h6.3
			c-0.8,2.9-2.6,5.2-5.3,6.9c-2.7,1.7-6,2.5-9.9,2.5c-4.8,0-8.6-1.3-11.3-3.9c-2.7-2.6-4.1-6.2-4.1-10.8V1451.9z M1252.3,1453.7
			h18.2v-1.8c0-2.9-0.8-5.1-2.4-6.7s-3.8-2.4-6.7-2.4s-5.1,0.8-6.7,2.4s-2.4,3.8-2.4,6.7V1453.7z"/>
	</g>
	<rect x="1402.2" y="1426" class="st2" width="367.3" height="105.9"/>
	<g class="st3">
		<path class="st4" d="M1465.4,1462.1v-21.7c0-2.2,0.4-4.3,1.1-6.2c0.7-1.9,1.8-3.5,3.1-4.8s3-2.3,4.9-3s4-1.1,6.3-1.1
			c4.2,0,7.7,1.1,10.4,3.2c2.7,2.1,4.5,5.3,5.3,9.4h-6.4c-0.5-2.2-1.5-3.9-3.1-5.1s-3.7-1.9-6.2-1.9c-2.8,0-5,0.8-6.6,2.5
			s-2.5,4-2.5,6.9v21.7c0,2.9,0.8,5.2,2.5,6.9c1.6,1.7,3.9,2.5,6.6,2.5s5-0.8,6.6-2.5s2.5-4,2.5-6.9v-6h-10.2v-5.6h16.5v11.6
			c0,2.3-0.4,4.4-1.1,6.2c-0.7,1.9-1.8,3.5-3.1,4.8c-1.3,1.3-2.9,2.3-4.8,3s-4,1-6.4,1c-2.3,0-4.5-0.4-6.4-1c-1.9-0.7-3.5-1.7-4.9-3
			c-1.3-1.3-2.4-2.9-3.1-4.8C1465.8,1466.4,1465.4,1464.4,1465.4,1462.1z"/>
		<path class="st4" d="M1508.4,1476.4v-5.7h14v-27h-12.2v-5.7h18.6v32.8h11.5v5.7h-31.9V1476.4z M1523.8,1422.9h1.4
			c1.4,0,2.4,0.4,3.3,1.2c0.8,0.8,1.3,1.8,1.3,3.1c0,1.3-0.4,2.3-1.3,3c-0.8,0.7-1.9,1.1-3.3,1.1h-1.4c-1.4,0-2.4-0.4-3.3-1.1
			c-0.8-0.7-1.3-1.7-1.3-3s0.4-2.3,1.3-3.1S1522.5,1422.9,1523.8,1422.9z"/>
		<path class="st4" d="M1548,1437.9h11.2V1426h6.3v11.9h15v5.7h-15v22.8c0,1.3,0.4,2.3,1.2,3.1c0.8,0.7,1.9,1.1,3.3,1.1h9.8v5.7
			h-9.8c-3.3,0-6-0.9-7.9-2.7c-2-1.8-2.9-4.2-2.9-7.2v-22.8H1548V1437.9z"/>
		<path class="st4" d="M1592.1,1476.4V1426h6.3v21.3h16.8V1426h6.3v50.4h-6.3V1453h-16.8v23.4H1592.1z"/>
		<path class="st4" d="M1640.4,1437.9v24.9c0,5.8,2.8,8.8,8.3,8.8c5.6,0,8.5-2.9,8.5-8.8v-24.9h6.3v24.9c0,4.6-1.3,8.1-3.8,10.6
			s-6.2,3.7-11,3.7c-4.7,0-8.3-1.2-10.8-3.7s-3.8-6-3.8-10.5V1438L1640.4,1437.9L1640.4,1437.9z"/>
		<path class="st4" d="M1675.9,1426h6.3v11.2c0,0.7,0,1.4,0,2.3s-0.1,1.7-0.1,2.4c-0.1,0.9-0.2,1.8-0.2,2.7h0.6
			c0.6-2.3,1.8-4.1,3.7-5.4c1.9-1.3,4.2-1.9,7.1-1.9c2,0,3.7,0.4,5.3,1c1.6,0.7,2.9,1.7,4.1,3c1.1,1.3,2,2.9,2.6,4.7
			c0.6,1.9,0.9,4,0.9,6.3v9.8c0,2.3-0.3,4.4-0.9,6.3s-1.5,3.4-2.6,4.7c-1.1,1.3-2.5,2.3-4.1,3s-3.4,1-5.3,1c-2.8,0-5.2-0.6-7.1-1.9
			s-3.1-3.1-3.7-5.4h-0.6v6.7h-5.9V1426H1675.9z M1682.2,1462.1c0,2.9,0.8,5.3,2.3,7c1.6,1.7,3.7,2.6,6.3,2.6c2.8,0,5-0.9,6.6-2.6
			s2.4-4.1,2.4-7v-9.8c0-3-0.8-5.4-2.4-7.1s-3.8-2.5-6.7-2.5c-2.6,0-4.7,0.9-6.3,2.6c-1.6,1.7-2.3,4.1-2.3,7L1682.2,1462.1
			L1682.2,1462.1z"/>
	</g>
	<g>
		<line class="st51" x1="1327.8" y1="1272.5" x2="1327.8" y2="1188.1"/>
		<line class="st51" x1="1327.8" y1="1173.2" x2="1308.3" y2="1195.1"/>
		<line class="st51" x1="1327.5" y1="1173" x2="1349.8" y2="1195.3"/>
		<line class="st51" x1="1410.3" y1="1175.8" x2="1410.3" y2="1260.3"/>
		<line class="st51" x1="1410.3" y1="1275.1" x2="1429.9" y2="1253.3"/>
		<line class="st51" x1="1410.6" y1="1275.3" x2="1388.3" y2="1253.1"/>
	</g>
	<rect x="-27.1" y="943.1" class="st2" width="1183.5" height="105.9"/>
	<g class="st3">
		<path class="st4" d="M148,980.5v-37.4h4.7v8.8c0,0.5,0,1,0,1.6s0,1.1-0.1,1.6c-0.1,0.6-0.1,1.2-0.2,1.8h0.4c0.5-1.7,1.4-3.1,2.7-4
			c1.4-1,3.1-1.4,5.1-1.4c1.4,0,2.7,0.2,3.9,0.7s2.1,1.2,3,2.1c0.8,0.9,1.4,1.9,1.9,3.2c0.5,1.2,0.7,2.6,0.7,4.1v19h-4.7v-18.3
			c0-2.2-0.6-3.9-1.7-5.1c-1.1-1.2-2.7-1.8-4.6-1.8s-3.5,0.7-4.7,2s-1.7,3.1-1.7,5.3v17.9L148,980.5L148,980.5z"/>
		<path class="st4" d="M177.8,951.9h8.3v-8.8h4.7v8.8H202v4.3h-11.2v17c0,1,0.3,1.7,0.9,2.3c0.6,0.6,1.4,0.8,2.5,0.8h7.3v4.3h-7.3
			c-2.5,0-4.4-0.7-5.9-2c-1.5-1.4-2.2-3.1-2.2-5.4v-17h-8.3V951.9z"/>
		<path class="st4" d="M209,951.9h8.3v-8.8h4.7v8.8h11.2v4.3H222v17c0,1,0.3,1.7,0.9,2.3c0.6,0.6,1.4,0.8,2.5,0.8h7.3v4.3h-7.3
			c-2.5,0-4.4-0.7-5.9-2c-1.5-1.4-2.2-3.1-2.2-5.4v-17H209V951.9z"/>
		<path class="st4" d="M241.6,951.9h4.4v4.9h0.4c0.5-1.7,1.4-3.1,2.8-4c1.4-1,3.1-1.4,5.3-1.4c1.5,0,2.8,0.3,4,0.8s2.2,1.3,3,2.2
			c0.8,1,1.5,2.1,1.9,3.5c0.5,1.4,0.7,2.9,0.7,4.7v7.3c0,1.7-0.2,3.3-0.7,4.7s-1.1,2.6-1.9,3.5s-1.8,1.7-3,2.2s-2.5,0.8-4,0.8
			c-2.1,0-3.9-0.5-5.3-1.4c-1.4-1-2.3-2.3-2.8-4H246c0,0.6,0.1,1.2,0.2,1.8c0,0.5,0.1,1.1,0.1,1.6c0,0.6,0,1.1,0,1.6v8.8h-4.7
			L241.6,951.9L241.6,951.9z M246.3,962.6v7.3c0,2.2,0.6,3.9,1.7,5.2c1.2,1.3,2.7,1.9,4.7,1.9c2.1,0,3.7-0.6,4.9-1.9
			c1.2-1.3,1.8-3,1.8-5.2v-7.3c0-2.3-0.6-4-1.8-5.3c-1.2-1.2-2.8-1.9-4.9-1.9c-1.9,0-3.5,0.6-4.7,1.9
			C246.9,958.6,246.3,960.4,246.3,962.6z"/>
		<path class="st4" d="M272.3,973.5h4.9c0.2,1,0.8,1.8,1.9,2.4c1.1,0.6,2.4,0.9,4,0.9h1.5c1.9,0,3.3-0.4,4.4-1.2
			c1-0.8,1.6-1.8,1.6-3.1c0-2.3-1.6-3.6-4.8-4.1l-4.3-0.6c-2.8-0.4-4.9-1.3-6.3-2.7s-2.1-3.2-2.1-5.7c0-2.6,0.9-4.6,2.7-6
			c1.8-1.4,4.4-2.1,7.6-2.1h1.5c1.4,0,2.7,0.2,3.8,0.5c1.2,0.3,2.2,0.8,3.1,1.5c0.9,0.6,1.6,1.4,2.2,2.3c0.6,0.9,0.9,1.9,1.1,2.9
			h-4.9c-0.2-0.9-0.8-1.6-1.8-2.2c-1-0.6-2.2-0.9-3.6-0.9h-1.5c-1.8,0-3.1,0.3-4.1,1s-1.5,1.7-1.5,3.1c0,1.1,0.3,2,1,2.5
			c0.7,0.6,1.8,1,3.3,1.2l4.3,0.6c3.1,0.5,5.3,1.4,6.7,2.7c1.4,1.4,2.1,3.3,2.1,5.8c0,2.7-0.9,4.8-2.8,6.3s-4.5,2.3-7.9,2.3h-1.5
			c-3,0-5.5-0.7-7.5-2.1C273.7,977.6,272.5,975.8,272.3,973.5z"/>
		<path class="st4" d="M310.8,955.6c0-1.2,0.4-2.3,1.2-3c0.8-0.8,1.8-1.2,3.1-1.2s2.3,0.4,3.1,1.2c0.8,0.8,1.2,1.8,1.2,3
			s-0.4,2.3-1.2,3c-0.8,0.8-1.8,1.2-3.1,1.2s-2.3-0.4-3.1-1.2S310.8,956.8,310.8,955.6z M310.8,976.8c0-1.2,0.4-2.3,1.2-3
			c0.8-0.8,1.8-1.2,3.1-1.2s2.3,0.4,3.1,1.2c0.8,0.8,1.2,1.8,1.2,3s-0.4,2.3-1.2,3c-0.8,0.8-1.8,1.2-3.1,1.2s-2.3-0.4-3.1-1.2
			C311.2,979.1,310.8,978,310.8,976.8z"/>
		<path class="st4" d="M353,937.3h4.9l-18.5,48.9h-4.9L353,937.3z"/>
		<path class="st4" d="M384.2,937.3h4.9l-18.5,48.9h-4.9L384.2,937.3z"/>
		<path class="st4" d="M396.3,972.2c0-1.4,0.2-2.6,0.7-3.7c0.5-1.1,1.1-2,2-2.8s2-1.4,3.2-1.8s2.7-0.6,4.2-0.6h8.5V961
			c0-1.8-0.6-3.1-1.7-4.1c-1.2-1-2.8-1.5-5-1.5c-1.6,0-3,0.3-4.1,0.9c-1.1,0.6-1.9,1.4-2.3,2.4h-4.7c0.5-2.3,1.7-4,3.7-5.4
			c2-1.3,4.5-2,7.4-2c3.5,0,6.3,0.8,8.3,2.5c2,1.6,3,3.9,3,6.9v19.8h-4.3V975h-0.4c-0.5,1.8-1.5,3.3-3.2,4.4
			c-1.7,1.1-3.7,1.6-6.1,1.6c-2.9,0-5.2-0.8-6.9-2.4C397.2,977,396.3,974.9,396.3,972.2z M401,972.1c0,1.6,0.5,2.8,1.5,3.7
			s2.4,1.4,4.3,1.4c1.2,0,2.3-0.2,3.3-0.5s1.9-0.8,2.6-1.3s1.3-1.2,1.7-2c0.4-0.8,0.6-1.6,0.6-2.5V967h-8.4c-1.7,0-3.1,0.5-4.1,1.4
			S401,970.5,401,972.1z"/>
		<path class="st4" d="M428.2,943.1h23.4v5.3l-13.2,32.1h-5.3l12.6-29.8c0.2-0.6,0.5-1.1,0.7-1.5s0.4-0.7,0.5-0.9
			c0.2-0.3,0.3-0.6,0.5-0.7v-0.3c-0.6,0-1.1,0.1-1.6,0.1s-0.9,0-1.4,0s-0.9,0-1.2,0h-10.3v5.6h-4.7V943.1z"/>
		<path class="st4" d="M460.1,980.5v-4.2h10V950c0-0.3,0-0.6,0-1s0-0.7,0-1s0-0.7,0.1-1.1h-0.1c-0.2,0.2-0.5,0.4-0.7,0.6
			c-0.2,0.2-0.4,0.3-0.6,0.5s-0.4,0.3-0.6,0.5l-7.3,5v-4.7l8.1-5.7h6v33.3h8.4v4.2L460.1,980.5L460.1,980.5z"/>
		<path class="st4" d="M490.8,962.3c0-3.4,1-6.1,3-8s4.8-2.9,8.4-2.9s6.4,1,8.4,2.9c2,1.9,3,4.6,3,8v5.3h-18.2v2.3
			c0,2.2,0.6,3.9,1.8,5.1c1.2,1.2,2.9,1.9,5,1.9c1.6,0,2.9-0.2,4.1-0.7c1.1-0.5,2-1.2,2.5-2.1h4.7c-0.6,2.2-1.9,3.9-3.9,5.1
			s-4.5,1.9-7.4,1.9c-3.6,0-6.4-1-8.4-2.9s-3-4.6-3-8L490.8,962.3L490.8,962.3z M495.5,963.6H509v-1.4c0-2.1-0.6-3.8-1.8-5
			c-1.2-1.2-2.8-1.8-5-1.8c-2.1,0-3.8,0.6-5,1.8s-1.8,2.8-1.8,5L495.5,963.6L495.5,963.6z"/>
		<path class="st4" d="M533.9,981c-1.8,0-3.4-0.3-4.8-0.8c-1.4-0.5-2.6-1.3-3.6-2.2c-1-1-1.8-2.1-2.3-3.5s-0.8-2.9-0.8-4.6v-7.3
			c0-1.7,0.3-3.2,0.8-4.6c0.5-1.4,1.3-2.6,2.3-3.5c1-1,2.2-1.7,3.6-2.2c1.4-0.5,3-0.8,4.8-0.8c3.2,0,5.7,0.9,7.8,2.6s3.2,4.1,3.7,7
			h-4.7c-0.2-1.7-1-3-2.2-4s-2.7-1.5-4.5-1.5c-2.1,0-3.7,0.6-4.9,1.9c-1.2,1.2-1.8,3-1.8,5.1v7.3c0,2.2,0.6,3.9,1.8,5.1
			c1.2,1.2,2.9,1.9,5,1.9c1.8,0,3.3-0.5,4.5-1.5s2-2.3,2.2-4h4.7c-0.5,3-1.7,5.4-3.7,7.1C539.6,980.2,537,981,533.9,981z"/>
		<path class="st4" d="M560.2,976.4c0-1.4,0.4-2.4,1.2-3.2s1.9-1.2,3.2-1.2s2.4,0.4,3.2,1.2s1.2,1.9,1.2,3.2c0,1.4-0.4,2.5-1.2,3.4
			c-0.8,0.8-1.9,1.3-3.2,1.3s-2.4-0.4-3.2-1.3C560.6,978.9,560.2,977.8,560.2,976.4z"/>
		<path class="st4" d="M584.3,973.5h4.9c0.2,1,0.8,1.8,1.9,2.4c1.1,0.6,2.4,0.9,4,0.9h1.5c1.9,0,3.3-0.4,4.4-1.2
			c1-0.8,1.6-1.8,1.6-3.1c0-2.3-1.6-3.6-4.8-4.1l-4.3-0.6c-2.8-0.4-4.9-1.3-6.3-2.7c-1.4-1.4-2.1-3.2-2.1-5.7c0-2.6,0.9-4.6,2.7-6
			s4.4-2.1,7.6-2.1h1.5c1.4,0,2.7,0.2,3.8,0.5c1.2,0.3,2.2,0.8,3.1,1.5c0.9,0.6,1.6,1.4,2.2,2.3c0.6,0.9,0.9,1.9,1.1,2.9h-4.9
			c-0.2-0.9-0.8-1.6-1.8-2.2c-1-0.6-2.2-0.9-3.6-0.9h-1.5c-1.8,0-3.1,0.3-4.1,1s-1.5,1.7-1.5,3.1c0,1.1,0.3,2,1,2.5
			c0.7,0.6,1.8,1,3.3,1.2l4.3,0.6c3.1,0.5,5.3,1.4,6.7,2.7c1.4,1.4,2.1,3.3,2.1,5.8c0,2.7-0.9,4.8-2.8,6.3c-1.9,1.5-4.5,2.3-7.9,2.3
			h-1.5c-3,0-5.5-0.7-7.5-2.1C585.7,977.6,584.5,975.8,584.3,973.5z"/>
		<path class="st4" d="M616,980.5v-37.4h4.7v8.8c0,0.5,0,1,0,1.6s0,1.1-0.1,1.6c-0.1,0.6-0.1,1.2-0.2,1.8h0.4c0.5-1.7,1.4-3.1,2.7-4
			c1.4-1,3.1-1.4,5.1-1.4c1.4,0,2.7,0.2,3.9,0.7s2.1,1.2,3,2.1c0.8,0.9,1.4,1.9,1.9,3.2c0.5,1.2,0.7,2.6,0.7,4.1v19h-4.7v-18.3
			c0-2.2-0.6-3.9-1.7-5.1c-1.1-1.2-2.7-1.8-4.6-1.8s-3.5,0.7-4.7,2s-1.7,3.1-1.7,5.3v17.9L616,980.5L616,980.5z"/>
		<path class="st4" d="M645.9,972.2c0-1.4,0.2-2.6,0.7-3.7c0.5-1.1,1.1-2,2-2.8s2-1.4,3.2-1.8s2.7-0.6,4.2-0.6h8.5V961
			c0-1.8-0.6-3.1-1.7-4.1c-1.2-1-2.8-1.5-5-1.5c-1.6,0-3,0.3-4.1,0.9c-1.1,0.6-1.9,1.4-2.3,2.4h-4.7c0.5-2.3,1.7-4,3.7-5.4
			c2-1.3,4.5-2,7.4-2c3.5,0,6.3,0.8,8.3,2.5c2,1.6,3,3.9,3,6.9v19.8h-4.3V975h-0.4c-0.5,1.8-1.5,3.3-3.2,4.4
			c-1.7,1.1-3.7,1.6-6.1,1.6c-2.9,0-5.2-0.8-6.9-2.4C646.8,977,645.9,974.9,645.9,972.2z M650.6,972.1c0,1.6,0.5,2.8,1.5,3.7
			s2.4,1.4,4.3,1.4c1.2,0,2.3-0.2,3.3-0.5s1.9-0.8,2.6-1.3c0.7-0.6,1.3-1.2,1.7-2s0.6-1.6,0.6-2.5V967h-8.4c-1.7,0-3.1,0.5-4.1,1.4
			S650.6,970.5,650.6,972.1z"/>
		<path class="st4" d="M684.1,951.9v4.9h0.4c0.5-1.7,1.4-3,2.8-4c1.4-1,3.2-1.5,5.3-1.5c3,0,5.4,0.9,7.1,2.8
			c1.7,1.9,2.6,4.5,2.6,7.8v1.6h-4.7v-1c0-2.3-0.6-4-1.7-5.2c-1.1-1.2-2.7-1.8-4.8-1.8c-2,0-3.7,0.6-4.9,1.9c-1.2,1.3-1.8,3-1.8,5.2
			v17.9h-4.7v-28.6L684.1,951.9L684.1,951.9z"/>
		<path class="st4" d="M709.2,962.3c0-3.4,1-6.1,3-8s4.8-2.9,8.4-2.9s6.4,1,8.4,2.9s3,4.6,3,8v5.3h-18.2v2.3c0,2.2,0.6,3.9,1.8,5.1
			c1.2,1.2,2.9,1.9,5,1.9c1.6,0,2.9-0.2,4.1-0.7c1.1-0.5,2-1.2,2.5-2.1h4.7c-0.6,2.2-1.9,3.9-3.9,5.1s-4.5,1.9-7.4,1.9
			c-3.6,0-6.4-1-8.4-2.9s-3-4.6-3-8L709.2,962.3L709.2,962.3z M713.9,963.6h13.5v-1.4c0-2.1-0.6-3.8-1.8-5s-2.8-1.8-5-1.8
			s-3.8,0.6-5,1.8s-1.8,2.8-1.8,5L713.9,963.6L713.9,963.6z"/>
		<path class="st4" d="M747.4,976.4c0-1.4,0.4-2.4,1.2-3.2s1.9-1.2,3.2-1.2c1.4,0,2.4,0.4,3.2,1.2s1.2,1.9,1.2,3.2
			c0,1.4-0.4,2.5-1.2,3.4c-0.8,0.8-1.9,1.3-3.2,1.3c-1.4,0-2.4-0.4-3.2-1.3C747.8,978.9,747.4,977.8,747.4,976.4z"/>
		<path class="st4" d="M771.6,975.3l17.4-19.1v-0.3c-0.4,0-0.8,0.1-1.2,0.1c-0.3,0-0.8,0.1-1.2,0.1s-0.9,0-1.4,0H772v-4.2h21.9v5.3
			l-17.6,19v0.3c0.4,0,0.8-0.1,1.2-0.1s0.8-0.1,1.2-0.1c0.5,0,0.9,0,1.4,0h14.3v4.2h-22.9L771.6,975.3L771.6,975.3z"/>
		<path class="st4" d="M808.9,951.9v4.9h0.4c0.5-1.7,1.4-3,2.8-4c1.4-1,3.2-1.5,5.3-1.5c3,0,5.4,0.9,7.1,2.8
			c1.7,1.9,2.6,4.5,2.6,7.8v1.6h-4.7v-1c0-2.3-0.6-4-1.7-5.2c-1.1-1.2-2.7-1.8-4.8-1.8c-2,0-3.7,0.6-4.9,1.9c-1.2,1.3-1.8,3-1.8,5.2
			v17.9h-4.7v-28.6L808.9,951.9L808.9,951.9z"/>
		<path class="st4" d="M845.5,981c-1.8,0-3.4-0.3-4.8-0.8c-1.4-0.5-2.6-1.3-3.6-2.2c-1-1-1.8-2.1-2.3-3.5s-0.8-2.9-0.8-4.6v-7.3
			c0-1.7,0.3-3.3,0.8-4.7s1.3-2.5,2.3-3.5s2.2-1.7,3.6-2.2c1.4-0.5,3-0.8,4.8-0.8c3.5,0,6.3,1,8.4,3c2,2,3.1,4.7,3.1,8.2v7.3
			c0,3.5-1,6.2-3,8.2S849,981,845.5,981z M838.7,969.8c0,2.2,0.6,3.9,1.8,5.1c1.2,1.2,2.9,1.9,5,1.9s3.7-0.6,4.9-1.9
			c1.2-1.2,1.8-3,1.8-5.1v-7.3c0-2.2-0.6-3.9-1.8-5.1c-1.2-1.2-2.9-1.9-4.9-1.9s-3.7,0.6-4.9,1.9c-1.2,1.2-1.8,3-1.8,5.1
			L838.7,969.8L838.7,969.8z"/>
		<path class="st4" d="M865.9,943.1h4.7v20.8h5.6l8.7-12h5.4l-10.1,13.8l10.3,14.8H885l-8.7-12.5h-5.7v12.5h-4.7V943.1z"/>
		<path class="st4" d="M903.4,976.4c0-1.4,0.4-2.4,1.2-3.2s1.9-1.2,3.2-1.2c1.4,0,2.4,0.4,3.2,1.2s1.2,1.9,1.2,3.2
			c0,1.4-0.4,2.5-1.2,3.4c-0.8,0.8-1.9,1.3-3.2,1.3c-1.4,0-2.4-0.4-3.2-1.3C903.8,978.9,903.4,977.8,903.4,976.4z"/>
		<path class="st4" d="M928.4,980.5v-4.3h10.4v-20.1h-9.1v-4.3h13.8v24.3h8.6v4.3L928.4,980.5L928.4,980.5z M939.8,940.7h1
			c1,0,1.8,0.3,2.4,0.9c0.6,0.6,0.9,1.4,0.9,2.3c0,0.9-0.3,1.7-0.9,2.2c-0.6,0.6-1.4,0.8-2.4,0.8h-1c-1,0-1.8-0.3-2.4-0.8
			s-0.9-1.3-0.9-2.3c0-0.9,0.3-1.7,0.9-2.3C938,941,938.8,940.7,939.8,940.7z"/>
		<path class="st4" d="M970.2,981c-1.8,0-3.4-0.3-4.8-0.8c-1.4-0.5-2.6-1.3-3.6-2.2c-1-1-1.8-2.1-2.3-3.5s-0.8-2.9-0.8-4.6v-7.3
			c0-1.7,0.3-3.3,0.8-4.7s1.3-2.5,2.3-3.5s2.2-1.7,3.6-2.2c1.4-0.5,3-0.8,4.8-0.8c3.5,0,6.3,1,8.4,3c2,2,3.1,4.7,3.1,8.2v7.3
			c0,3.5-1,6.2-3,8.2S973.8,981,970.2,981z M963.5,969.8c0,2.2,0.6,3.9,1.8,5.1c1.2,1.2,2.9,1.9,5,1.9s3.7-0.6,4.9-1.9
			c1.2-1.2,1.8-3,1.8-5.1v-7.3c0-2.2-0.6-3.9-1.8-5.1c-1.2-1.2-2.9-1.9-4.9-1.9s-3.7,0.6-4.9,1.9c-1.2,1.2-1.8,3-1.8,5.1
			L963.5,969.8L963.5,969.8z"/>
	</g>
</g>
</svg>
